<?xml version="1.0" encoding="UTF-8"?>
<svg xmlns="http://www.w3.org/2000/svg" version="1.1" viewBox="0 0 595.3 841.9">
  <defs>
    <style>
      .cls-1 {
        fill: #51444e;
      }
    </style>
  </defs>
  <!-- Generator: Adobe Illustrator 28.7.3, SVG Export Plug-In . SVG Version: 1.2.0 Build 164)  -->
  <g>
    <g id="Capa_1">
      <g>
        <path class="cls-1" d="M276.1,334.5c-2.1-26.6-8.7-51.1-18.1-66.7-2,1.1-3.9,1.9-5.9,3,7.6,10,13.6,25.4,17.2,44.8,4.8,26.6,4.4,55.8-1.3,81.4-6.7,29.7-18.4,50.1-30.7,65.4-6.3,7.8-12.8,14.6-19.4,21-6.7,6.5-13.4,12.4-20.4,16.6-6.7,4.1-13.6,6.4-20.6,6-7.9-.5-15.8-4.9-23.3-11.1-11.5-9.4-24.6-24.1-29.4-52.8-5-30.4-.6-63.4,7.6-88,2.2-6.5,4.3-12.9,6.7-18.9.2-.6.3-1.3.4-2,1.5-3.6,3-7.1,4.5-10.5,4.8-10.6,10.1-19.9,15.7-27.7,12.2-16.8,25.8-27.1,39.6-33,7.1-3,14.2-4.7,21.4-5.4,3-.3,6-.3,9,0,.7-3,1.6-5.9,2.5-8.6-7-.9-14.1.4-20.9,2.2-15,4-29.9,12-43.8,26.6-12.7,13.5-25,32.1-34.3,57.1-2.3,6.2-4.4,12.7-6.4,19.4-.2.7-.3,1.6-.2,2.4-1.3,4.6-2.6,9.3-3.6,14.3-3.2,15-5,31.7-4.9,48.6.2,16.3,2.5,32.6,6.7,45.4,4.3,12.9,10,22.4,16.1,29.7,13.9,16.4,29.9,26.1,45.5,22,14.9-3.9,29-17.5,42.5-31.9,13.8-14.5,27.5-32,37.3-60.2,4.6-13.4,8.2-28.8,10.1-45.6,1.5-14.3,1.5-29.3.4-43.8"/>
        <path class="cls-1" d="M248.2,279.1c-.8-.8-1.6-1.5-2.4-2.2-.1.3-.3.6-.4,1-.4,1-.7,2-1,2.9-.2.5-.3,1-.5,1.6-.2.7-.4,1.5-.6,2.2,2.8,2,5.5,4.9,7.5,10.1,2.9,7.7,4.2,18.9,3.9,29.1-.3,12.6-2.8,24.4-6,34.4-6.4,20.1-15.4,35.5-24.7,47.4-9.9,12.6-20.7,22.2-31.6,28.5-5.8,3.4-11.8,5.8-17.8,7.5-5.9,1.6-11.9,2-17.8-.9-5.3-2.6-10.5-7.1-14.5-15.9-3.3-7.1-5.8-16.9-6.6-27.3-1-12.6,1.1-23,3.6-33.8,2.8-12.3,6-23.7,10.5-32.8,3-6.1,6.3-10.9,9.7-15.2.3.3.7.2,1.1-.3,1.9-2.7,3.9-5.1,5.9-7.5,4.1-4.2,8.3-8.1,12.3-12.6.9-1,1.8-2,2.6-3,2.6-2.3,5.3-4.4,8-6.3,10.1-6.7,20.6-9.8,31.1-9.1,1.7.1,3.3.3,5,.6.3-3.1.7-6.1,1.2-9.1-9.7-2.1-19.6-.9-29.2,3.5-10.8,4.9-22.1,13-31.5,27.2-1.2,1.8-2.3,3.7-3.4,5.6-3.1,3.9-6.2,8-9.2,12.6-4.9,7.5-9.3,16.2-12.8,27.2-1.9,6.1-3.6,12.5-5.3,19-1.6,5.9-3,11.8-3.7,18.6-2.4,24.5,4.7,49.2,13.5,60.3,5.7,7.2,12,9.3,18.4,9.4,6.5.1,12.9-1.7,19.3-4.2,23.2-9.3,47.6-28.9,64.5-69.4,7.9-18.8,14.4-44.8,11-72.1-1.5-12.3-5.2-22-10.1-27.1"/>
        <path class="cls-1" d="M224.1,313.3c0-3,0-6,0-9-4.8,1.3-9.5,3.7-14.2,6.9-9.7,6.8-18.8,17.5-27.5,29.7-4.4,6.2-8.7,12.9-13,19.7-4,6.4-7.9,12.9-11.5,20.4-4,8.2-7.7,17.4-10.3,28.4-2.2,9.3-3.7,21.3-.2,29.9,1,2.4,2.4-1.2,1.8-3.8-1.9-7.7.6-17.7,2.4-24.1,2.3-8.4,5.2-15.8,8.4-22.4,6.6-13.6,14.1-25.2,21.5-36.1,13-19.2,27.4-35.1,42.6-39.1,0-.1,0-.2,0-.3"/>
        <path class="cls-1" d="M253,316.9c-2.8-6.3-6.5-9.6-10.3-11.4.2,3.4.4,6.9.6,10.3,5.8,3.6,10.8,11.2,10,26.9-.3,5.7,2.9,6.8,3.6,1.6,1.3-10-.8-20.5-3.9-27.4"/>
        <path class="cls-1" d="M255.9,268.9c-1.3.6-2.6,1.2-3.8,1.9,4.9,8.4,9.4,19.8,10.4,34,1.3,18.6-2.5,37.8-6.3,53.5-7.5,30.9-19.2,56.6-32.9,71.1-8.1,8.6-16.7,14.7-25.3,20.1-8.4,5.3-17,9.4-25.7,10.8-8.5,1.4-17.1,0-25.4-5.5-6.8-4.5-13.7-12-18.4-24.8-2.4-6.7-4.2-14.9-4.5-23.8-.4-11.5,1.1-23,3.1-33.4,3.9-20.4,9.4-38.5,16.5-53.4.6-1.3,0-3.8-.7-2.6-6.7,12.8-12.5,28.6-16.7,46.4-4.2,17.4-7.4,39-4,58.6,2.8,16.1,9.3,27,15.8,33.7,8.1,8.2,17.2,11.3,25.9,11.8,9.3.5,18.7-2.7,27.8-7.5,9.2-4.8,18.3-11.1,27.1-18.7,15.7-13.6,29.3-37.8,38.3-71.3,4.5-16.5,8.5-35.8,8.9-55.8.3-18.6-4-34.5-10.1-45.2"/>
        <path class="cls-1" d="M383.5,374c-5-38.1-13.9-75-26.9-100.7-12.5-24.6-27.6-40.4-42.5-54.8-15.2-14.6-31.3-26.9-47.9-23.8-7.9,1.5-15.7,6.4-22.6,15.7-5.9,7.9-10.8,19.2-14.7,32.3-7.7,26-10.9,59.9-7.9,91,2.2,23.1,7.7,43,14.5,60.5,1-2.1,2-4,3.1-6-3.4-9.1-6.4-18.8-8.9-29.5-6.4-27.7-7.2-60.1-2-89.2,5.1-29,15-50.2,27.8-58.8,14.8-9.9,30.3-3.7,44.7,7.7,7.3,5.8,14.5,12.8,21.5,20.1,7.2,7.4,14.2,15.5,20.9,25.3,6.4,9.4,12.4,20.4,17.5,33.6,5.8,15.1,10.2,32.9,13.9,51.4,5.6,28.4,10.6,63.7,4.7,94.1-6.2,32.2-20.4,48.9-34.7,52.2-3.8.9-7.5,1.6-11.3,1.7-.4,0-.7.4-.9.8-2.3,0-4.6-.1-6.9-.4-7.1-.9-14.1-3.7-21-8.3-14.7-10-28.3-27.2-40.7-48.5-1.8-3.1-3.5-6.3-5.3-9.5-.9,1.9-1.9,3.6-2.9,5.2,11.3,21,23.6,39.2,37,52,14,13.5,29.4,22.1,44.6,20.5,3.8-.4,7.5-1.4,11.2-2.8.4-.2.7-.7,1-1.4,2.5-1,5-2.3,7.4-4,7.3-5.3,14.2-14.6,19.7-27.5,5.2-12.5,8.9-29.1,9.9-46.7,1-17.6-.1-35.3-2.4-52.2"/>
        <path class="cls-1" d="M362.9,403.8c-1.9-16-6-29.2-10.7-41.1-4.8-12.1-10.3-22.7-15.9-32.6-20.5-36-45.3-66.3-71.4-67.2-12.1-.4-25.6,7.1-32,33.9-2.9,12.1-3.3,26.2-1.3,39.2,2.2,13.7,6,26.7,9.6,38.5.6,2.1,1.3,4,2,6.1.3-.5.5-.9.8-1.4,0,0,.4-.6.5-1,.2-.3.5-.9.5-1,.3-.6.6-1.2.9-1.8.2-.4.4-.8.5-1.3-1.9-5.7-3.7-11.5-5.3-17.5-3-10.9-6.8-23.5-6.3-37.2.4-11.2,3.1-21.9,6.6-29.2,4.4-9,10.2-13.2,15.8-14.8,11.5-3.2,23.3,1.8,34.2,10.1,11.6,8.7,22.9,21.6,33.1,37.1,5.5,8.3,10.8,17.4,15.8,27.2,5,9.7,9.6,20.6,13.1,33.5,3.2,11.8,5.5,24.7,5.7,38.8.1,11.4-1.2,23.5-4,32.8-3.4,11.3-8.4,15.2-13.8,18.8-6.1,4.1-12.3,6.7-18.7,5.3-4.3-1-8.3-3.4-12.3-6.6-.2-.8-.4-1.5-.9-1.8-2.3-1.5-4.6-3.3-6.9-5.3-4.5-4.4-8.9-9.2-13.4-13.4-1-.9-2-1.8-3-2.6-2.7-3.1-5.4-6.5-8.1-10.1-5.1-7-9.9-15-14.4-23.8-.8,2.8-1.7,5.5-2.6,8.1,2.1,4,4.1,7.8,6.3,11.4,9.8,16.4,20.9,31.2,32.6,37.8,1.4.8,2.9,1.4,4.4,2.1,3.6,2.9,7.3,5.5,11.1,7.5,6.1,3.4,12.3,5,18.6,3.2,3.4-1,6.9-2.7,10.2-4.4,3.1-1.6,6.2-3.3,8.9-7.1,9.9-13.9,12.7-45.6,9.7-70.4"/>
        <path class="cls-1" d="M253.6,352.3c.3-1,.5-1.9.8-2.9.4-1.6.7-3.3,1.1-5,0-.5.2-.9.3-1.3-.4-1-.9-2-1.3-3.1-5.7-14.5-15.1-43.9-5.7-61,2.1-3.8,0-10.5-2.2-7.8-4.3,5.1-6.1,17-6.1,27.7,0,12.7,2.9,24.5,6,34.4,2.2,6.9,4.6,13.2,7.2,19.1"/>
        <path class="cls-1" d="M357.6,401.6c-1.1,9.3-6.3,12.2-9.8,13.7-4.5,2-9.1,2.3-13.7,1.4-9.5-2-18.9-7.1-28.1-12.6-11.3-6.7-22.6-16-32.8-29.7-.2,3.4-.6,6.7-1.1,9.9,9.2,12,19.2,20.4,29.3,27,5.4,3.5,10.8,6.5,16.3,9.2,5.1,2.5,10.2,4.9,15.4,6,5.7,1.2,11.6,1.2,17.1-2.3,4.7-3,9.8-9.2,10-22.2,0-3.7-2.2-3.5-2.6-.4"/>
        <path class="cls-1" d="M229.7,276.7c-6.7,14.3-8.7,35.7-7.1,56.2.4,5,1.1,9.9,1.7,14.7.5,3.8,2.8,1.8,2.4-2-1.8-17.8-2.3-39.9,2.5-55.4,5.1-16.4,14.3-23.8,22.3-28.7,15.8-9.5,33.1-7.1,48.2,7.4,8.9,8.5,17.4,19.9,25.6,31.7,8.1,11.6,15.9,24.4,22.9,39.4,6.9,14.8,12.9,31.7,17.3,51.1,3.6,15.9,6.4,34.5,5.7,52.8-.4,9.6-1.8,18.9-4.5,26.2-3.5,9.5-8.4,15.2-13.3,19.3-9.6,8.1-19.8,11.6-30,9.6-.9-.2-1.2,3-.3,3.3,9.3,2.8,18.8,1.6,27.9-3.9,8.9-5.4,18.4-15.6,22.3-36.7,3.2-17.3,1.9-37.5-.8-54.6-3.4-21.2-9.2-40.3-15.6-56.8-6.9-17.6-14.9-32.5-23.4-45.8-8.5-13.3-17.4-25.5-26.5-36.1-16.3-18.9-34.5-25.8-52.4-17.3-8.8,4.2-18.2,11.1-25.1,25.6"/>
        <polyline class="cls-1" points="198.9 477.3 198.9 477.4 198.9 477.4 198.9 477.3"/>
        <path class="cls-1" d="M201.5,475.7c-.1-1.4-.6-2.4-1-3.3-.5-.9-1-1.9-1.5-2.8-.5-.9-1-2-1.6-2.6-.7-.7-1.5-.4-2.1,0-1.3.7-2.5,1.9-3.7,3.4-.4,0-.8.6-1,1.5-.5,2.5-1,5-1.5,7.5-.5,2.5-.8,5.4,0,7.9.7,2.2,1.9,3.6,2.9,4.5.5.4,1,.9,1.5,1.1.6.3,1.3,0,1.9-.2,1-.2,2.1-.9,3-2.3,1-1.5,1.6-4.1,2.1-6.4.5-2.4,1.3-5.6,1.1-8.4M198.9,477.4s0,0,0,0c-.1,1-.4,2-.5,2.9-.3,1.6-.7,3.3-1.2,4.5-.4,1.1-.9,2.6-1.5,3.2-.3.3-.7.3-1,0-.4-.4-.9-.7-1.3-1-.7-.6-1.5-1.6-2.2-2.1,0,0,0,0,0,0,0-.3,0-.5,0-.7,0-.8.2-1.6.4-2.3.4-2.1.9-4.2,1.3-6.3.7-.9,1.5-1.7,2.2-2.3.4-.3.8-.7,1.2-.8,0,0,.1.2.2.2,0,0,.2.3.3.6.7,1.4,1.4,2.7,2.1,4.1,0,0,0,0,0,.1,0,0,0,0,0-.1,0,0,0,0,0,.1,0,0,0,.1.1.2.2.4,0,.2-.1-.2"/>
        <polygon class="cls-1" points="214.7 466.2 214.7 466.3 214.7 466.2 214.7 466.2"/>
        <path class="cls-1" d="M217.3,464.6c-.1-1.4-.6-2.4-1-3.3-.5-.9-1-1.9-1.5-2.8-.5-.9-1-2-1.6-2.6-.7-.7-1.5-.4-2.1,0-1.3.7-2.5,1.9-3.7,3.4-.4,0-.8.5-1,1.5-.5,2.5-1,5-1.5,7.5-.5,2.5-.8,5.4,0,7.9.7,2.1,1.9,3.6,2.9,4.5.5.5,1,.9,1.5,1.1.6.3,1.3,0,1.9-.2,1-.2,2.1-.9,3-2.2,1-1.5,1.6-4.1,2.1-6.4.5-2.4,1.3-5.6,1.1-8.4M214.7,466.3s0,0,0,0c-.1,1-.4,2-.5,2.9-.3,1.6-.7,3.3-1.2,4.5-.4,1.1-.9,2.6-1.5,3.2-.3.3-.7.3-1,0-.4-.4-.9-.7-1.3-1.1-.7-.6-1.5-1.6-2.2-2.1,0,0,0,0,0,0,0-.3,0-.5,0-.7,0-.8.2-1.6.4-2.3.4-2.1.9-4.2,1.3-6.3.7-.9,1.5-1.7,2.2-2.3.4-.3.8-.7,1.2-.8,0,0,.1.2.2.2,0,.1.2.3.3.6.7,1.4,1.4,2.7,2.1,4.1,0,0,0,0,0,.1,0,0,0,0,0-.1,0,0,0,.1,0,.2,0,0,0,.1.1.2.2.4,0,.2-.1-.2"/>
        <polyline class="cls-1" points="183.1 485.8 183.1 485.8 183.1 485.8 183.1 485.8"/>
        <path class="cls-1" d="M185.9,485.6c0-1.5-.3-2.7-.7-3.8-.4-1.2-.8-2.4-1.2-3.5-.4-1.1-.8-2.5-1.3-3.3-.6-1-1.4-1.2-2.1-1.1-1.3,0-2.6.5-3.9,1.3-.4-.2-.9,0-1.1.9-.7,2.2-1.5,4.3-2.2,6.5-.7,2.2-1.3,4.9-.8,7.6.4,2.5,1.5,4.5,2.4,6,.4.7.9,1.4,1.3,1.9.6.6,1.3.6,1.9.9,1,.4,2.1.3,3.1-.6,1.1-.9,2-3.1,2.7-5.1.7-2.1,1.8-4.7,1.8-7.6M183.1,485.8s0,0,0,0c-.2.9-.5,1.7-.8,2.5-.5,1.4-1,2.8-1.6,3.8-.5.9-1.1,2.1-1.8,2.3-.4.1-.7,0-1-.5-.4-.6-.8-1.2-1.2-1.7-.7-1-1.3-2.3-1.9-3.3,0,0,0,0,0-.1,0-.3,0-.5,0-.7.1-.8.4-1.4.6-2.1.6-1.8,1.2-3.6,1.9-5.4.8-.5,1.6-.8,2.4-1,.4,0,.9-.3,1.3-.1,0,0,.1.2.1.3,0,.1.1.4.2.7.5,1.7,1.1,3.4,1.7,5.2,0,0,0,0,0,.1,0,0,0,0,0-.1,0,0,0,0,0,.1,0,0,0,.2,0,.3.2.5,0,.1,0-.2"/>
        <path class="cls-1" d="M223.2,290.3c0-.2,0-.4.1-.6.1-1.7,0-2.9-.3-3.9,1.2-1.3,1.6-5.6.6-7.9-2.4-3.6-5.7-1.9-8.4-2-10.3,1.6-20.5,7.7-29.9,17.6,6.7-4.9,15.5-7.6,23.2-8.3-8.6,3.7-17,11-25,19.1,8.4-5.7,16.3-10.1,24.6-11.5-1.5,1-2.8,1.8-3.5,2.2-8.7,6.1-17.2,15.2-24.6,27.5,9.4-12,19.8-18.8,29.9-22.3-2.6,1.5-5.2,3.3-7.8,5.5-9.4,8.5-18.2,20.4-26.2,34.6,7.8-11.1,15.3-18.5,24-24.7,7.6-5.1,13.5-6.6,18.7-8,1.2-.1,2.8-.4,3.2-3.6.5-2.3,0-5-.8-6.5,0,0,.1,0,.2,0,1.4.4,2.6-3,2.2-6.2,0-.3-.1-.5-.2-.8"/>
        <path class="cls-1" d="M172.2,332.5c-11.2,17.6-23.5,35.1-30.5,63.4,2.2-13.7,5.4-23.9,10.3-36.1,4.9-12.4,10.2-24.1,15.9-33.6-6.2,8-12.8,19.2-18,28.9-3.2,5.7-6.4,13.2-9.1,21.6,2.7-12.6,6.6-25.8,11.3-36.4,6.1-13.3,13.6-24.9,21.8-34.3-10.6,9.4-21.4,20.1-29.7,39-6.1,13.1-13.6,43.3-11.6,52.6.5,2.3,1.7,3.3,2.7,2.9-.5,3.3-.9,6.6-1,10.1-.2,2.5-.2,5.3.7,7.2.8,2,2.1,2.3,3.1,1,0,2.8.5,5.1,1.6,6.4.6.6,1.2.6,1.8.3-.4,4.6-.2,8.7,1.3,10.5,1.6,1.8,3.5-1.7,3.2-5.7,0-.8,0-1.5,0-2.3,0-1,.3-3.2.4-3.9,4-28.3,13.6-57.4,25.4-77.7-10,13.3-19.7,30.8-25.7,54.2,5.1-25.5,14.8-47.1,25.8-68"/>
        <path class="cls-1" d="M246.7,329.6c0,0,0,0,0-.2,0,0,0,0,0,0,0-.2-.1-.4-.2-.5,0,.2.1.4.2.6,0,.1,0,.3.1.4,0,.1,0-.2-.1-.4"/>
        <path class="cls-1" d="M246.5,369.3c.6-2.1,1.2-4,2-5.9.4-1,.8-2.1,1.2-3.2.1-.3.2-.5.2-.7.5-1.6,1-3.3,1.6-5,.7-2.3,1.5-4.2,2.5-5.8-2.7-6.3-5.1-12.7-7.2-19.3,0,0,0,0,0,0,.4,1.3.3.8,0,0-.4-1.1-1.1-3-.4-1.1-.1-.6-.3-1.1-.6-1.5-.3-.5-.5-.8-.8-1-1.9-10.2-3.2-21.1-3.7-29.9-.3-3.8.5-8.1-.2-11.5-2-4.4-2.8,4-2.8,7.6,0,1.7.1,3.4.2,5.1-1.7-1.9-3-.1-3.5,2.9-.6,1.1-1.1,2.6-1.2,4.7-1.2,20.9,3.3,40.8,8.3,57.3,1,3.4,2.1,6.8,3.3,10.2.3-1,.7-2.1,1-3.2"/>
        <path class="cls-1" d="M264.8,413.6c10.8,18,23.2,33,35,41.6-10.1-9.7-21.9-27.8-32.5-49.1-.7,2.7-1.6,5.2-2.5,7.6"/>
        <path class="cls-1" d="M303.4,432.7c-8.3-7.6-17.2-18.8-25.3-30.7,3.4,3.7,6.9,7,10.5,10,8.5,6.9,17.2,12.9,26.2,14.7-14.1-7.2-29.5-23.1-42.9-43.8-1.2,7.7-2.6,15.7-4.5,22.7,14.7,24.2,32,41.1,47.3,50.2-12.1-10.4-25.5-26.7-37.6-46.7,8.4,9.7,17.3,17.4,26.3,23.6"/>
        <path class="cls-1" d="M233.9,304.5c0-.2,0-.4,0-.5,0,.2,0,.4,0,.5"/>
        <path class="cls-1" d="M233.8,305.7c0-.3,0-.5,0-.8,0-.1,0-.3,0-.4,0,.6,0,1.2,0,1.2"/>
        <path class="cls-1" d="M361.9,431.3c-.2-1.4-.5-2.5-1-3.3.5-1.4.7-3.1.6-4.8,0-1.9-.5-3.4-1.2-4.4.3-.9.5-1.9.5-3.1,0-3.4-1.4-6-2.8-5.1-1.8,2.2-1.5,2.8-2.5,4.2-9.8,15.9-20.7,19-33.3,15.6,5.5,3.8,11.2,6.8,16.9,6.8-8,3.3-16.7,2.7-25.6,1.8,12.6,5.1,26.4,13.4,38.7,1.8-7.3,11.5-22.2,19-34,12.8,9.9,8.4,21.5,11.4,31.5,3,0,0,0,0,0,0-2.7,4.1-3.9,5.4-5.9,7.1-11,7.4-21.8,9.3-33.2,2.1,11.1,11,23.7,14,35.5,8.1,6.2-4.6,11.6-14.2,13.3-21.8.6-2.6,0-5.5-.8-7.1,1-2.1,1.9-4.4,2.7-7.1.6-2,1.1-4.4.7-6.8"/>
        <path class="cls-1" d="M279.5,236.6c7.8.7,15.4,3.2,22.7,9.4-7.6-10.7-16.4-15.2-25.1-17,5.1.2,10.3.3,15.2,2.9-11.4-10.6-24.9-9.5-35.7-3.5,4.7-.3,9.3.1,14,.4-5.7.9-11.3,4-16.8,7.5-2.2,1.4-4.6,2.8-6.7,4,1.8-.5,3.6-.8,5.4-1.1,4.7-.8,9.3-1.7,14-2.2-6.6,2.2-13.2,6.8-19.5,11.8-2.2,1.7-4.7,3.5-6.7,5,4.7-2,9.5-3.7,14.2-5.5,10.4-4.6,24.3-5.7,35.4.3,7.2,3.4,14.5,7.2,20.9,15.3-9.4-14.3-20.2-24-31.3-27.3"/>
        <path class="cls-1" d="M262.6,221.2c7.4,1.2,15,1,22.4,3.2-7.1-6.1-15-6.1-22.4-3.2"/>
        <path class="cls-1" d="M267.5,212.8c4.2,1.7,8.5,1.5,12.7,2.2-3.8-2.7-10-3-12.7-2.2"/>
        <path class="cls-1" d="M282.5,261.4c-1.4-.3-3.4-.6-4.4-.7,1.8.9,3.5,1.8,5.3,2.9,10.7,6.1,19.3,15.6,29.1,28,11.5,14.5,22.8,30,33.1,48.8-17-40.2-38.6-74.4-63.1-79"/>
        <path class="cls-1" d="M241.2,388.1c.2-.1.3-.2.3-.2,0-.1.2-.3.3-.5.4-.6.8-1.1,1.1-1.7,0-.2.2-.3.3-.5-3.8-9.8-7.4-20-10.6-31,2.4,12.5,5.2,23.8,8.3,34.2,0,0,.2-.2.3-.3"/>
        <path class="cls-1" d="M275.4,452.7c-5-9.2-10-18.7-14.8-28.6-.7,2.3-1.6,4.4-2.5,6.3,5.8,10.7,12.3,20,19.5,28.3.9,1.1,2,2.5,2.8,3.5-1.6-3.2-3.3-6.4-4.9-9.5"/>
        <path class="cls-1" d="M239.7,398.3c-9.2,14.7-18,22.2-27.8,31.3-8.8,7.9-17.5,17-26.7,22.8,20.2-7.4,42-20.6,56.6-56.6.5-1.2,1.2-3,1.5-3.9-1.2,2.2-2.4,4.4-3.7,6.4"/>
        <path class="cls-1" d="M157.7,301.6c-12.6,13.9-23.5,37.7-28,69.5-2.1,14-3.9,30.3-1.4,44.6-1.3-12.4.8-25.1,2.7-35.1,5.6-27.9,12.6-47.6,22.8-67.5,3.3-6.5,6.4-12.3,9.7-17.7-2,1.9-3.9,3.9-5.8,6.2"/>
        <path class="cls-1" d="M268.8,371.8c-3.3,11.7-6.5,22.9-9.9,33.5,1.3-5.1,2.5-10.5,3.4-16.2.3-1.6,1.2-6.6,1-5.9-1.2,4-2.4,7.9-3.6,11.8-3.4,11.5-8.5,23.7-13.3,34.5-3.5,7.4-6.4,14.5-10.6,19.3,4.4-2.9,8.3-9.2,11.9-15.4,1.2-2,2.3-4.2,3.4-6.5-5.2,13.1-11.1,25-18.3,35.2,10.1-9.4,19.5-24.2,26.4-44,5.1-14.5,7.9-32.4,11.1-49.5.5-2.5,1-5.7,1.4-7.9-1,3.7-2,7.4-3.1,11.1"/>
        <path class="cls-1" d="M242.6,427.2c-2.6,5.5-4.9,11.3-7.8,15.3,9.2-9,17.5-28,22.1-47.6-4.7,11-9.5,21.5-14.3,32.3"/>
        <path class="cls-1" d="M256.2,379.2c-3.7,12.3-11.7,32-18.3,44.1-3.6,6.8-6.5,13.5-10.6,18.3,6-4.7,11.7-12.4,17-21.4-2.1,4.2-4,8.6-6,12.9,3.2-4.4,6.1-10.6,8.4-17.2.4-.8.8-1.5,1.2-2.3,5.5-12.1,9.8-28,11.8-45.1.2-1.5.5-3.9.5-4.8-1.2,5.4-2.5,10.7-4.1,15.5"/>
        <path class="cls-1" d="M166.6,480.1c-13.6-2.7-25.6-10.1-36.6-26.8-1.3-2-2.7-4.2-3.9-6.1.5,1.2,1,2.5,1.5,3.7,3.2,8.4,6.9,14.7,10.9,19.3-3-2.5-5.8-5.2-8.8-9.2,8.5,17.8,20.2,24.2,31.2,24.8-4-1.8-7.8-4.4-11.7-7.3,5.6,2.6,11.5,2.9,17.3,1.6"/>
        <path class="cls-1" d="M137.9,474.9c-.5-.4-2.1-2.3-1.1-.8,5.7,10.3,12.8,15.2,19.9,16.6-6.3-4.4-13.2-10.3-18.8-15.8"/>
        <path class="cls-1" d="M329.9,255c-1.2-1.2-2.7-2.6-3.8-3.6,2.5,3.4,4.9,6.9,7.3,10.5,14.8,22.6,25.6,40.7,36.8,76.3-8.3-42.3-22.1-67.9-40.3-83.1"/>
        <path class="cls-1" d="M346.9,283.8c-4.9-7.6-10.4-12.3-15.9-16.6-.7-.5-1.4-1.1-2-1.5,1.5,1.9,3,4,4.4,6.1,11.6,16.9,21,31.7,30.3,52.8-4.6-15.7-10.2-29.9-16.8-40.7"/>
        <path class="cls-1" d="M340.8,286.3c5.4,11.3,11.2,19.4,17,29.9-4.4-13.3-10.6-22.9-17-29.9"/>
        <path class="cls-1" d="M355.5,480.2c-6,6.7-12.5,9-18,9.9-6.2.7-12.5,1.5-18.7-.6,8.1,5.3,15.3,8.5,23.4,6.5,6.4-1.9,12.2-9.5,17-19.2.5-1,1.2-2.2,1.7-3.1-1.8,2.3-3.6,4.5-5.4,6.5"/>
      </g>
    </g>
  </g>
</svg>