<?xml version="1.0" encoding="UTF-8"?>
<svg xmlns="http://www.w3.org/2000/svg" version="1.1" viewBox="0 0 1920 1080">
  <defs>
    <style>
      .cls-1 {
        fill: #ffefc8;
        stroke: #b4ff8a;
        stroke-miterlimit: 10;
      }
    </style>
  </defs>
  <!-- Generator: Adobe Illustrator 28.6.0, SVG Export Plug-In . SVG Version: 1.2.0 Build 709)  -->
  <g>
    <g id="Capa_1">
      <g>
        <path class="cls-1" d="M1013.7,520.8c-4.6-4.7-12.3-8-20.6-8.8-13.9-1.4-26.1,3.8-32.2,9.6-1.7,1.6-3,3.2-4.1,4.9-1-1.5-2.3-3-3.8-4.4-6-5.6-18-10.7-31.5-9.5-9.4.8-17.9,4.8-22.2,10.3-3.3,4.2-4.3,9.2-3.2,15.2h0c1.6,8.8,7.5,17.4,16.9,25,8.8,7.1,20.1,12.9,31.6,16.4,5.2,1.5,9.8,2.2,14.1,2.2,8.3,0,15.2-2.4,21.5-5.2,26.1-11.5,40-26.6,39.2-42.5-.3-5.3-2.1-9.7-5.7-13.3ZM973.6,571.8c-9.8,4.3-15.7,4.9-24.1,2.4-10-3-19.9-8.1-27.8-14.5-8.4-6.8-13.6-14.5-15.1-22.2-.9-5-.1-9,2.4-12.2,2.8-3.6,8.4-6.3,14.2-6.9,8.5-.8,16.7,2.9,20.7,6.7,5,4.6,6.4,10.3,7.9,15.9.4,1.5,2.6,2.5,5.2,2.5h0c2.6,0,4.9-1.1,5.2-2.6,1.3-5.7,2.7-11.5,7.7-16.3,4.1-3.9,12.5-7.6,21.2-6.8,5.2.5,10.1,2.7,13.2,5.8,2.7,2.8,4.1,6.2,4.4,10.6.7,14-11.8,27.3-35.1,37.6Z"/>
        <path class="cls-1" d="M443,554.4c-5.9.5-11.5,2.6-15.5,5.6-1.9,1.4-3.4,3-4.4,4.6-4.2,6.4-1.5,12.6,7.1,16.4,4,1.8,9.1,2.6,14.1,2.6s12-1.3,16.1-3.7c8.5-5.1,7.1-13.1,3.4-18.3-3.7-5.2-11.9-8.1-20.7-7.3ZM456.4,578c-5.5,3.3-16.3,3.7-23,.7-6.8-3-8.8-7.9-5.4-13,.9-1.4,2.2-2.7,3.7-3.9,3.2-2.4,7.5-4.1,12-4.5.7,0,1.4,0,2,0,6.6,0,11,2.9,12.9,5.6,3.2,4.5,4.5,11.1-2.3,15.2Z"/>
        <path class="cls-1" d="M90.2,618.3c-5.2,2.7-7.1,7.2-4.6,11h0c1.4,2.1,4,3.9,7.3,5,2.3.8,5,1.2,7.7,1.2s2.7-.1,4-.3c6.4-1.1,10.7-4.3,11.3-8.3.5-4.2-3.3-8.2-9.6-9.8-5.7-1.5-11.5-1-15.9,1.3ZM103.9,619.8c5,1.3,6.9,4.4,6.6,6.9-.4,2.8-3.2,4.9-7.5,5.7-2.4.4-5.1.2-7.4-.6-2.2-.7-4-2-5-3.4-1.8-2.7-.4-6,3.2-7.8,1.6-.8,5.1-2.1,10.1-.8Z"/>
        <path class="cls-1" d="M810.5,568.9c-4.3,1.2-7.7,3.6-9.2,6.4-.9,1.6-1.2,3.3-1,5.1h0c.7,5.2,6.6,9.7,14.9,11.5,2.5.5,5.2.8,7.8.8,6.4,0,12.7-1.5,16.9-4.2,6.1-3.9,7-9.9,2.2-14.2-6.2-5.5-21.9-8.2-31.6-5.4ZM836,586.6c-4.5,2.9-12.4,3.9-18.8,2.6-6.4-1.4-10.9-4.9-11.5-9-.2-1.4,0-2.7.8-4,1.1-2.1,3.5-3.8,6.6-4.7,8.1-2.3,20.3.4,24.7,4.3,3.6,3.2,2.8,7.8-1.7,10.7Z"/>
        <path class="cls-1" d="M185.9,529.9c-1.3-.3-2.9,0-3.5.7-17.8,21.8-18.7,48.1-2.5,70.3,16.2,22.2,49.8,40.6,89.8,49.2.3,0,.6,0,.9,0,1.1,0,2.1-.4,2.5-1,.5-.8-.2-1.6-1.5-1.9-38.6-8.3-71.1-26-86.7-47.5-15.7-21.5-14.8-46.9,2.4-68,.6-.7,0-1.6-1.3-2Z"/>
        <path class="cls-1" d="M325.6,509.6c-1.2.5-1.6,1.4-.8,2.1.8.7,2.5.9,3.7.4,17.2-6.4,40.9-6.8,58.7-1,17.9,5.8,29.1,17.5,27.8,29,0,.8,1,1.5,2.5,1.6,0,0,.1,0,.2,0,1.4,0,2.6-.6,2.6-1.4,1.4-12.7-10.9-25.4-30.5-31.8-19.6-6.3-45.4-5.9-64.3,1Z"/>
        <path class="cls-1" d="M885.3,557.3c-16.3-11.3-41.5-18.2-67.5-18.4-25-.2-49.2,6-64.6,16.4-16.7,11.3-21.9,27.2-13.1,40.6,9,13.7,33,23.9,58.2,24.7,1.2,0,2.4,0,3.6,0,19.1,0,37.5-5.2,49.1-13.4,5.3-2.6,9.4-5.8,11.9-9.5,1-1.5-.4-3.2-3.2-3.8-2.7-.6-5.8.2-6.8,1.8-4.2,6.5-15.4,11.1-29.9,12.4-15.8,1.4-31.5-1.6-39.9-7.7-7.8-5.7-10.4-13.5-7.1-21.5,3.7-8.9,13.8-16.3,27-19.9,25.8-7,61-1,78.4,13.4,16,13.3,17,32.9,2.3,48.7-13.3,14.3-38,26-69.7,32.9-24.3,5.3-51,7.1-77.1,5.8-31.8-4.2-59.4-15.4-75.3-23-31.8-15.3-54.3-35.2-73.9-54.5-4.5-4.4-8.8-8.8-13.2-13.3-15.4-15.6-31.4-31.7-51-46.2-24.6-18.1-51.9-30.9-81.2-38.2-.3,0-.5-.2-.7-.3-35.3-12.1-76.4-15.9-112.8-10.5-1.6.2-3.1.6-4.7.9-40-3.3-89.3,5-117.8,19.7-54.3,28.2-73.4,76.4-45.7,114.9-.3,13.5-9.8,24.3-30.8,35.2-19.3,10-46.4,15.2-72.7,14-20.4-.9-36.6-6-43.3-13.5-3.7-4.1-5-9.5-3.8-15.9,1.2-6.4,4.3-11,9.5-14,7.1-4.2,19.4-5.5,28.7-3,9.3,2.5,15.3,8.7,13.9,14.4-1.3,5.7-10,10.8-20.1,11.9-2.9.3-4.8,1.9-4.2,3.5.5,1.6,3.3,2.7,6.2,2.4,14.7-1.5,26.7-8.7,28.7-17,1.4-5.9-2.5-11.9-9.6-16.2,3,.3,6.2.4,9.3.4s4.9-.1,7.3-.4c8.3-.9,17.6-4.2,19.6-9.6,1.2-3.2-.4-6.6-4.2-9.1-3.6-2.4-9.1-3.9-14.9-4.2-4.6-.2-8.9.4-12.2,1.7-3.9,1.5-6.3,4-6.2,6.4,0,2.8,3.5,5.3,8,6,2.5.4,5.2.2,7.6-.5,2.2-.7,3.8-1.8,4.4-3.1.4-.8-.4-1.6-1.8-1.8s-2.9.2-3.3,1c-.3.5-.9,1-1.9,1.3-1.1.3-2.4.4-3.5.3-2.3-.4-4.1-1.8-4.1-3.2,0-1.5,1.5-3,3.9-4,2.3-.9,5.4-1.3,8.7-1.2,4.4.2,8.6,1.4,11.3,3.2,2.7,1.8,3.9,4.4,3.1,6.6-1.5,4.1-8.8,6.6-15.4,7.3-7.6.8-15.5,0-23.2-1-.3,0-.6,0-.8,0-.6-.2-1.2-.4-1.9-.6-13.5-3.6-30.7-1.8-41,4.2-6.9,4.1-11,9.8-12.4,17.5-1.4,7.7.1,14,4.8,19.2,8.4,9.4,27.8,15.6,51.9,16.7,2.7.1,5.4.2,8.1.2,26.5,0,53.1-5.7,72.6-15.7,17.7-9.1,28.2-18.7,32.3-29.4,31.9,32.5,97.2,54.6,163.3,54.6s4.1,0,6.1,0c28-.6,52.4-4.9,70.8-12.5,14.8-6.1,25.3-14.5,30.4-23.5,2.7-2,5.6-3.8,8.8-5.2,9.4-4.2,21.4-5.8,31.3-4.2,12.2,2,21,9.1,19.9,16.2-.5,3.2-2.8,6.1-6.5,7.8-3.9,1.9-9.6,2.5-13.8,1.4-4.3-1.1-6.8-4.1-5.2-6.4.5-.8-.2-1.6-1.5-1.9-1.4-.3-2.9,0-3.4.9-2.6,3.8,1.1,8.4,8,10.1,2.1.5,4.4.8,6.8.8,4.5,0,9.1-.9,12.7-2.7,4.7-2.3,7.7-5.9,8.2-9.8,1.3-8.5-9.2-17-23.7-19.3-11.5-1.9-25.3,0-36,4.8-1.1.5-2.1,1.1-3.1,1.6.7-2.6,1.1-5.1.8-7.7-1.6-15.5-22.8-29.1-48.3-30.9-21.7-1.5-44.6,5.8-53.3,17.1-8.6,11.3-2.3,25.6,14.7,33.4,2.3,1,5.6.8,7.5-.4s1.5-3.1-.8-4.2c-13.5-6.1-18.5-17.5-11.6-26.4,6.8-8.9,25-14.7,42.2-13.5,20.3,1.5,37.8,12.8,39,25.4,1.2,11.7-10,24-29.4,32-16.6,6.9-39,10.8-64.9,11.3-70.1,1.4-140.6-23.9-167.4-60.3h0s0,0,0,0c-26.8-36.4-8.9-82.2,42.6-109,21-10.9,55.8-18,87.7-18.7-26.6,8.3-46.8,22.1-54.1,37.9-10.4,22.3,7.3,47.4,41.1,58.3,36.2,11.7,86,5,106.7-14.2,15.4-14.3,10.9-33.6-10-43-11.5-5.2-28.9-6.5-44.2-3.4-13.7,2.8-23.1,8.4-25.8,15.4-.6,1.6,1.2,3.2,4.1,3.5,2.8.3,5.7-.7,6.3-2.3,1.9-5,8.8-9,19-11.1,11.9-2.4,25.3-1.4,34,2.5,16.9,7.6,20.3,23.4,7.6,35.3-17.5,16.3-61.5,22.1-92.3,12.1-29.8-9.6-45.4-31.8-36.1-51.7,8.8-18.8,37.9-34.5,74.1-39.9,33.6-5,71.7-1.4,104.6,9.8,51,17.5,78.4,47.5,107.5,79.3,26.8,29.3,54.4,59.6,102.3,78.7,30.8,12.3,69.2,18.8,107.4,18.8s44.3-2.2,64.8-6.6c34.1-7.4,60.8-20.1,75.3-35.7,9.5-10.3,13.1-21.7,11-32.4,1.4-12.2-5.3-24.5-19-34.1ZM553,565.9c-21.8-23.9-44.4-48.4-77.8-66.8,15.5,6.7,30.3,15.2,44.2,25.5,19.4,14.3,35.3,30.3,50.6,45.8,4.4,4.4,8.8,8.9,13.2,13.3,19.8,19.5,42.7,39.8,75.1,55.3,11.1,5.3,27.8,12.4,47.8,17.7-19.4-2.9-37.8-7.7-54-14.1-45.7-18.3-72.8-47.9-99-76.6ZM890.4,569.1c-20.2-16.7-61.4-23.7-91.8-15.4-16.1,4.4-28.3,13.3-32.7,23.9-4.1,9.7-.8,19.4,9,26.4,10.9,7.9,30,11.7,49.9,10,1.8-.2,3.4-.4,5.1-.6-9.4,3-20.3,4.6-31.1,4.3-23.3-.8-45.3-10.2-53.6-22.8-8.1-12.4-3.4-27.2,12.2-37.6,14.4-9.7,37-15.6,60.4-15.3,24.4.2,48.1,6.6,63.4,17.3,6.2,4.3,10.8,9.2,13.8,14.4-1.4-1.5-2.9-3.1-4.6-4.5Z"/>
        <path class="cls-1" d="M1484.8,581.1c8.6-3.8,11.3-10.1,7.1-16.4-1.1-1.6-2.6-3.2-4.4-4.6-4-3.1-9.6-5.1-15.5-5.6-8.9-.8-17,2.1-20.7,7.3-3.7,5.3-5.1,13.2,3.4,18.3,4.1,2.5,10,3.7,16.1,3.7,5,0,10.1-.9,14.1-2.7ZM1458.5,578c-6.8-4.1-5.5-10.7-2.3-15.2,1.9-2.7,6.3-5.6,12.9-5.6s1.3,0,2,0c4.5.4,8.9,2,12,4.5,1.6,1.2,2.8,2.5,3.7,3.9,3.4,5.2,1.4,10.1-5.4,13-6.7,3-17.5,2.6-23-.7Z"/>
        <path class="cls-1" d="M1915.5,628.4c-1.4-7.7-5.5-13.5-12.4-17.5-10.3-6.1-27.5-7.8-41-4.2-.7.2-1.3.4-1.9.6-.3,0-.5-.1-.8,0-7.7.9-15.6,1.8-23.2,1-6.6-.7-13.9-3.2-15.4-7.3-.8-2.2.4-4.8,3.1-6.6,2.7-1.8,6.9-3,11.3-3.2,3.3-.1,6.4.3,8.7,1.2,2.4.9,3.9,2.5,3.9,4,0,1.5-1.9,2.9-4.1,3.2-1.1.2-2.4,0-3.5-.3-1-.3-1.7-.8-1.9-1.3-.4-.8-1.9-1.3-3.3-1-1.4.2-2.2,1-1.8,1.8.6,1.3,2.2,2.4,4.4,3.1,2.3.7,5.1.9,7.6.5,4.5-.7,7.9-3.3,8-6,0-2.5-2.3-4.9-6.2-6.4-3.3-1.3-7.6-1.9-12.2-1.7-5.8.3-11.3,1.8-14.9,4.2-3.8,2.6-5.4,6-4.3,9.1,2,5.4,11.3,8.7,19.6,9.6,2.4.3,4.9.4,7.3.4s6.3-.2,9.3-.4c-7.1,4.3-11,10.3-9.6,16.2,1.9,8.3,14,15.4,28.7,17,2.9.3,5.6-.8,6.2-2.4.5-1.6-1.4-3.2-4.2-3.5-10.1-1.1-18.8-6.2-20.1-11.9-1.3-5.7,4.7-11.9,13.9-14.4,9.3-2.5,21.6-1.2,28.7,3,5.2,3.1,8.3,7.7,9.5,14,1.2,6.5,0,11.8-3.8,15.9-6.7,7.5-22.9,12.6-43.3,13.5-26.2,1.2-53.3-4.1-72.6-14-21-10.8-30.5-21.7-30.8-35.2,27.7-38.5,8.7-86.7-45.7-114.9-28.4-14.7-77.8-23-117.8-19.7-1.6-.3-3.1-.6-4.7-.9-36.4-5.4-77.5-1.6-112.8,10.5-.3,0-.5.2-.7.3-29.3,7.4-56.6,20.2-81.2,38.2-19.7,14.4-35.6,30.6-51,46.2-4.4,4.4-8.8,8.9-13.2,13.3-19.6,19.3-42.1,39.3-73.9,54.5-16,7.7-43.6,18.9-75.6,23.1-26.1,1.3-52.6-.6-76.8-5.8-31.6-6.9-56.4-18.5-69.7-32.9-14.7-15.8-13.8-35.4,2.3-48.7,17.4-14.4,52.6-20.4,78.4-13.4,13.2,3.6,23.3,11,27,19.9,3.3,8,.8,15.8-7.1,21.5-8.4,6.1-24.1,9.1-39.9,7.7-14.5-1.3-25.7-5.9-29.9-12.4-1-1.5-4-2.3-6.8-1.8-2.7.6-4.2,2.3-3.2,3.8,2.4,3.7,6.5,6.9,11.9,9.5,11.6,8.2,29.9,13.4,49.1,13.4s2.4,0,3.6,0c25.3-.9,49.2-11,58.2-24.7,8.8-13.3,3.7-29.3-13.1-40.6-15.4-10.4-39.7-16.5-64.6-16.4-26,.2-51.2,7-67.5,18.4-13.7,9.6-20.4,21.9-19,34.1-2,10.8,1.5,22.2,11,32.4,14.5,15.6,41.2,28.3,75.3,35.7,20.5,4.4,42.6,6.6,64.8,6.6,38.2,0,76.6-6.4,107.4-18.8,47.8-19.1,75.5-49.4,102.3-78.7,29.1-31.8,56.5-61.8,107.5-79.3,32.9-11.2,71-14.8,104.6-9.8,36.2,5.4,65.3,21,74.1,39.9,9.2,19.8-6.3,42-36.1,51.7-30.8,9.9-74.8,4.2-92.3-12.1-12.7-11.9-9.3-27.7,7.6-35.3,8.7-3.9,22.1-4.9,34-2.5,10.2,2,17.1,6.1,19,11.1.6,1.6,3.4,2.6,6.3,2.3,2.9-.3,4.7-1.9,4.1-3.5-2.6-7.1-12-12.7-25.8-15.4-15.3-3.1-32.7-1.7-44.2,3.4-20.9,9.4-25.4,28.6-10,43,20.6,19.3,70.5,25.9,106.7,14.2,33.8-10.9,51.5-36,41.1-58.3-7.4-15.8-27.5-29.5-54.1-37.9,31.9.7,66.7,7.8,87.7,18.7,51.5,26.8,69.5,72.6,42.6,109t0,0h0c-26.8,36.4-97.3,61.7-167.4,60.3-25.8-.5-48.3-4.4-64.9-11.3-19.3-8-30.6-20.2-29.4-32,1.3-12.5,18.8-23.9,39.1-25.3,17.1-1.2,35.3,4.6,42.2,13.5,6.8,8.9,1.8,20.3-11.6,26.4-2.3,1-2.6,2.9-.8,4.2,1.9,1.3,5.2,1.5,7.5.4,17-7.7,23.3-22.1,14.7-33.4-8.6-11.3-31.6-18.6-53.3-17.1-25.5,1.8-46.7,15.4-48.3,30.9-.3,2.6.1,5.1.8,7.7-1-.5-2-1.1-3.1-1.6-10.7-4.8-24.5-6.6-36-4.8-14.6,2.4-25,10.9-23.7,19.3.6,4,3.6,7.5,8.2,9.8,3.6,1.8,8.2,2.7,12.7,2.7,2.3,0,4.7-.3,6.8-.8,6.9-1.7,10.6-6.4,8-10.1-.5-.8-2.1-1.1-3.4-.9-1.4.3-2.1,1.2-1.5,1.9,1.5,2.3-1,5.3-5.2,6.4-4.2,1.1-9.9.5-13.7-1.4-3.6-1.8-6-4.6-6.5-7.8-1.1-7.1,7.7-14.3,19.9-16.2,9.9-1.6,21.8,0,31.3,4.2,3.2,1.4,6.1,3.2,8.8,5.2,5,9,15.6,17.4,30.4,23.5,18.3,7.6,42.8,11.9,70.8,12.5,2,0,4.1,0,6.1,0,66.2,0,131.4-22.1,163.3-54.6,4.1,10.8,14.6,20.3,32.3,29.4,19.5,10,46.1,15.7,72.6,15.7s5.4,0,8.1-.2c24.1-1.1,43.5-7.3,51.9-16.7,4.7-5.2,6.3-11.5,4.8-19.2ZM1033.8,559.2c15.3-10.7,39-17.1,63.4-17.3.3,0,.6,0,.9,0,23.1,0,45.4,5.7,59.6,15.3,15.5,10.5,20.3,25.3,12.2,37.6-8.3,12.6-30.3,22-53.6,22.8-10.9.4-21.7-1.3-31.2-4.3,1.7.2,3.4.5,5.2.6,19.9,1.7,39-2.1,49.9-10,9.8-7.1,13.1-16.7,9-26.4-4.4-10.6-16.6-19.5-32.7-23.9-30.4-8.3-71.6-1.4-91.8,15.4-1.7,1.4-3.2,3-4.6,4.5,3-5.2,7.6-10.1,13.8-14.4ZM1362,565.9c-26.2,28.7-53.3,58.3-99,76.6-16.2,6.5-34.7,11.2-54.1,14.1,19.9-5.3,36.7-12.3,47.8-17.7,32.4-15.6,55.2-35.8,75.1-55.3,4.5-4.4,8.9-8.8,13.2-13.3,15.3-15.5,31.2-31.5,50.6-45.8,13.9-10.2,28.7-18.7,44.2-25.5-33.5,18.4-56,42.9-77.8,66.8Z"/>
        <path class="cls-1" d="M1810.5,635.2c1.3.2,2.6.3,4,.3,2.6,0,5.3-.4,7.7-1.2,3.3-1.1,5.9-2.9,7.3-5h0c2.5-3.8.6-8.4-4.6-11-4.4-2.3-10.3-2.8-15.9-1.3-6.3,1.6-10.2,5.6-9.6,9.8.5,4,4.8,7.2,11.3,8.3ZM1811.1,619.8c1.6-.4,3-.6,4.2-.6,2.7,0,4.7.8,5.9,1.3,3.6,1.9,5,5.2,3.2,7.8-1,1.5-2.8,2.7-5,3.4-2.3.8-5,1-7.4.6-4.3-.7-7.1-2.9-7.5-5.7-.3-2.5,1.6-5.6,6.6-6.9Z"/>
        <path class="cls-1" d="M1099.8,591.9c8.3-1.8,14.2-6.3,14.9-11.5h0c.3-1.7,0-3.4-1-5.1-1.5-2.9-4.9-5.2-9.2-6.4-9.8-2.8-25.4-.1-31.6,5.4-4.8,4.3-3.9,10.3,2.2,14.2,4.2,2.7,10.5,4.2,16.9,4.2,2.6,0,5.3-.3,7.8-.8ZM1077.4,575.9c3.2-2.9,10.9-5.2,17.9-5.2s4.7.3,6.8.9c3,.9,5.4,2.6,6.6,4.7.7,1.3.9,2.6.8,4-.6,4.1-5.1,7.6-11.5,9-6.5,1.4-14.4.3-18.9-2.6-4.5-2.9-5.2-7.5-1.6-10.7Z"/>
        <path class="cls-1" d="M1643.5,647.3c-1.4.3-2,1.2-1.5,1.9.4.6,1.4,1,2.5,1s.6,0,.9,0c40-8.6,73.5-27,89.8-49.2,16.2-22.2,15.3-48.5-2.5-70.3-.6-.7-2.2-1.1-3.5-.7-1.3.3-1.9,1.2-1.3,2,17.2,21.1,18.1,46.5,2.4,68-15.7,21.5-48.1,39.2-86.7,47.5Z"/>
        <path class="cls-1" d="M1497.4,541.8c1.5,0,2.6-.8,2.5-1.6-1.2-11.6,9.9-23.2,27.8-29,17.9-5.8,41.5-5.4,58.7,1,1.2.4,2.9.3,3.7-.4.8-.7.5-1.6-.8-2.1-18.9-7-44.7-7.4-64.3-1-19.6,6.3-31.8,19.1-30.5,31.8,0,.8,1.3,1.4,2.6,1.4s.1,0,.2,0Z"/>
      </g>
    </g>
  </g>
</svg>