<?xml version="1.0" encoding="UTF-8"?>
<svg xmlns="http://www.w3.org/2000/svg" version="1.1" viewBox="0 0 1920 1080">
  <defs>
    <style>
      .cls-1 {
        fill: #fff;
        stroke: #fff;
        stroke-miterlimit: 10;
      }
    </style>
  </defs>
  <!-- Generator: Adobe Illustrator 28.6.0, SVG Export Plug-In . SVG Version: 1.2.0 Build 709)  -->
  <g>
    <g id="Capa_1">
      <path class="cls-1" d="M1572.4,515.7c-60.4,91.9-144.4,162.4-242.3,208.8-19.7-68-111.5-65-174.2-56.3-6.4.9-8.6,8.2-5.8,12.6,26.6,41.5,78.3,67.5,132,64.1-47.3,17.9-97.3,30.7-149,37.7.1-.5.3-1,.3-1.6-1.7-30.9-29-56.3-57.2-72.2-18-10.1-38-17.4-57.9-24.2-9.8-3.3-19.2-6.8-26.4,2.1-15,18.6,5.4,55.9,18.2,70.8,12,14,28.3,25,46.6,31.4-32.9,1-66.2,0-99.9-3.5,3.9-33-9.7-64.2-34.4-89.5-16.1-16.5-56.5-53.6-84.7-48.7-30.5,5.3-16.2,45.4-9.6,62.2,10.3,26.2,28,47.3,51.3,64-39.8-8-79.1-18.8-116.8-32.9,16.9-10.6,10.2-43.8,6.8-58.4-7-30.3-25.9-56.7-52.6-76.4-4.4-3.2-11.4-3.3-14.4,1.6-19,30.6-22.6,69.9-8.4,102.6-21.8-11.5-42.5-24.2-62-38.5,38.1-46,26.9-112-11.2-155-3.3-3.7-10.2-2.8-13.6,0-30.5,24.6-33.1,60.2-27.8,94.4.7,4.6,1.7,11.4,3.5,18.4-6-6-11.7-12.2-17.3-18.6-15.2-17.6-28.2-36.1-39.4-55.1.4,0,.8,0,1.3-.2,59.6-17.1,56.1-87.8,50.9-131.1-.6-4.7-5-8.6-10.7-7.2-38.8,9.7-65.6,40.4-72.1,74-9.3-25.6-15.9-52-20.1-78.8,60.8-6.4,104.9-61.6,101.1-113.7-.4-4.6-4.2-8.6-9.7-8.6-41.6.3-81.6,25.4-97.1,58.7-.5-18.5-.1-37.2,1.2-55.9.2-3.3-1.7-5.4-4.3-6.1-26.8-19.3-68.7-33.2-69.7-69.1-.6-20.4,25-41.8,46.7-25.4,11,8.3,13.6,25.3,16.1,37.1,2,9.9,18.8,5.6,17-4.1-.2-1-.4-2.1-.6-3.1,2.9.2,5.9-1.4,6-4.7,1-20.8,30.1-35.7,48.8-19.7,12.2,10.5,9,28.8,1.3,40.4-13.2,19.8-39.4,26.1-61.1,35.7-9.3,4.2-2.8,17.8,7.1,14.9,40.4-11.6,97.7-46.3,74.6-90.7-18.9-36.3-72.3-25.2-80.6,8.4-4.7-14.5-12.8-28.1-29.2-34.1-19.5-7.2-41.2.4-54.1,14.1-40.9,43.4,20.2,93.2,67,106,0,.2-.2.3-.2.5-3.4,23.6-4.9,46.6-4.6,69.1-9.8-12.6-22.4-23.7-35.6-32.2-14.1-9.2-58.2-33.9-75.6-20.2-9.9,7.9-2.2,22.3,1.2,30.8,6.3,16,13.8,31.8,25.5,45.4,19.7,22.9,51.9,37.1,84.1,28,2-.6,2.9-2.3,3.1-3.9.3-.2.5-.5.7-.8,4.8,37.9,15,73.9,29.7,107.6-25-28.6-64.9-45.1-107.9-41.8-4.6.4-9.7,3.4-9.2,8.1,6.1,63.9,76.4,104.2,143.3,82.9,13.3,21.7,28.8,42.2,46.1,61.5-35.4-4.5-81.8,9.6-110.1,10-7.4.1-12.3,7.3-8.5,13,36.1,54.9,119.6,71.2,173.7,28.9,28,22.6,59.1,42.7,92.9,60.1-45.6-2.8-90.5,9-129.1,31.3-5.3,3.1-6.4,9.3-2,13.4,52.9,49.9,145.7,42.1,179.7-21.6.2-.3.2-.6.3-1,28.6,11.7,58.9,21.4,90.4,29.3-34.4,9.9-66.1,28.1-91.5,51.1-4,3.6-3.7,10.8,1.9,13.2,64.8,28.3,136.9-3.3,182.4-47.1,24.3,2.9,48.9,4.7,73.5,5.3-29.8,17.1-55,40.6-73.7,68.7-3.6,5.4,0,11.5,6.2,13.5,74.5,22.9,161.5-13,186.5-79.6,1.3-3.4.3-6-1.7-7.9,42.1-5,83.5-13.5,123.6-25.1-20.5,26.1-31.5,57.9-30.5,90.9.2,6.3,6.6,10.2,13.3,8.9,62.1-11.9,130.2-74.4,111.2-134.8,104.7-48.3,191.8-123.2,241.2-225.3,3.9-8.1-8.5-15.2-13.8-7.1ZM477.2,392.2c1.1.7,2.7.8,4-.3,16.1-12.4,29.6-27.6,44.4-41.3,6.3-5.8-3.8-14.7-10-8.8-14.1,13.5-28.5,27.9-37.9,44.2,4.3-38.8,34.6-73.4,79.8-78.4-.8,43.1-34.9,74.8-80.4,87.3,0-1,.1-1.9.2-2.8ZM452.8,400.9c-17.9-8.8-31.6-18.6-42.5-34.4-2.7-3.9-9.5-.4-7,3.6,8.5,13.3,20.9,26.2,35.2,35.6-25.8-.5-47.6-13.7-61.7-33.3-7.4-10.2-12.6-21.5-17-32.9-1.1-3-5.5-10.3-4.8-13.4,1-4.4-.7-3.5,8.7-1.1,45,11.4,70.5,39,89.5,74.4,0,.7.2,1.3.3,2-.2-.1-.3-.3-.6-.5ZM387.4,490.7c41.4-.7,79.5,19,98,51.6-8.3-2.6-17.1-4.3-25.1-7.5-12.3-5-23.9-11.5-34.6-18.9-4.5-3.1-10.6,1.8-6.4,5.7,16.3,15.1,44,34.3,69.3,35.6-47.9,2-89-23.8-101.1-66.5ZM520.1,545.1c-1.2-2.3-2.3-4.6-3.5-6.9,14.3-12.9,25.7-29,32.1-45.9,3-7.9-10.8-11-14-3.4-6,14.6-13.4,27.7-22.7,40.5-8.1-38.1,11.7-75.6,50.6-94,4.6,42.6,1.9,79.5-41,108.1-.7.4-1.2,1-1.7,1.6ZM463.5,652.5c39.3-7,93.9-25.1,118.4,4.1-18.1-1.4-36.9-.3-54,2.5-6.7,1.1-5,10.4,1.6,10.3,22.2-.4,43.1,1.7,64.8,3.9-45.4,21.6-97.5,16.2-130.8-20.8ZM614.8,658.2c.1,0,.2,0,.3,0,4.3-1.2,4.4-5.4,1.7-7.4,5-17.9,3.2-39.4,3.8-57.3.2-4.8-8.8-6.1-9.7-1.2-2.6,14-7.4,30.4-8.8,45.7-6-15.1-5.6-40.7-5.7-48-.3-20.4,3.3-38.6,16.9-54.2,31,39.1,26.9,83.3,5.2,125.4-1.3-1-2.6-2-3.8-3ZM596.1,779.6c39.2-20,80.4-26.1,125.9-23.2-21.6,7-43,12.5-66.1,16.8-4.9.9-3.8,7.8,1.2,7.7,25.4-.5,51.3-5.1,75.4-12.9-35.7,36.7-93.8,43.4-136.4,11.6ZM755.3,724.7c-3.4.2-6.1,2-7.4,5.1-.3.6-.5,1.3-.8,1.9-.3.8-.1,1.7,0,2.5-4.2-1.7-8.4-3.6-12.5-5.4.3-21.7-1.8-43.6-3.9-65.2-.5-5-8.3-5-8.7,0-1.7,17.7-3.4,35.6-3.9,53.4-15.7-29.2-19.8-60.6-4.7-92.3,15.1,12.7,26.8,27.5,34,45.5,3.2,8.1,13.5,41.9,8.1,54.4ZM776.2,845.2c31.1-24.9,66.5-38.8,106-45.7,3.4.7,6.8,1.4,10.2,2-19.3,6.9-38.3,15.9-56.4,23.4-4.2,1.8-1.2,8,3.2,6.7,17.7-5.2,36.9-10,55.1-16.1-35.3,23.5-72.8,43.5-118.1,29.6ZM940.2,783.4c-1.3-.2-2.7-.4-4-.6-9.8-27.1-31.3-54.6-52.7-75-4.2-4.1-12.2,1.3-8.7,5.9,9.4,12.6,18.9,25,26.8,38.5,5.2,8.9,9.3,18.3,13.6,27.5-3-.5-5.9-.8-8.9-1.3-22.1-13.6-40.2-31.9-52.5-53.1-8.2-14-34.4-66.2,1.8-58.6,18.6,3.9,42.2,26.9,54.7,39.8,21.2,21.8,32.7,48.3,30,76.8ZM961.9,881.3c22.1-29.1,51.2-51.9,85.4-67.8,14.8-.3,29.7-1.1,44.5-2.1-8.6,6.1-17.3,11.9-26.5,17.3-11.2,6.6-23.4,12-33.8,19.5-4,2.9.4,8,4.7,7.1,23.4-4.7,46.3-18,66.5-31.3-27.1,44.4-84.6,68.5-140.6,57.3ZM1118.4,784.2c-.8-.9-2-1.5-3.6-1.4-1.1,0-2.2.2-3.3.3-16.8-15.9-34.9-31.9-53.6-46.1-6-4.6-13.5,2.3-8.7,7.6,12.1,13.4,25.6,26.3,39.2,38.9-21.1-3.2-39.8-11.1-55-25.2-9.2-8.5-16.9-18.7-21.5-29.8-2.1-5-9.6-25.8-5.8-29.3,5.7-5.3,54.1,19.2,64.2,25.2,24.9,14.6,38.4,33.7,47.3,58.5.2.5.6,1,.9,1.4,0,0-.1,0-.2,0ZM1174.9,682.9c49.2-5.9,111.7-6.8,133.6,36.9-20.8-9.7-41.6-19.3-62.6-28.6-7.7-3.4-14.2,6.2-6.8,10.3,19,10.4,38.3,20.5,57.6,30.5-.5,0-.9-.2-1.4-.2-49.2,1.9-92.3-14.2-120.4-48.8ZM1304.4,820.9c-15.5,19.5-37.2,33.3-62.2,40.6,2.5-34.4,18.5-65.6,44.6-90,2.2-.8,4.3-1.7,6.5-2.5-8.4,13.9-14.8,28.8-17,43.8-.7,4.6,7.4,6.1,9.6,2.3,12-20.2,22.3-39.5,37.4-57.6,1.3-.5,2.7-1,4-1.5-3.2,23.6-6.2,44.1-22.7,65Z"/>
    </g>
  </g>
</svg>