<?xml version="1.0" encoding="UTF-8"?>
<svg xmlns="http://www.w3.org/2000/svg" version="1.1" viewBox="0 0 1920 1080">
  <defs>
    <style>
      .cls-1 {
        fill: #fff;
        stroke: #fff;
        stroke-miterlimit: 10;
      }
    </style>
  </defs>
  <!-- Generator: Adobe Illustrator 28.6.0, SVG Export Plug-In . SVG Version: 1.2.0 Build 709)  -->
  <g>
    <g id="Capa_1">
      <path class="cls-1" d="M310.7,523.3c51.1,99.1,141.5,171.9,250,218.8-19.7,58.7,50.9,119.3,115.3,130.9,7,1.3,13.6-2.6,13.8-8.7,1-32.1-10.4-63-31.7-88.3,41.5,11.3,84.4,19.6,128.1,24.4-2,1.8-3.1,4.4-1.8,7.7,26,64.7,116.1,99.5,193.4,77.3,6.5-1.9,10.2-7.8,6.4-13.1-19.4-27.3-45.6-50.1-76.4-66.7,25.5-.7,51-2.4,76.2-5.2,47.2,42.6,122,73.2,189.2,45.7,5.8-2.4,6.2-9.3,2-12.8-26.4-22.3-59.2-40-94.9-49.6,32.6-7.7,64-17.2,93.7-28.5.1.3.1.6.3.9,35.2,61.8,131.4,69.4,186.3,21,4.6-4,3.5-10.1-2-13.1-40-21.6-86.6-33.1-133.9-30.4,35-16.9,67.3-36.4,96.3-58.3,56.1,41.1,142.7,25.2,180.1-28.1,3.9-5.6-1.1-12.6-8.8-12.7-29.4-.4-77.5-14.1-114.2-9.8,17.9-18.7,34-38.6,47.8-59.7,69.4,20.7,142.3-18.4,148.6-80.5.5-4.6-4.7-7.6-9.6-7.9-44.5-3.2-85.9,12.8-111.9,40.6,15.3-32.8,25.8-67.8,30.8-104.6.2.3.5.5.7.8.2,1.6,1.1,3.3,3.2,3.8,33.4,8.9,66.8-4.9,87.2-27.2,12.1-13.1,19.9-28.6,26.4-44.1,3.5-8.3,11.5-22.3,1.2-29.9-18-13.3-63.7,10.7-78.4,19.6-13.7,8.3-26.7,19.1-36.9,31.3.3-21.9-1.2-44.3-4.8-67.2,0-.2-.1-.3-.2-.5,48.5-12.4,111.8-60.8,69.4-102.9-13.4-13.3-35.9-20.7-56.1-13.7-17.1,5.9-25.4,19.1-30.3,33.2-8.6-32.6-63.9-43.4-83.5-8.2-24,43.1,35.4,76.8,77.3,88.1,10.4,2.8,17.1-10.5,7.4-14.5-22.6-9.4-49.7-15.5-63.4-34.7-8-11.3-11.4-29,1.3-39.2,19.3-15.6,49.5-1.1,50.6,19.1.2,3.3,3.3,4.8,6.3,4.6-.2,1-.5,2-.6,3-1.9,9.5,15.5,13.6,17.6,4,2.5-11.4,5.2-28,16.7-36,22.6-15.9,49.1,4.9,48.5,24.7-1,34.8-44.4,48.4-72.3,67.1-2.7.7-4.7,2.7-4.5,6,1.4,18.1,1.7,36.2,1.2,54.3-16.1-32.4-57.5-56.7-100.6-57.1-5.7,0-9.7,3.9-10.1,8.3-4,50.6,41.7,104.3,104.8,110.5-4.4,26.1-11.2,51.7-20.8,76.5-6.8-32.7-34.5-62.4-74.7-71.9-6-1.4-10.5,2.4-11.1,7-5.4,42-9,110.7,52.8,127.3.5.1.9,0,1.3.2-11.7,18.5-25.1,36.4-40.9,53.6-5.7,6.2-11.7,12.2-17.9,18.1,1.8-6.8,2.8-13.4,3.6-17.9,5.5-33.2,2.8-67.8-28.8-91.7-3.6-2.7-10.7-3.6-14.1,0-39.5,41.8-51.2,105.9-11.6,150.6-20.2,13.9-41.7,26.3-64.3,37.4,14.8-31.8,11-70-8.7-99.7-3.2-4.8-10.4-4.7-15-1.6-27.7,19.2-47.3,44.8-54.5,74.2-3.5,14.2-10.5,46.5,7,56.7-39,13.7-79.8,24.2-121,31.9,24.2-16.2,42.5-36.7,53.2-62.2,6.9-16.4,21.6-55.3-9.9-60.4-29.2-4.8-71.1,31.3-87.8,47.3-25.6,24.6-39.8,54.8-35.7,86.9-34.9,3.3-69.4,4.3-103.6,3.4,19-6.2,35.9-16.9,48.4-30.5,13.3-14.5,34.4-50.8,18.9-68.8-7.4-8.6-17.2-5.2-27.4-2-20.6,6.5-41.3,13.7-60,23.5-29.3,15.4-57.6,40-59.3,70.1,0,.6.1,1.1.3,1.6-53.6-6.8-105.4-19.3-154.5-36.7,55.6,3.3,109.2-22,136.8-62.2,2.9-4.2.6-11.4-6-12.2-65.1-8.4-160.3-11.3-180.6,54.7-101.5-45.1-188.6-113.5-251.2-202.8-5.5-7.8-18.3-.9-14.3,6.9ZM1460.6,399.2c-47.2-12.2-82.5-42.9-83.3-84.8,46.8,4.9,78.2,38.5,82.7,76.1-9.8-15.9-24.7-29.9-39.3-43-6.4-5.7-16.9,2.9-10.4,8.6,15.3,13.3,29.3,28,46,40.1,1.4,1,3,.9,4.2.2,0,.9.2,1.8.2,2.7ZM1485,405.3c0-.6.2-1.3.3-1.9,19.7-34.3,46.2-61.2,92.7-72.2,9.7-2.3,8-3.2,9,1.1.7,3-3.8,10.1-5,13-4.6,11.1-10,22.1-17.7,32-14.6,19-37.2,31.9-64,32.3,14.8-9.1,27.7-21.7,36.5-34.6,2.6-3.9-4.5-7.3-7.2-3.5-11.2,15.3-25.4,24.8-44,33.4-.3.1-.4.3-.6.5ZM1448.6,556.8c26.2-1.2,54.9-19.9,71.8-34.6,4.3-3.7-2-8.5-6.7-5.5-11.1,7.1-23.1,13.5-35.9,18.3-8.3,3.1-17.4,4.8-26,7.3,19.1-31.7,58.7-50.9,101.6-50.2-12.5,41.5-55.2,66.5-104.9,64.6ZM1414.2,543.5c-44.4-27.8-47.2-63.7-42.5-105,40.4,17.9,60.9,54.3,52.5,91.3-9.6-12.4-17.3-25.1-23.5-39.3-3.3-7.4-17.5-4.3-14.5,3.3,6.6,16.5,18.5,32,33.3,44.6-1.2,2.2-2.3,4.5-3.6,6.7-.5-.6-1-1.1-1.7-1.5ZM1339,669.5c22.5-2.1,44.2-4.2,67.2-3.8,6.9.1,8.5-9,1.6-10-17.7-2.7-37.2-3.8-56-2.4,25.4-28.4,82-10.8,122.7-4-34.6,35.9-88.5,41.2-135.6,20.2ZM1313.8,657.8c-22.6-40.9-26.7-83.9,5.4-121.8,14.1,15.2,17.9,32.9,17.6,52.7,0,7.1.4,31.9-5.9,46.6-1.4-14.9-6.4-30.8-9.1-44.4-.9-4.8-10.2-3.5-10.1,1.1.6,17.4-1.2,38.2,3.9,55.6-2.8,2-2.8,6,1.7,7.2.1,0,.2,0,.3,0-1.3,1-2.6,1.9-3.9,2.9ZM1195.6,761.6c25,7.5,51.8,12,78.2,12.5,5.1,0,6.3-6.6,1.2-7.5-23.9-4.1-46.2-9.5-68.5-16.3,47.2-2.8,90,3.1,130.6,22.5-44.2,30.9-104.4,24.4-141.4-11.2ZM1180.4,666.6c7.4-17.5,19.6-31.8,35.2-44.2,15.7,30.8,11.3,61.4-4.9,89.7-.5-17.3-2.3-34.8-4-51.9-.5-4.8-8.6-4.8-9.1,0-2.1,20.9-4.3,42.2-4,63.3-4.4,1.7-8.6,3.5-13,5.2,0-.8.3-1.7,0-2.5-.3-.6-.6-1.3-.9-1.9-1.4-3-4.2-4.7-7.7-4.9-5.7-12.1,5-45,8.4-52.8ZM1028,807.7c18.9,5.9,38.8,10.6,57.1,15.6,4.6,1.3,7.7-4.8,3.3-6.5-18.7-7.3-38.5-16-58.5-22.8,3.5-.7,7-1.3,10.6-2,40.9,6.7,77.6,20.2,109.9,44.4-47,13.4-85.9-5.9-122.5-28.8ZM1011.5,701.8c13-12.6,37.4-34.9,56.7-38.7,37.6-7.3,10.4,43.3,1.9,57-12.8,20.5-31.6,38.4-54.5,51.6-3.1.5-6.1.8-9.2,1.2,4.5-9,8.7-18.1,14.1-26.7,8.2-13.1,18-25.1,27.7-37.4,3.6-4.6-4.7-9.7-9.1-5.8-22.2,19.9-44.5,46.5-54.6,72.9-1.4.2-2.8.4-4.1.6-2.8-27.7,9.1-53.4,31.1-74.6ZM812.1,815.9c20.8,12.9,44.6,25.8,68.9,30.4,4.5.8,9-4.1,4.9-6.9-10.8-7.3-23.5-12.5-35.1-18.9-9.5-5.3-18.6-11-27.5-16.8,15.3,1,30.7,1.8,46.1,2.1,35.4,15.4,65.6,37.6,88.5,65.9-58.1,10.9-117.7-12.5-145.8-55.6ZM795.4,776.4c.3-.4.7-.8.9-1.4,9.2-24.1,23.2-42.6,49-56.8,10.4-5.8,60.6-29.6,66.6-24.5,3.9,3.4-3.8,23.6-6,28.5-4.8,10.8-12.8,20.7-22.3,29-15.7,13.7-35.2,21.4-57,24.5,14.1-12.2,28.1-24.8,40.7-37.8,5-5.2-2.7-11.9-9-7.4-19.3,13.8-38.1,29.3-55.5,44.8-1.1,0-2.3-.2-3.4-.3-1.7,0-2.8.5-3.7,1.4,0,0-.1,0-.2,0ZM612.2,726.2c-.5,0-.9.1-1.4.2,20-9.7,40-19.5,59.7-29.6,7.7-4,1-13.3-7-10-21.8,9-43.4,18.3-64.9,27.8,22.7-42.4,87.5-41.6,138.5-35.8-29.1,33.7-73.9,49.3-124.8,47.4ZM579.3,749.8c1.4.5,2.8,1,4.1,1.5,15.6,17.6,26.3,36.4,38.7,56,2.3,3.7,10.7,2.2,10-2.2-2.3-14.5-9-29-17.7-42.5,2.3.8,4.4,1.7,6.7,2.4,27.1,23.7,43.6,54,46.2,87.4-26-7.1-48.5-20.5-64.5-39.4-17.2-20.3-20.3-40.2-23.6-63.1Z"/>
    </g>
  </g>
</svg>