<?xml version="1.0" encoding="UTF-8"?>
<svg xmlns="http://www.w3.org/2000/svg" version="1.1" viewBox="0 0 1920 1080">
  <defs>
    <style>
      .cls-1 {
        fill: none;
        stroke: #fff;
        stroke-miterlimit: 10;
      }
    </style>
  </defs>
  <!-- Generator: Adobe Illustrator 28.6.0, SVG Export Plug-In . SVG Version: 1.2.0 Build 709)  -->
  <g>
    <g id="Capa_1">
      <g>
        <g>
          <path class="cls-1" d="M1117.6,635.5c2-13.6-21-26.9-48.5-27.9-.7,7.3.4,14.9,8.5,21,8.1,6.1,25,9.7,38,6.3"/>
          <path class="cls-1" d="M1079.7,613.7c6.6,9.1,20.6,16.7,38,21"/>
          <path class="cls-1" d="M1116.7,634.2c11.7-11.7,44.8-16.6,67.5-10-10.2,5.2-20.7,10.5-34.2,13.2s-30.8,2.1-40.4-3.3"/>
          <path class="cls-1" d="M1181.9,625.6c-23.1,3.4-46.2,6.8-69.3,10.2"/>
          <path class="cls-1" d="M1114.8,637.4c-65.1,39.4-168.2,62.6-270.9,61"/>
          <path class="cls-1" d="M935.3,693.9c20.9.4,41.1,5.9,52.7,14.5-13.1,0-26.5.2-38.9-1.9-12.4-2.1-23.9-6.7-27-13"/>
          <path class="cls-1" d="M926.1,695.1c18.9,5.2,39.3,9.1,60.4,11.6"/>
          <path class="cls-1" d="M900.3,695c-4.3,2.6-14,2-17-1-3-3,2.1-7.1,8.8-7.2,6.8-.1,12.3,3.9,9.7,7"/>
          <path class="cls-1" d="M912.8,697.4c-7.7-1.3-16,3.8-11.9,7.2,4.1,3.5,17,2.4,18.8-1.5,1.8-3.9-8.8-7.6-15.7-5.5"/>
          <path class="cls-1" d="M1121.4,629.9c17.5-11,15-28.5-5.4-38.1-14.5,6-18.4,17.4-8.8,25.5"/>
          <path class="cls-1" d="M1116.2,593.8c-.3,13.9-.5,27.7-.8,41.6"/>
          <path class="cls-1" d="M770.8,399.2c-103.7,12.9-190.5,54.9-218.7,106"/>
          <path class="cls-1" d="M641.3,435.3c19.9-7.2,50.9-5.1,66.2,4.5-19.8,8.1-53.3,5.9-68.1-4.5"/>
          <path class="cls-1" d="M639.4,435.3c22.3.4,44.5,2.3,65.7,5.6"/>
          <path class="cls-1" d="M695.1,413.4c-5.5,2.8-16.7,1.8-19.8-1.8-3.1-3.6,3.2-8.3,11.2-8.3s14.2,4.7,11.1,8.3"/>
          <path class="cls-1" d="M700.8,412.6c4.1-2.2,12.5-1.6,15.3,1,2.8,2.6-1.1,6.4-7.1,6.8-6,.4-11.8-2.7-10.5-5.6"/>
          <path class="cls-1" d="M770.7,399.3c4.8-3.8,18.2-3.6,22.6.3,4.4,3.9-2.3,9.7-11.4,9.7-9.1,0-16-5.7-11.7-9.6"/>
          <path class="cls-1" d="M758.5,400.6c-5.6,1.4-13.4-.9-13.7-4-.3-3.1,7.1-5.7,13-4.6s7.6,5.6,3.1,7.7"/>
          <path class="cls-1" d="M900.6,698.8c-11.6,3.6-23.1,7.2-34.7,10.8"/>
          <path class="cls-1" d="M865.7,709.6c3.8,3.9-3,9.2-11.8,9.2s-15.5-5.4-11.6-9.3c3.9-3.9,16.5-4.6,21.9-1.1"/>
          <path class="cls-1" d="M843.4,699.5c2.5-3.7-5.1-8-12.8-7.3-7.7.7-11.7,6.1-6.7,9.1s16.4,2.1,19.3-1.5"/>
          <path class="cls-1" d="M837.4,697.3c-.7,1.4-3.5,2.4-6.3,2.3"/>
          <path class="cls-1" d="M860.4,713.2c-1.5,1.3-4.3,2.1-7.3,2.2"/>
          <path class="cls-1" d="M895.6,691.4c-.6,1-3.3,1.6-5.2,1.1"/>
          <path class="cls-1" d="M914.2,702.3c-.9.8-2.7,1.4-4.5,1.4"/>
          <path class="cls-1" d="M923.3,692.9c-6.3.5-12.9-1.9-13.9-5s3.6-6.4,9.9-7c6.3-.6,13,1.7,14.3,4.8,1.3,3.1-3.2,6.5-9.4,7.2"/>
          <path class="cls-1" d="M928.2,687.5c-1.5,1.6-5,2.6-8.5,2.5"/>
          <path class="cls-1" d="M787.4,402.1c0,1.3-1.5,2.5-3.8,3.1"/>
          <path class="cls-1" d="M757,395.8c.8.9.1,2.2-1.6,2.7"/>
          <path class="cls-1" d="M690.6,407.9c.3,1.3-1.3,2.6-3.8,3.1"/>
          <path class="cls-1" d="M710.6,415.2c0,1.1-1.6,2.1-3.7,2.3"/>
          <path class="cls-1" d="M627.4,404.3c1.8,11.1,1.7,22.4,0,33.5"/>
          <path class="cls-1" d="M763.1,399.6c6.6-3.5,13.2-7,19.8-10.6"/>
          <path class="cls-1" d="M782.4,387.8c4,3.3,14.1,4.2,20,1.8,6-2.4,6.3-7.5.6-10.1-5.7-2.6-15.9-1.9-20.1,1.3-4.2,3.2-1.1,8.1,5.9,9.6"/>
          <path class="cls-1" d="M799.2,382.6c.5,1.9-1.9,3.8-5.5,4.5"/>
          <path class="cls-1" d="M629.3,469.4c-15.5,1.7-31.6,2.4-47.5,2"/>
          <path class="cls-1" d="M607.4,497c-17.8,4.1-37.1,6.6-56.6,7.2"/>
          <path class="cls-1" d="M527.9,479.9c12.9,6.9,22.5,15.3,27.6,24.4"/>
          <path class="cls-1" d="M598.3,458.1c9.4-2.1,19.8-3,30.1-2.7"/>
          <path class="cls-1" d="M628.4,454.4c-.5,3.7,6.9,7.1,14.3,6.5,7.3-.6,12.2-5,9.3-8.4-2.9-3.4-12.7-4.7-18.6-2.5-4.2,1.5-6,4.2-6.4,6.7"/>
          <path class="cls-1" d="M645.1,454c1,1.6-2.4,3.4-5.7,3"/>
          <path class="cls-1" d="M588.2,463.6c1.4-4.2,1.1-8.5-.8-12.7"/>
          <path class="cls-1" d="M587.5,450.3c-6.7,1.1-14.7-.8-17.2-4.1-2.5-3.3,1-7.3,7.5-8.7s14.8.2,17.9,3.3c3.1,3.1.4,7.3-5.8,9"/>
          <path class="cls-1" d="M585.6,441.4c3.9,1.4,4.7,4.5,1.6,6.3"/>
          <path class="cls-1" d="M587.3,463.6c-.9,1.4-1.8,2.7-2.7,4.1"/>
          <path class="cls-1" d="M1034.7,647.6c1.7,7.8,3.3,15.7,5,23.5"/>
          <path class="cls-1" d="M1038.4,671.1c11.8-2.5,25.3-2.8,37.5-.9"/>
          <path class="cls-1" d="M1074.6,669c-2.8,2.8.2,6.6,6,7.8,5.9,1.2,13.4-.5,15.4-3.5,2-3-2-6.6-8.1-7.3-6.4-.8-13.9,2-12.9,5.3"/>
          <path class="cls-1" d="M1037.7,670.5c6.5,1.1,12.6,2.7,18,4.8"/>
          <path class="cls-1" d="M1057.4,674.8c5.9-.9,12.8.8,15,3.6s-.8,6.4-6.3,7.7c-5.6,1.3-12.9,0-15.8-2.7s-.9-6.4,4.4-8"/>
          <path class="cls-1" d="M1089.7,670.2c.7,1-.2,2.2-2,2.6"/>
          <path class="cls-1" d="M1065,680.2c0,1-1.7,2-3.7,2.2"/>
          <path class="cls-1" d="M949.9,692c7.3-2.7,12.9-6.6,15.5-10.9"/>
          <path class="cls-1" d="M963.5,680.2c6.2,2.1,16,.9,19.4-2.5,3.4-3.3-.5-8-7.6-9.2-7.2-1.2-15.9,1.3-17.3,5s4.7,7.6,12.2,7.9"/>
          <path class="cls-1" d="M977.3,672.9c.5,1.7-1,3.5-3.8,4.5"/>
        </g>
        <g>
          <path class="cls-1" d="M1033.2,418.7c-27.5-1-54.3,10.4-56.4,24,14.7.3,30.2-.2,42.4-4.2,12.3-4,19.6-12.4,12.8-18.8"/>
          <path class="cls-1" d="M989,437.4c18.3-3.3,33.8-10.2,42.4-18.8"/>
          <path class="cls-1" d="M1030.5,419.1c-23.6-5.8-33.6-22.2-20.3-33.4,10.4,5,21.2,10.3,26.6,16.9,5.5,6.7,4.3,15.3-6.7,20"/>
          <path class="cls-1" d="M1013.2,386.8c6.8,11.4,13.7,22.9,20.5,34.3"/>
          <path class="cls-1" d="M1037.1,420.1c79.5,32.2,126.5,83.3,123.3,134.1"/>
          <path class="cls-1" d="M1151,509c.7-10.3,12-20.3,29.3-26.1.2,6.5.3,13.1-3.8,19.3-4.1,6.1-13.5,11.8-26.2,13.4"/>
          <path class="cls-1" d="M1153.6,513.5c10.6-9.4,18.5-19.5,23.4-29.9"/>
          <path class="cls-1" d="M1153.3,526.3c5.2,2.1,4,6.9-2,8.4s-14.4-1-14.6-4.4c-.2-3.3,7.8-6.1,14.1-4.8"/>
          <path class="cls-1" d="M1158.1,520.1c-2.7,3.8,7.6,7.9,14.6,5.9,7-2,4.9-8.4-3.1-9.3s-15.3,4.3-11.1,7.8"/>
          <path class="cls-1" d="M1021.9,416.8c-22.1-8.7-57.6-7.4-77,2.7,12.2,7.2,35.1,9.1,51.4,4.4"/>
          <path class="cls-1" d="M948.9,419.4c28,.1,56,.3,84,.4"/>
          <path class="cls-1" d="M556,590.4c26,51.4,110.9,94.3,214.1,108.3"/>
          <path class="cls-1" d="M628.8,654.5c-14.5-9.9-10.2-25.2,9-32.8,16.3,9.8,11.9,26.4-9.1,33.7"/>
          <path class="cls-1" d="M628.9,655.5c.8-11,4.6-22,11.4-32.5"/>
          <path class="cls-1" d="M584.6,627.9c5.7,2.7,3.6,8.3-3.7,9.8-7.3,1.5-16.8-1.6-16.8-5.5,0-3.9,9.6-7,16.9-5.5"/>
          <path class="cls-1" d="M583,625.1c-4.4-2-3.3-6.2,2.1-7.6,5.4-1.4,12.9.6,13.7,3.5.8,3-5.4,5.8-11.3,5.2"/>
          <path class="cls-1" d="M556.1,590.5c-7.7-2.4-7.3-9,.6-11.2,7.9-2.2,19.5,1.2,19.6,5.7,0,4.5-11.4,7.9-19.4,5.8"/>
          <path class="cls-1" d="M558.8,596.5c2.8,2.8-1.7,6.7-8,6.8-6.3.1-11.5-3.5-9.2-6.4s11.2-3.8,15.6-1.5"/>
          <path class="cls-1" d="M1160.9,526.1c7.3,5.7,14.6,11.5,21.9,17.2"/>
          <path class="cls-1" d="M1182.8,543.4c7.9-1.9,18.7,1.5,18.6,5.8,0,4.3-10.8,7.7-18.7,5.8-7.9-1.9-9.2-8.2-2.3-10.9"/>
          <path class="cls-1" d="M1162.4,554.5c-7.4-1.2-16.1,2.5-14.7,6.3,1.4,3.8,12.3,5.8,18.3,3.3,6.1-2.5,4.3-8.1-3-9.5"/>
          <path class="cls-1" d="M1158,557.4c2.8.3,4.8,1.7,4.7,3.1"/>
          <path class="cls-1" d="M1190,546c2.6.7,4.3,2.2,4.5,3.6"/>
          <path class="cls-1" d="M1146.1,528.6c2.1.3,3.2,1.6,2.2,2.6"/>
          <path class="cls-1" d="M1168.1,519.4c1.7.4,2.8,1.3,2.8,2.2"/>
          <path class="cls-1" d="M1149.1,514.9c.9,3.1-3.9,6.4-10.1,6.9s-13-1.8-14.1-4.9c-1.2-3.1,3.4-6.4,9.7-7.1s13.1,1.6,14.4,4.7"/>
          <path class="cls-1" d="M1138.1,512.5c3.2.7,5.3,2.5,5.1,4.2"/>
          <path class="cls-1" d="M561.7,582.2c2.6,0,5.1.7,6.3,1.9"/>
          <path class="cls-1" d="M549,597.2c1.9-.4,4.4,0,5.5.8"/>
          <path class="cls-1" d="M573.6,630.1c2.6-.2,5.3.6,6.2,1.9"/>
          <path class="cls-1" d="M588.2,620.2c2.1,0,4.2.8,4.6,1.8"/>
          <path class="cls-1" d="M566.3,661.4c22.5-.9,45.1-.9,67.6,0"/>
          <path class="cls-1" d="M556.7,594.2c-7.1-3.3-14.2-6.5-21.3-9.8"/>
          <path class="cls-1" d="M532.9,584.7c6.6-2,8.4-7,3.6-9.9-4.8-3-15.1-3.1-20.3-.3-5.2,2.8-3.9,7.9,2.6,10,6.5,2.1,16.4.6,19.4-2.9"/>
          <path class="cls-1" d="M522.4,576.3c3.8-.2,7.8,1,9.1,2.7"/>
          <path class="cls-1" d="M697.6,660.5c3.5,7.7,4.9,15.6,4.1,23.5"/>
          <path class="cls-1" d="M753.4,671.3c8.3,8.8,13.2,18.3,14.6,28"/>
          <path class="cls-1" d="M718.8,710.7c13.9-6.4,30.9-11.1,49.2-13.7"/>
          <path class="cls-1" d="M675,675.8c-4.2-4.7-6-9.8-5.5-14.9"/>
          <path class="cls-1" d="M667.5,660.9c7.4.3,14.2-3.4,13-7.1-1.2-3.6-10.1-6.1-16.9-4.6-6.8,1.4-9.5,6.3-5.1,9.2,3.1,2.1,8.5,3,13.6,3.1"/>
          <path class="cls-1" d="M666.7,652.6c3.2-.5,6.8,1.2,6.1,2.8"/>
          <path class="cls-1" d="M685.9,680.8c-8.5-.7-17.2-.5-25.6.4"/>
          <path class="cls-1" d="M659.1,681.2c2.2,3.3-1.7,7.3-8.3,8.5-6.6,1.2-14.8-.5-17.6-3.7-2.8-3.2.3-7.3,6.6-8.9s14.8-.2,18.2,2.9"/>
          <path class="cls-1" d="M641.1,682.1c2.8-1.9,9.1-2.3,12.8-.8"/>
          <path class="cls-1" d="M685.9,681.2c2.7.5,5.5.9,8.2,1.4"/>
          <path class="cls-1" d="M1057.6,459.7c15.8-.8,31.6-1.6,47.4-2.5"/>
          <path class="cls-1" d="M1105,457.9c-5-5.8-5.6-12.5-1.8-18.6"/>
          <path class="cls-1" d="M1100.8,440c5.7,1.4,13.4,0,15.8-3,2.4-2.9-1.1-6.6-7.1-7.6-6-1-13.3,1-14.8,4-1.6,3.2,4.1,6.9,10.6,6.4"/>
          <path class="cls-1" d="M1103.7,458.2c2.2-3.2,5.5-6.2,9.7-8.9"/>
          <path class="cls-1" d="M1112.5,448.5c-1.8-2.9,1.6-6.4,7.3-7.4,5.7-1.1,12.9.4,15.5,3.1,2.5,2.8,0,6.4-5.4,7.8-5.4,1.4-12.9.4-16.1-2.2"/>
          <path class="cls-1" d="M1103.2,432.5c1.9-.4,4.4,0,5.3,1"/>
          <path class="cls-1" d="M1123.4,444.7c2.1,0,4,.8,4.5,1.8"/>
          <path class="cls-1" d="M1147.1,501.7c-5.4-3.6-13.2-6.4-22-7.7"/>
          <path class="cls-1" d="M1123.5,495c4.3-3.1,1.8-7.9-5-9.6-6.7-1.7-16.1.2-18.5,3.8-2.4,3.5,2.6,7.9,10,8.6s15.4-2.3,15.9-6"/>
          <path class="cls-1" d="M1108.7,488.2c3.4-.2,7,.5,9,1.9"/>
        </g>
      </g>
    </g>
  </g>
</svg>