<?xml version="1.0" encoding="UTF-8"?>
<svg xmlns="http://www.w3.org/2000/svg" version="1.1" viewBox="0 0 1920 1080">
  <defs>
    <style>
      .cls-1 {
        fill: #fff;
        stroke: #fff;
        stroke-miterlimit: 10;
      }
    </style>
  </defs>
  <!-- Generator: Adobe Illustrator 28.6.0, SVG Export Plug-In . SVG Version: 1.2.0 Build 709)  -->
  <g>
    <g id="Capa_1">
      <path class="cls-1" d="M1910.1,631.5c-79.6-34.7-163.8-56.6-253.7-61.7,2.6-23.7,3.5-47,3.5-68.7,0-2-.8-3.5-2-4.8.7-3.8-1.2-7.9-7-9.2-427.1-97.6-905.1-121.5-1337.1-29-3.2.7-4.7,2.4-5.2,4.3-.9.7-1.6,1.5-1.9,2.6-6.7,25.1-9.9,50.5-10.3,75.9-105.2,14.1-201.5,47.9-286.5,100.9-7.2,4.5-6.3,12.7,2.5,15.4,63,19.3,126,38.6,189,57.9-37.4,64.7-78.5,127.7-123.7,189.1-5.3,7.2,5.3,15.9,14.1,11.5,129.2-64.8,268.1-107.2,414.8-135.5,5.3,0,10.3-.6,14.6-1.7,2-.5,3.7-1.2,5.3-2,.8-.2,1.6-.3,2.5-.5,4.3-.8,5.6-3.5,5-6.1,10.8-15.9-1.9-46.8-6.1-63.2,1.7-.3,3.4-.6,5-.8,53.8-9.8,108.5-16.1,163.3-20.4,97.7-7.7,196.1-9,294.2-9.3,146.6-.6,294.1,4.1,436.2,31.5-6.3,18.5-19.2,56.8-.9,70.3-4.5,2.1-4.8,9.1,1.3,9.8,125.1,13.8,243.9,39.3,358,84.2,4.7,1.9,9.2.6,12.1-1.8,6.4,2.1,16.1-2.2,14.4-9.7-10.3-46.2-29-89.8-59.5-129.7-11.2-14.7-17.5-13.9-7.1-27.9,9.1-12.3,31.7-17.1,47.1-22.8,37.5-13.8,76.3-24.3,116-33.1,8.3-1.8,10.3-11.9,2.5-15.3ZM371.9,762.2c26.7,6.3,54.4,9.6,81.9,12.6.7,0,1.6.2,2.3.3-119.9,21.2-234.3,59.6-340.8,109.7,39.4-55.3,75.8-111.8,108.9-169.9,3-5.2.5-10.4-6.1-12.4-60.5-18.5-121-37.1-181.5-55.6,78-45.7,165-75.5,259.8-88.8,1,27.5,5.2,54.9,12.4,82,7.6,28.3,24.5,94.4,59.6,113.9-2,2.7-1,7.3,3.5,8.3ZM389.7,748.6c15.2-23.2,76.3-32.4,118.4-38.7,2.5,11.7,6.5,24,6.8,35.7.3,9.3.1,14.4-9.1,17.2-6.1,1.9-23.1-1.1-28.9-1.5-29.4-1.7-58.4-5.2-87.6-8.1.5-1,.8-2.1.6-3.4,0-.4-.1-.9-.2-1.4ZM927.9,659.8c-106.3,1.2-213,4.4-318.2,17.6-58.7,7.3-117,17.6-173.4,33-23.3,6.4-48,10.7-57.5,29.1-34.9-22.6-47.4-89.6-54.2-120.8-10.8-49.7-8.7-98.8-3.5-148.8,220.6-31.8,438.6-54.4,663.2-49.2,221.7,5.2,441.3,33,654.9,81.4,0,42.4-4.7,84.4-16.4,125.8-10.1,35.8-29.1,69.5-39.2,105-1.1-1.5-2.7-2.9-5.1-3.7-206.7-68.5-430.7-72-650.5-69.4ZM1438.3,755.4c-3.5-13.3,2.8-30.2,7.4-43.7,39,8.2,77.6,18.1,115.6,30.2-28.2,6.6-56.4,12.6-85.1,17.6-6.8,1.2-13.7,2.8-20.6,3.5-15.6,1.7-14.6,2.8-17.4-7.7ZM1781.4,665.5c-14.5,5.4-65.5,17.5-69.6,35.2-3.8,16.7,18.6,32.5,27.6,45,24.7,34.2,40.3,71,49.9,109.6-101.5-40.3-210.1-67.5-322.3-75.8,11-2.5,21.7-5.7,29.8-7.5,27.1-6,53.7-13.6,79.7-22.2,2.9-.9,4.3-2.9,4.5-4.9,1.8-1,3.1-2.6,3.7-4.4,1.9.8,4.5.5,6.1-1.3,38.8-42.7,56.5-100.5,64-157.1,77.9,9.5,151.5,26.4,222.1,54.5-32.5,8-64.5,17.4-95.5,28.9Z"/>
    </g>
  </g>
</svg>