<?xml version="1.0" encoding="UTF-8"?>
<svg xmlns="http://www.w3.org/2000/svg" version="1.1" viewBox="0 0 1920 1080">
  <defs>
    <style>
      .cls-1 {
        fill: none;
        stroke: #fff;
        stroke-linecap: round;
        stroke-miterlimit: 10;
        stroke-width: 1.1px;
      }
    </style>
  </defs>
  <!-- Generator: Adobe Illustrator 28.6.0, SVG Export Plug-In . SVG Version: 1.2.0 Build 709)  -->
  <g>
    <g id="Capa_1">
      <g>
        <g>
          <path class="cls-1" d="M949.6,581.8c-36.4-24.6-95.6-32.5-150-29.8-54.3,2.7-106.2,14.5-158.7,23.3-123,20.6-284.8,26-383.3,10.4"/>
          <path class="cls-1" d="M71.4,531c19.3,21.3,48.6,44.7,82.9,57.3,34.3,12.6,86.2,10.9,106.9-9.9,18.3-18.4,5-42.7-16.2-59.9-21.2-17.2-43.7-28.2-62.1-43.7"/>
          <path class="cls-1" d="M363.3,594.6c-36.8,1.7-71.1,16.9-84.8,37.7-4.5,6.8-6,15.9,3.7,20.4,8,3.7,19.6,2.2,28.8-.4,33.8-9.7,56-32.5,53.6-55.1"/>
          <path class="cls-1" d="M288,653.8c21-22.1,48-42,79.5-58.9"/>
          <path class="cls-1" d="M462.2,588.2c4.8-22.2-12.8-45.7-43.6-58.1-10.1-4.1-24.5-6.8-33.7-2-7.6,4-7.5,11.2-5.1,17.2,8.7,22,41.1,39.9,78,43.1"/>
          <path class="cls-1" d="M382,531.4c31.3,17,58,37.1,78.8,59.2"/>
          <path class="cls-1" d="M616.8,582.2c-34.9,7.3-61.7,27.3-66.3,49.5-1.5,7.3.8,16.3,12,19.2,9.3,2.4,19.9-.9,27.7-4.8,28.6-14.5,40.6-40.1,28.9-61.6"/>
          <path class="cls-1" d="M568.6,651.1c11.2-24.6,29-48,52.4-69.2"/>
          <path class="cls-1" d="M709.8,560.8c-4.6-22.2-31.4-42.2-66.4-49.5-11.5-2.4-26.5-2.8-33.4,3.3-5.7,5.1-2.6,12,2.2,17.4,17.6,20,56.3,32.3,93.4,29.7"/>
          <path class="cls-1" d="M608.6,518.2c37.3,11.6,71.5,27,100.9,45.2"/>
          <path class="cls-1" d="M139.6,494.4c-6.2,5.6-24.8,15.2-35.6,17.4-3.6.7-6.9,3-10.3,1.9-2.3-.7-3.5-2.4-3.5-4s1-3.1,2.1-4.5c7.4-9.4,22.6-14.8,36.5-20.9,11-4.9,27.2-3.7,34.1,3.4,8.7,8.9-3.8,17.8-15.6,23.8-12.1,6.1-24.7,11.7-37.9,16.8-11.5,4.5-26,8.8-38.1,2.7-8.6-4.3-11.2-11.7-7.7-18.2,13.2-24.8,51.5-43,93.3-46.7,10.8-1,21.7,2.6,26.1,8.7,5.7,8-12.3,21.5-26.3,31.2"/>
        </g>
        <g>
          <path class="cls-1" d="M955.4,581.8c36.4-24.6,95.6-32.5,150-29.8,54.3,2.7,106.1,14.5,158.7,23.3,123,20.6,284.8,26,383.3,10.4"/>
          <path class="cls-1" d="M1833.7,531c-19.3,21.3-48.6,44.7-82.9,57.3-34.3,12.6-86.2,10.9-106.9-9.9-18.3-18.4-5-42.7,16.2-59.9,21.2-17.2,43.7-28.2,62.1-43.7"/>
          <path class="cls-1" d="M1541.7,594.6c36.8,1.7,71.1,16.9,84.8,37.7,4.5,6.8,6,15.9-3.7,20.4-8,3.7-19.6,2.2-28.8-.4-33.8-9.7-56-32.5-53.6-55.1"/>
          <path class="cls-1" d="M1617,653.8c-21-22.1-48-42-79.5-58.9"/>
          <path class="cls-1" d="M1442.8,588.2c-4.8-22.2,12.8-45.7,43.6-58.1,10.1-4.1,24.5-6.8,33.7-2,7.6,4,7.5,11.2,5.1,17.2-8.7,22-41.1,39.9-78,43.1"/>
          <path class="cls-1" d="M1523,531.4c-31.3,17-58,37.1-78.8,59.2"/>
          <path class="cls-1" d="M1288.2,582.2c34.9,7.3,61.7,27.3,66.3,49.5,1.5,7.3-.8,16.3-12,19.2-9.3,2.4-19.9-.9-27.7-4.8-28.6-14.5-40.6-40.1-28.9-61.6"/>
          <path class="cls-1" d="M1336.4,651.1c-11.2-24.6-29-48-52.4-69.2"/>
          <path class="cls-1" d="M1195.2,560.8c4.7-22.2,31.4-42.2,66.4-49.5,11.5-2.4,26.5-2.8,33.4,3.3,5.7,5.1,2.6,12-2.2,17.4-17.6,20-56.3,32.3-93.4,29.7"/>
          <path class="cls-1" d="M1296.4,518.2c-37.3,11.6-71.5,27-100.9,45.2"/>
          <path class="cls-1" d="M1767.5,496.3c13,5.5,30.8,13.9,33.6,15.5,2.7,1.6,6.9,3,10.3,1.9,2.3-.7,3.5-2.4,3.5-4,0-1.6-1-3.1-2.1-4.5-7.4-9.5-13.3-15.3-36.8-21-12.4-3.1-27-3.5-33.8,3.5-8.7,8.9,3.8,17.8,15.6,23.8,12.1,6.1,24.7,11.7,37.9,16.8,11.5,4.5,26,8.8,38.1,2.7,8.6-4.3,11.2-11.7,7.7-18.2-13.2-24.8-51.5-43-93.4-46.7-10.8-1-21.6,2.6-25.9,8.7-5.7,8,12.3,18.6,25.7,30.8"/>
        </g>
      </g>
    </g>
  </g>
</svg>