<?xml version="1.0" encoding="UTF-8"?>
<svg xmlns="http://www.w3.org/2000/svg" version="1.1" viewBox="0 0 1920 1080">
  <defs>
    <style>
      .cls-1 {
        fill: none;
        stroke: #e9e600;
        stroke-linecap: round;
        stroke-miterlimit: 10;
      }
    </style>
  </defs>
  <!-- Generator: Adobe Illustrator 28.6.0, SVG Export Plug-In . SVG Version: 1.2.0 Build 709)  -->
  <g>
    <g id="Capa_1">
      <g>
        <g>
          <path class="cls-1" d="M954.7,900.3c-22.5,13.1-48.2,23.2-76.9,29.6-132.5,29.8-273.7-32-315.3-138.1-41-105,30.7-213.7,160.7-244.8,1.2-.5,2.7-.8,4.1-1.1,80.8-18.1,164.4-2.3,227.1,36.8,14,8.7,27.2,18.7,38.7,29.8,21.6,20.4,38.7,44.5,49.2,71.5,26.4,67.7,6,137.1-46.6,186.1"/>
          <path class="cls-1" d="M913.5,870c-15.7,8.1-33,14.5-51.9,18.7-104.1,23.4-214.7-25.3-247.5-108.4-32.6-83.3,25.3-169.7,129.4-193.1,60.8-13.7,123.8-2.8,172.5,25.3,14.2,8.3,27.4,18.1,38.7,29.3,15.9,15.6,28.4,33.7,36.3,53.8,20.8,53,4.7,107.3-36.3,145.9"/>
          <path class="cls-1" d="M714.6,473.1c-11.1-10-7.6-26.7,5.9-34.9,13.5-8.2,34-7.9,48.5-.9,14.5,7.1,23.2,19.9,25,32.9,1.7,13-2.8,26.2-10.4,37.9-7.5,11.8-18,22.3-28.5,32.7"/>
          <path class="cls-1" d="M710.2,474.1c2.1-13-12.9-25.5-30.1-26.8-17.2-1.3-34.2,7.4-41.3,19.3-7.1,11.9-5.2,26.2,2.8,37.9,7.9,11.6,21.2,20.7,36,27.5,14.8,6.7,31.1,11.3,47.4,15.6"/>
        </g>
        <g>
          <path class="cls-1" d="M954.7,649.4c-11.3-11.2-24.5-21.1-38.7-29.3-21.8,20.6-38.9,44.9-49.5,72.1-26.2,67.6-5.8,136.7,47,185.5,12,11.4,25.8,21.5,41.2,30.3,22.7,13.3,48.6,23.4,77.3,29.8,132.5,29.5,273.4-32.6,314.7-138.7,41.2-106.1-33-216.1-165.5-245.6-1.4-.3-2.7-.6-4.1-.8h-.2c-79.3-16.5-160.9-.5-222.3,37.8,14,8.7,27.2,18.7,38.7,29.8"/>
          <path class="cls-1" d="M954.7,641.8c-16.1,15.6-28.8,34-36.7,54.3-20.6,52.9-4.5,107,36.7,145.4,11.7,11.1,25.6,20.7,41.2,28.7,15.7,8.1,33.2,14.5,52.1,18.7,104.1,23.1,214.7-25.6,247.1-108.9,32.4-83.3-26-169.7-130-192.8-60.6-13.6-123.4-2.7-171.9,25.4"/>
          <path class="cls-1" d="M1222.7,479.4c-2.2-13,12.8-25.6,30-26.9,17.2-1.3,34.2,7.3,41.4,19.2,7.2,11.9,5.2,26.2-2.6,37.9-7.9,11.6-21.2,20.8-35.9,27.6-14.8,6.8-31.1,11.4-47.4,15.7"/>
          <path class="cls-1" d="M1218.3,478.5c11.1-10,7.5-26.8-6-34.9-13.5-8.2-34-7.9-48.5-.8-14.5,7.1-23.2,19.9-24.9,32.9-1.7,13,2.9,26.2,10.5,37.9,7.6,11.7,18,22.3,28.6,32.6"/>
        </g>
      </g>
    </g>
  </g>
</svg>