<?xml version="1.0" encoding="UTF-8"?>
<svg xmlns="http://www.w3.org/2000/svg" version="1.1" viewBox="0 0 792 612">
  <defs>
    <style>
      .cls-1 {
        fill: #56586b;
      }
    </style>
  </defs>
  <!-- Generator: Adobe Illustrator 28.7.2, SVG Export Plug-In . SVG Version: 1.2.0 Build 154)  -->
  <g>
    <g id="Capa_1">
      <g>
        <path class="cls-1" d="M655.3,273.5c-12.7-30.2-42.6-56.3-81.1-62.7-10.2-1.7-20.5-2.2-30.9-1.9-.6.4-1.3.7-2.1.9-.8.1-1.6.3-2.4.5,0,0-.1,0-.2,0-.3.1-.6.2-.9.4-.7.3-1.4.7-2.1,1.1-.2.2-.5.4-.7.5-1.1.8-2.2,1.8-3.2,2.7,18.9-2.1,38.1-.6,56,5.9,32.4,11.8,55.8,37.4,63.9,65.8,4.7,16.3,4.6,33.7-.2,49.9-4.9,16.7-14.9,31.4-27.3,45-3,3.3,3.8,6.5,6.7,3.2,3.1-3.6,5.9-7.3,8.5-11.1,19.9-29.8,29.8-67.4,15.9-100.4"/>
        <path class="cls-1" d="M523.6,229.6c14.4-4.5,31.9-3.2,46.3.5,15.1,3.9,29.2,11.2,39.8,20.9,22.3,20.5,30.4,50.1,23,76.9-4.3,15.7-12.4,31.3-23.2,44.7-2.5,3.1-8.6,0-6-2.8,9.9-11,17.9-23,21.6-36.5,3.6-12.9,4.6-26.6,1.8-39.7-5.4-24.7-23.4-47.9-51.6-57.9-7.9-2.8-16.5-4.7-25.1-5.1-8.7-.4-17.1.7-25.6,2.2-2.6.4-3.4-2.5-1-3.2"/>
        <path class="cls-1" d="M578.9,232.9c-.7-.3-19.1-4.8-19.8-5,24.9,3.1,47.7,13.1,60.1,24.3,24.7,22.3,33.6,55.3,24.2,84.5-5.4,16.6-15.5,32.4-29.6,44.8-2.8,2.5-7.4-1.4-4.5-3.8,12.7-10.3,22.3-22.9,27.1-37.2,4.6-13.6,5.5-28.3,2.1-42.2-6.7-28.1-28.5-53.2-59.6-65.4"/>
        <path class="cls-1" d="M497.4,390.4c-15.3-7.6-25.1-20.7-31.1-34.4-1.4-3.3-2.6-6.6-3.7-10,0,.4-.2.8-.3,1.1-.8,2.7-1.7,5.4-2.9,8.1,6.2,16.1,17.1,30.7,34.8,39.7,3.4,1.7,6.5-2.8,3.1-4.5"/>
        <path class="cls-1" d="M544,227.9c-18.7-.4-36.6,4.7-51.4,14.2-19,12.1-30.7,29.6-36.2,48.5,2,3.2,3.2,6.7,3.8,10.3,1.9-9.4,5.3-18.6,10.4-27,14-22.8,42.1-41.4,73.3-43.6,1.8-.1,1.8-2.3,0-2.4"/>
        <path class="cls-1" d="M488.1,396.3c-14.2-7.8-25.8-18.5-34.1-30.7-.4.6-.9,1.3-1.4,1.9-.5,1.7-1,3.5-1.5,5.2,0,.2-.1.3-.2.5,8.8,11.2,20.3,20.9,33.8,28.2,3.8,2.1,7.2-3,3.5-5.1"/>
        <path class="cls-1" d="M437.7,345.3c.2-.6.4-1.2.6-1.9,1-5.4,1-11,1.6-16.4,0-.4-.1-.9-.2-1.4-.2-1.2-.3-2.4-.4-3.6-.1-1.4-.2-1.7-.5-3.1-.6-2.7-1.4-5.3-2.4-8-.8-2.1-1.6-4.3-2.4-6.4-3.1,14.4-2.3,29.3,2.7,43.5.3-.9.7-1.8,1-2.8"/>
        <path class="cls-1" d="M551.8,227.4c-9.1-1.5-19.3-.3-28.3,1.2-9.6,1.6-19,4.3-27.8,7.9-17.5,7.2-33.3,18.4-44.3,31.9-1.5,1.8-2.8,3.7-4.1,5.6,1.4,1.9,2.6,3.9,3.7,5.8,8.8-15,22.3-28.1,39.7-36.8,8.9-4.5,18.6-7.9,28.6-10.2,4.9-1.1,9.9-2,15-2.6,5.7-.7,11.5-.6,17.2-1.2,1.1-.1,1.5-1.5.3-1.7"/>
        <path class="cls-1" d="M433,357.1c-9.9-16.4-14-35.7-11.4-53.7.9-6.5,2.6-12.9,5-19.1-1.6-2.4-3.3-4.7-5.1-6.9-11.6,25.4-11.8,54.3,1.7,79.6,1.6,3,3.4,5.8,5.4,8.6,1.2-2.9,2.7-5.7,4.5-8.4"/>
        <path class="cls-1" d="M485.7,395.3c-14.5-3.4-26.5-10-36.3-18.6-.8,1.8-1.6,3.5-2.6,5.2-.3.5-.6,1-.9,1.5,10.7,8.3,23.5,14.6,37.9,17.9,4.6,1.1,6.5-4.9,1.9-6"/>
        <path class="cls-1" d="M575.1,214.7c-5.9-1.6-11.5-3.4-17.7-4.3-5.8-.9-11.6-1.4-17.4-1.6-12.1-.3-24.2,1.2-35.7,4.1-22.5,5.6-43.3,16.7-58.9,31.4-4.6,4.3-8.7,9-12.4,13.9,0,0,0,0,0,0,1.7,1.6,3.3,3.2,4.9,4.9,2.4-3.5,5-7,8-10.2,13.5-14.9,32.2-25.7,53.3-31.6,11.9-3.3,24.3-5.2,36.8-5.9,6.3-.4,12.7-.4,19,0,6.4.4,13.1.8,19.3,2.1,2.1.5,2.9-2.1.9-2.7"/>
        <path class="cls-1" d="M462.9,294.5c-11.6-30.5-40.5-57.4-78.8-64.7-3.4-.6-6.8-1.1-10.2-1.5-.2.2-.4.4-.6.5-.4.4-.9.8-1.3,1.2-1.1.9-2.1,1.7-3.3,2.6-.3.2-.7.5-1,.7,10.1,1.1,20.1,3.4,29.6,7.1,31.9,12.7,54.4,38.8,61.5,67.4,4.1,16.4,3.3,33.8-2,49.9-5.5,16.6-16,31.1-28.9,44.3-3.1,3.2,3.5,6.6,6.6,3.3,3.2-3.5,6.2-7.1,8.9-10.9,20.9-29.3,32.2-66.6,19.6-99.9"/>
        <path class="cls-1" d="M332.8,247.2c14.5-4.1,32-2.3,46.3,1.7,14.9,4.2,28.8,11.9,39,21.9,21.5,21.1,28.5,50.8,20.1,77.5-4.9,15.6-13.6,31-24.8,44.1-2.6,3-8.6-.2-5.9-3,10.3-10.7,18.7-22.6,23-35.9,4.1-12.8,5.6-26.5,3.2-39.7-4.5-24.8-21.6-48.5-49.5-59.2-7.8-3-16.3-5.1-24.9-5.7-8.7-.7-17.1.3-25.6,1.5-2.6.4-3.3-2.6-.9-3.3"/>
        <path class="cls-1" d="M388,252c-.7-.3-18.9-5.3-19.6-5.6,24.8,3.7,47.2,14.3,59.2,25.9,23.8,22.9,31.6,56.1,21.1,85.1-6,16.4-16.7,31.9-31.3,44.1-2.9,2.4-7.3-1.6-4.3-3.9,13.1-9.9,23.1-22.3,28.4-36.5,5.1-13.5,6.5-28.2,3.7-42.1-5.7-28.2-26.5-53.9-57.2-66.9"/>
        <path class="cls-1" d="M301.3,258.9c15.2-9.1,33.2-13.7,51.9-12.9,1.9,0,1.7,2.3,0,2.4-31.2,1.4-60.1,19.2-74.9,41.7-16.1,24.5-17.7,55.7-7.3,82,5.5,13.9,14.8,27.1,29.8,35.2,3.4,1.8.1,6.3-3.2,4.4-29.4-16-39-47.5-39-75.3,0-29.4,13.3-60,42.7-77.6"/>
        <path class="cls-1" d="M361.1,245.8c-9-1.7-19.3-.8-28.3.5-9.7,1.4-19.1,3.8-28,7.2-17.8,6.8-34,17.5-45.4,30.8-23.3,26.9-27.8,62.4-12.1,92.8,8.5,16.4,22.8,30.7,40.4,40.9,3.7,2.2,7.3-2.8,3.6-5-29.2-17.2-47-46.8-45.8-76.6,1.2-31,21.5-61.1,54.1-76.3,9.1-4.3,18.9-7.4,29-9.5,5-1,10-1.8,15-2.2,5.7-.5,11.5-.3,17.2-.7,1.1,0,1.6-1.5.3-1.7"/>
        <path class="cls-1" d="M346.6,230c-.7-.7-1.5-1.3-2.3-1.9-.2-.1-.2-.2,0,0-.2-.1-.4-.3-.7-.4-.1,0-1.4-.7-.8-.5-.4-.1-.7-.3-.9-.5-9.3.1-18.7,1.3-27.7,3.3-22.7,5.1-43.9,15.6-60.1,29.9-33.5,29.4-44.9,74.2-26.3,112,10.7,21.7,32.1,38.9,59.1,46,4.6,1.2,6.7-4.7,2.1-6-46-12.2-67.4-56-60.8-93.6,3.2-18.1,12.4-35.6,26.2-49.8,14-14.5,33.1-24.9,54.4-30.2,12.1-3,24.4-4.5,37-5,1.5,0,3,0,4.4,0-1.2-1.1-2.4-2.1-3.6-3.2"/>
        <path class="cls-1" d="M384.9,233.6c-4.3-1.3-8.5-2.7-12.8-3.8,0,0,0,0,0,0-1.1.9-2.2,1.7-3.3,2.6-.6.5-1.3.9-2,1.4,5.7.5,11.7,1.1,17.2,2.4,2.1.5,2.9-2.1.9-2.7"/>
        <path class="cls-1" d="M386.4,218.5s0,0,0,0c0-.3-.2-.5-.4-.8h0c-.2-.2-.4-.4-.6-.6l-.2-.2c-.5-.5-1-.9-1.5-1.4-1-.9-2-1.8-3-2.6-2.4-2-4.7-3.6-6.9-4.8-.3-.1-.5-.2-.8-.2-.3-.1-.6-.2-.9-.2-2.9-.2-6-.2-8.9-.3-1.9,0-3.7,0-5.6-.1h-2.5c-3.9-.2-7.9-.4-11.9-.5-.6,0-1,.2-1.3.4-.3.2-.6.4-.6.7,0,0-.2.1-.3.2,0,0-.1,0-.2.1-.2.2-.5.3-.7.5-.5.3-1,.6-1.5.9l-3.1,1.8c-2,1.2-3.9,2.4-5.8,3.6l-.3.2c-.4.3-.6.6-.7,1.1,0,0,0,.2,0,.2-.4.5-.5,1.2,0,1.7,3.5,4.1,7.6,8,12.6,12,4.5,3.6,9.4,6.8,14.2,9.8l.5.3c.2.1.5.2.7.2.1,0,.2.2.4.2.2,0,.5.1.7.1.6,0,1.1-.1,1.6-.5,4.5-3.2,8.9-6.5,13.3-9.7,1.9-1.4,3.8-2.7,5.7-4.1l4.7-3.3c.4-.3.8-.6,1.3-.9.2-.1.4-.2.6-.3.5-.2,1-.5,1.4-.9.8-.8.6-1.9,0-2.6M355,230.9c-.4-.7-.7-1.4-1.1-2.1-.2-.3-.3-.6-.5-.9,0,0,0-.1-.1-.2,2.9.3,5.8.5,8.6.7h.2s-2.4,3.4-2.4,3.4c-.5.7-1,1.4-1.5,2.1l-.6.8c-.1.2-.2.4-.4.5l-2.3-4.5ZM343,218.4l.4-3.1c.2-1.3.4-2.6.6-3.9l3.3,2.4c.9.7,1.9,1.4,2.8,2l.6.5s0,0,0,0c-.3.1-.6.3-.9.4l-7,3.1c0-.2,0-.5,0-.7,0-.2,0-.5,0-.7M367.3,224.2c0-.1,0-.3,0-.4v-.8c-.2-.6-.3-1.1-.4-1.7-.1-.6-.2-1.1-.3-1.7v-.4c1.6,1,3.4,2,5.1,2.9.2,0,.3.2.5.3l-4.7,1.9ZM348.9,223.9c-.2,0-.4-.1-.6-.2-.8-.3-1.7-.6-2.5-.9-.5-.2-1.1-.5-1.7-.7l7.1-3.1c.1,0,.2-.1.4-.2,0,0,0,0,0,.1l-1.7,4.6c0,.2-.1.4-.2.6-.2,0-.5-.2-.8-.3M359.3,218.5c0,0,.2,0,.2,0h.2c.8,0,1.6,0,2.5,0h.3c0,.2,0,.3,0,.5l.3,2.6c0,.6.2,1.2.3,1.8v.7c.1.2.2.4.2.6,0,.3,0,.6.1.9h-1.4c-2.9-.3-6-.5-9-.7,0-.2.1-.4.2-.6l1.7-4.9c.1-.3.2-.7.3-1v-.2c1.5.1,2.8.2,4.1.2M373.3,219.6c-1.9-1-3.9-2-5.9-2.9l2.5-2.3c.7-.6,1.3-1.2,2-1.9.6,2.4,1.1,4.8,1.6,7.2,0,0-.1,0-.2-.1M377.2,220.2c-.7-2.3-1.3-4.6-1.9-6.9.8.6,1.6,1.3,2.4,1.9.9.8,1.9,1.7,2.7,2.6.2.2.5.5.7.7-1.4.5-2.7,1.1-3.9,1.5M367.4,212.3l-3.2,2.6c-.2.1-.3.3-.5.4-.3,0-.6,0-.8,0-1,0-1.9,0-2.9,0h-.5c-1.4,0-2.9,0-4.5.1-.6-.5-1.2-1-1.9-1.4l-.6-.4c-1-.7-1.9-1.3-2.9-2l-2.6-1.8c2.6.1,5.3.3,7.9.4h2.6c1.9.2,3.7.3,5.6.4,2,.1,4.1.2,6.1.3-.6.5-1.1,1-1.7,1.4M340.2,214.9l-.6,2.9c0,.2-.1.5-.2.8-.1.4-.2.8-.3,1.3-2-1-3.9-2-5.8-3.1,1.5-1.1,3-2.2,4.5-3.3l2.7-2.1c.2-.2.4-.3.6-.4-.3,1.3-.5,2.7-.8,4M340,223.3c1.5.7,3.1,1.4,4.8,2.1.3.1.7.3,1,.4,1,.4,2.1.8,3.2,1.1.2.2.4.3.7.4.2.6.5,1.1.8,1.7.1.3.3.6.4.9.4.7.7,1.5,1.1,2.2l1.3,2.6c-5.4-3.2-10.6-7.4-15.8-12.6.8.4,1.7.9,2.5,1.3M363.9,232.2l2.3-3.7c.1,0,.3-.2.4-.3,0,0,0-.2.1-.3.5-.1.9-.3,1.4-.5l7.3-3.2c0,0,.1,0,.2,0-1.8,1.3-3.6,2.5-5.4,3.8-2.1,1.4-4.2,2.9-6.2,4.3"/>
        <path class="cls-1" d="M305.2,145.8c-14,16.7-27.6,33.6-42.1,49.9-14.5,16.2-29,32.4-43.6,48.5-29.6,32.7-59.6,65.2-89.8,97.5-8.4,8.9-16.7,17.9-25.3,26.8-8.7,9-17.9,17.6-26.6,26.4-4.9,5,3.8,10.6,8.4,5.4,7.2-8.2,14-16.6,21.2-24.8,7.2-8.2,14.7-16.3,22.1-24.4,14.6-16.1,29.3-32.2,44-48.3,29.7-32.7,59.6-65.2,89.4-97.8,16.6-18.2,34-35.8,51.1-53.7,4.9-5.2-4.1-11.1-8.7-5.5"/>
        <path class="cls-1" d="M608.8,78.4c-19.3,4.4-38.6,9-57.9,13.4-19.3,4.3-38.8,8.5-58.2,12.5-38.8,8.2-77.7,16.3-116.6,24.3-22.2,4.5-44.3,9.1-66.4,13.9-6.3,1.4-3.8,9.5,2.6,8.2,38.9-8,77.5-16.9,116.3-25.4,38.8-8.5,77.6-16.8,116.4-24.9,22.2-4.6,44.5-8.6,66.7-13.1,7-1.4,4.1-10.6-2.8-9"/>
        <path class="cls-1" d="M613,78c-4.5.4-8.3,3.8-7.9,7.4-31.1,44.4-63.1,88.4-96.5,131.6,1.7-.6,3.5-1.2,5.2-1.8,1.4-.5,2.9-.2,4.1.3,20.1-25.3,40.3-50.7,59.7-76.5,12.8-16.9,25.7-33.9,38.3-50.9.2-.3.3-.6.5-.9,1.4-1.2,2.3-2.8,2.1-4.7-.3-2.3-2.3-4.9-5.5-4.6"/>
        <path class="cls-1" d="M228.2,361.4c-23.3,5.6-46.6,11.1-70.1,16.2-12.9,2.8-25.7,5.6-38.5,8.4-13,2.9-26.3,5.4-39,9.3-5.9,1.8-3.8,9.1,2.5,7.9,11.6-2.1,22.9-5.4,34.2-8.4,11.3-3,22.7-6,34-9,22.6-6.1,45.4-11.9,68.2-17.6,3.6-.9,7.3-1.7,10.9-2.6-.8-1.4-1.5-2.8-2.2-4.3"/>
        <path class="cls-1" d="M417.8,313.4c-18.4,4.7-36.7,9.6-55.1,14.3-22.7,5.9-45.5,11.6-68.2,17.3-10.5,2.6-21,5.2-31.6,7.8.7,1.5,1.3,3,1.9,4.6,30.3-7.3,60.7-14.4,91.1-21.3,20.8-4.7,41.8-9.2,62.6-14.1-.4-2.9-.6-5.8-.7-8.6"/>
        <path class="cls-1" d="M82.3,397.4c-1.4-5-6.8-9.8-10.2-14-3.4-4.3-6.8-8.6-10.1-13-6.6-8.9-12.7-18-18.2-27.4-5.3-9.2-10.1-19.2-10.4-29.5-.3-9.6,1.1-18.9,5-27.9,1-2.4-3.3-4.4-5.3-2.5-17.6,17-7.3,41.5,2.8,59.3,5.8,10.3,11.9,20.5,18.2,30.5,3.1,4.9,6.2,9.8,9.5,14.6,3.3,4.9,6.4,11,11.9,14.4,3.4,2.1,7.6-1.4,6.8-4.3"/>
        <path class="cls-1" d="M311.5,143.2c-21.1-37.2-76.6-57.3-122.8-41.1-6.3,2.2-12.3,5-17.7,8.5-5.6,3.6-9.5,8.6-14.4,12.8-.3.3.2.7.5.4,4.6-3.7,10-5.4,15.5-7.8,5-2.2,10.1-4.2,15.4-5.8,10.8-3.2,21.8-5.3,33.3-5.4,21.7-.4,43,6.5,59.2,18.6,9.1,6.8,16.2,15.2,21.3,24.4,3,5.4,12.7.8,9.7-4.6"/>
        <path class="cls-1" d="M216.6,100.5c-9-3-19.3-1.4-28.1,1.5-9.4,3-17.9,7.7-25.3,13.4-7.6,5.8-14,12.5-20.3,19.3-6.8,7.2-13.4,14.5-19.9,21.9-12.6,14.5-24,29.7-35.8,44.7-6,7.7-12,15.4-18,23-6,7.7-12.3,15.2-18.4,22.9-6.5,8.2-12.8,16.6-17.4,25.6-4.4,8.5-7.7,17.8-5.3,27.2.5,2,3.9,1.8,4.6,0,2.8-7.8,5.6-15.5,9.7-22.9,4.2-7.6,9.2-14.8,14-22.1,4.8-7.4,9.3-15,14.5-22.2,5.4-7.5,11.1-15,16.9-22.3,11.4-14.5,24.1-28.1,36.5-41.9,12.3-13.8,24.5-27.9,38.1-40.7,7-6.6,14.6-12.9,23.7-17.4,9.5-4.7,19.7-6.2,30.5-7.5,1.6-.2,1.2-2,0-2.4"/>
        <path class="cls-1" d="M618.7,80.3c-3.8-20.6-26.1-34.8-49.1-39.7-14.8-3.1-30.2-3.3-45.4-2.2-15.6,1.1-31.2,2.9-46.7,4.9-32.1,4-63.8,10.4-95.4,16.6-31.4,6.2-62.8,12.9-94,19.8-35.1,7.8-70.9,14.4-105.3,24.3-3.6,1-2.3,5.5,1.5,4.8,30.7-5.6,60.7-13.7,90.9-20.8,30.2-7.2,60.8-13.4,91.3-19.3,30.4-5.9,60.9-10.9,91.6-15.6,15.4-2.3,30.8-4.7,46.2-6.9,15-2.2,30.1-3.8,45.4-2.7,26.4,1.9,54.4,15.3,58.6,39,.4,2.4,4,3.8,6.6,3.2,3.1-.6,4.3-3.1,3.8-5.5"/>
        <path class="cls-1" d="M85.7,398.1c-.6-3.3-7.4-3.8-9.1-.6-2,4-2.1,8.7-2.7,12.9-.5,4.1-.8,8.1-.9,12.2-.1,8.3-.4,16.6-.4,24.8,0,8.3,0,16.6.4,24.9.2,4.1.4,8.1.7,12.2.1,2,.4,4.1.3,6.1-.1,2.4-.4,4.4.4,6.8,1.2,3.3,8.4,2.1,8.8-.8.3-2.1-.4-3.9-.9-5.9-.6-2.1-.7-4.2-.9-6.3-.4-4.1-.6-8.1-.8-12.2-.4-8.3-.4-16.6,0-24.9.3-8.2,1-16.3,2.4-24.5.7-4.1,1.3-8.1,1.8-12.2.5-4.1,1.7-8.5,1-12.6"/>
        <path class="cls-1" d="M774.4,458.7c.1-2,.3-4.1.4-6.1.3-4.4.5-8.8.7-13.1.5-8.9.7-17.8.8-26.7,0-17.7-1.1-35.3-3.4-52.9-.4-3.4-9.8-3-9.4.4,1.7,17.5,2.8,35,3.2,52.6.2,8.8.1,17.5-.1,26.3-.1,4.4-.4,8.8-.7,13.1-.2,2-.3,4.1-.5,6.1-.2,2.2-1.1,4.6-.2,6.8,1.1,2.7,6.8,2.9,8.4.3,1.3-2.1.8-4.6,1-6.8"/>
        <path class="cls-1" d="M766.3,459c-42.1,17.6-84.7,34.4-127.7,50.3-21.4,7.9-43,15.6-64.5,23.2-21.5,7.6-42.9,15.5-64.5,23-12.4,4.3-24.7,8.6-37.3,12.6-12.5,3.9-25.9,5.1-38.1,9.4-4.5,1.6-1.5,7.7,3.1,6.6,5.6-1.4,10.5-3.3,15.7-5.6,5.3-2.3,10.9-4.2,16.3-6.1,11.1-3.9,22.8-6.8,34.2-10,22.1-6.2,44-12.8,65.7-19.9,44-14.5,87.5-30.3,130.4-46.8,24.1-9.3,48.1-18.8,71.9-28.6,6.3-2.6,1-10.6-5.2-7.9"/>
        <path class="cls-1" d="M438.4,577.2c-23.2-5.6-46.8-10-70.2-15-23.4-5-46.8-10-70.1-15.4-11.6-2.6-23.1-5.3-34.7-7.8-11.6-2.5-23.3-4.7-34.9-7.4-23.3-5.3-46.3-11.5-69.3-17.6-25.9-6.9-51.5-14.4-77.2-21.9-5.8-1.7-8.5,6.1-2.7,7.7,45.8,12.8,92.4,23.6,138.4,35.8,22.9,6.1,45.5,12.4,68.6,17.8,23.3,5.4,46.7,10.5,70.1,15.5,26.3,5.6,52.7,11.3,79.5,15.2,5.3.8,7.8-5.5,2.4-6.8"/>
        <path class="cls-1" d="M439.6,464.2c0-.1,0-.3,0-.4l.7-1.3c.3-.3.5-.6.8-.9,0,0,0,0,0,0,0,0-.1.2-.2.2.1-.2.2-.3.3-.5.3-.5.7-1,1.2-1.4.4-.3.9-.5,1.3-.8,0,0,0,0,0,0-45.7-9.6-92-17.4-137.9-26.5-23.3-4.6-46.5-9.5-70-13.5-23.7-4-47.5-7.6-71.3-11.1-26.7-3.9-53.6-8-80.6-10.2-5.3-.4-7.3,6-1.8,7,23.6,4.2,47.6,7.1,71.3,10.7,23.8,3.5,47.6,7.2,71.3,11,11.8,1.9,23.5,3.8,35.3,5.7,11.8,1.8,23.6,3.3,35.4,5.2,23.7,3.9,47.2,8.6,70.7,13.3,24.3,4.9,48.4,10.3,72.6,15.7,0-.7.3-1.3.7-1.8"/>
        <path class="cls-1" d="M629.3,333.4c-14.2-2.3-28.4-4.6-42.7-6.5-23.9-3.2-47.8-6-71.8-8.7-16.9-1.9-33.8-3.8-50.8-5.3,0,0,0,.1,0,.2,0,2.9,0,5.7-.1,8.5,13.4,1.5,26.9,2.8,40.3,4.3,24,2.7,47.9,5.5,71.8,8.6,11.8,1.5,23.7,3,35.5,4.5,4.9.6,9.8,1.1,14.8,1.6,1.2-2.3,2.3-4.7,3.1-7.3"/>
        <path class="cls-1" d="M657.1,338c-1.1-.2-2.3-.4-3.4-.6-.4,1.7-.8,3.5-1.5,5.2-.1.4-.3.7-.5,1.1,22.3,2.9,44.4,6.6,66.5,10.3,13.2,2.2,26.3,4.5,39.5,6.9,1.2-.7,2-1.3,3.5-2.4,1.6-1.2,3.1-2.4,4.7-3.7-36.2-5.8-72.6-10.9-108.8-16.8"/>
        <path class="cls-1" d="M444.5,460c.2-3.6-8.5-3.6-8.8,0-.6,7.8-.4,15.6-.6,23.4-.2,7.6-.6,15.3-.9,22.9-.6,15.4-1.4,30.9-2.2,46.3-.4,8.8-.9,17.7-1,26.5,0,4.1,10.3,4.1,10.2,0-.2-15.4-1-30.9-1-46.3,0-15.4.6-30.9,1.7-46.3.6-8.8,2.1-17.6,2.6-26.4"/>
        <path class="cls-1" d="M764.5,353.8c-86.1,24.3-170.9,52.2-255.4,80.2-11.8,3.9-23.7,7.7-35.5,11.6-11.8,3.9-23.8,7.4-35.5,11.6-2.7,1-3.4,4.2-2,6.2,1.6,2.4,4.7,2.7,7.4,1.7,10.5-3.6,20.6-7.8,31-11.6,10.4-3.8,20.8-7.6,31.2-11.3,20.6-7.3,41.5-14.2,62.3-21,41.9-13.6,84.3-26,126.8-38.4,24-7,48.2-13.8,72.3-20.5,6.4-1.8,3.8-10.4-2.7-8.5"/>
        <path class="cls-1" d="M239.2,378.8c-12.4,3.2-24.8,6.3-37.3,9.4-21.6,5.3-43.4,9.6-65,14.8-5.3,1.3-3.1,8.3,2.2,7,19.1-4.8,38-10.2,57-15.2,15-4,30.1-7.7,45.1-11.5-.7-1.5-1.4-2.9-2-4.5"/>
        <path class="cls-1" d="M420.3,330.4c-50.3,13.9-100.7,27.6-151.4,40.8.4,1.6.9,3.2,1.3,4.8,32.3-8.1,64.7-16.1,97-24.4,18.4-4.7,36.8-9.6,55.1-14.4-.8-2.3-1.4-4.6-2-6.8"/>
        <path class="cls-1" d="M728.9,365.9c-9.2-2.4-18.9-3.7-28.4-5.1-9.5-1.5-19.1-2.8-28.6-4.1-8.3-1.2-16.7-2.2-25.1-3.3-.7,1.2-1.5,2.3-2.3,3.5,0,.2-.1.3-.2.4-.4.9-.9,1.9-1.4,2.8,6.7,1,13.5,1.9,20.2,2.9,10.9,1.6,21.8,3.2,32.7,4.8,10.7,1.5,21.6,3.4,32.4,4,4.3.2,4.1-4.9.6-5.8"/>
        <path class="cls-1" d="M618.7,355.1s.1-.3.2-.4c0-.2.2-.4.2-.5.6-1.3,1.3-2.6,1.9-3.9-2.2-.3-4.4-.5-6.7-.8-38.6-4.5-77.2-9.2-115.8-13.4-11.9-1.3-23.7-2.8-35.6-4.2,0,2,.1,3.9.3,5.9,0,.2,0,.3,0,.4,9,.7,18,1.5,27,2.4,19.4,2.1,38.9,4.2,58.2,6.6,23.1,2.9,46.2,6.1,69.2,9.3.3-.5.6-1,.9-1.5"/>
        <path class="cls-1" d="M576.8,91.1c-20.6,26.2-42.7,51.6-63.6,77.6-18.6,23.1-37.2,46.2-56.2,69.1.5-.4,1-.9,1.5-1.3,1.4-1.1,2.9-1.4,4.3-1.3,6-7,11.9-14,17.9-20.9,22-25.3,44.5-50.3,66.2-75.7,12.5-14.6,24.7-29.4,37.5-43.8,3.3-3.7-4.5-7.6-7.6-3.6"/>
        <path class="cls-1" d="M222.7,333.6c-13.8,3.3-27.5,6.6-41.3,9.9-10.6,2.6-21.2,5.3-31.9,7.8-11.1,2.6-22.3,4.9-33.4,7.5-4.4,1-2.5,6.9,1.8,5.7,9.6-2.7,19.2-5.6,28.9-8.2,9.3-2.4,18.5-4.7,27.9-7,15.8-3.9,31.7-7.7,47.6-11.5,0-1.4.2-2.8.5-4.2"/>
        <path class="cls-1" d="M418.6,287.8c-38.5,8.2-84.4,19.2-122.6,28.3-10.9,2.6-21.7,5.2-32.6,7.8-.1,1.5-.3,3.1-.4,4.6,28-6.4,56-12.6,84-18.6,21.9-4.7,51.7-10.8,73.6-15.5,5.1-1.1,3-7.6-2.1-6.6"/>
        <path class="cls-1" d="M396,563.7c-30-7.5-60-15-90.1-22.5,32.2,5.9,64.9,10,97.1,14.9-37.6-8.8-74.7-19-112-28.8,37.4,7.9,75.7,13.4,113.2,20.5-39.3-9.6-77.5-21.7-116.5-31.8-49.4-13-99.3-24.5-149.8-34,33.4,10.2,66.2,21.8,99.7,31.7-40.3-9.9-80.9-18.9-121.5-28.2,32.3,11.6,64.8,23,97.9,33-39.8-9.7-79.7-19.1-119.8-27.9,49.4,17.2,99.3,34.1,150.6,47.3,49.2,12.7,100,20.3,150.8,27,4.8.7,11.8,1.8,15.2,2.2-5-1.1-10-2.3-14.9-3.5"/>
        <path class="cls-1" d="M251.9,495.4c-43.8-10.7-88.8-18.2-132.2-30.4,90.4,36.6,189,54.4,286.5,72.6-51.7-13.4-102.4-29.4-154.4-42.2"/>
        <path class="cls-1" d="M262,485.3c31.2,6.7,63,12.1,94.3,17.9-26.3-7-52.2-14.9-78.2-22.6,32.1,7.1,64.6,13.4,96.9,19.9-43.8-12.2-86.9-26.2-130.9-38.1-41.4-11.1-83.5-20.4-125.5-29.7,25.9,8.8,51.9,17.8,78.1,26.1-28.7-6.7-57.6-12.6-86-19.9,34.2,13.4,69.6,25,105.7,35.1-34.6-8.2-69.4-15.7-104.1-23.3,45.2,14.7,90.3,30.1,136.8,41.9,47.7,11.8,96.5,20.5,144.9,30.5-44.2-12-87.6-26-131.9-37.8"/>
        <path class="cls-1" d="M276.2,458.6c-45.2-10-91-18-136.9-25.2,38.9,10.7,77.3,22.9,117.1,31.3,39.2,8,79.3,12.6,119.3,17.4-33.4-7-66.2-16.1-99.5-23.4"/>
        <path class="cls-1" d="M332.7,459.6c28.3,3.5,55.9,6.1,86.5,9.7-19.2-3.7-38.3-7.8-57.5-12,7.9,1.1,15.6,2.1,23.1,3.2-61.7-14.4-123.5-29.2-187.5-34.3,9.1,2,18.1,4.2,27.2,6.3-24.6-3.7-49.1-7.4-73.5-11.8,15.3,4.3,30.6,8.6,45.9,12.7-21.5-3.8-42.9-7.7-63.9-12.1,45.7,14,93.4,26.8,141.4,36.6,50.5,9.6,103.8,15.5,153.8,22.7-32-6.5-63.6-14-95.4-21"/>
        <path class="cls-1" d="M678.2,479.8c26.4-12.7,52.2-26.2,78.4-38.9-28.1,10.9-56.6,20.8-84.7,31.7,17-8.4,33.7-17.6,50.2-27.8-40.3,16.6-81.9,30.9-122,47.8-28,11.9-54.8,25.8-82.9,37.5,28.5-8.1,55.9-16.8,82.5-26.6-24,10.9-47.8,22.1-72.3,32.4,14.8-4.3,29.6-8.8,44.2-13.6-27.9,12.4-55.4,25.3-83.3,37.6,55.5-18.4,110.9-37.2,164.6-59,38.8-15.6,81-36.4,115.6-53.4-30,10.3-60.3,21-90.5,32.1"/>
        <path class="cls-1" d="M615.5,475.1c-30.1,11.3-58.8,25.2-89.9,34.5,73.7-13.8,146.2-42.8,207.3-76.7-38,13.4-76.3,26.4-117.4,42.2"/>
        <path class="cls-1" d="M616.2,404.8c-.1,0-.1,0,0,0"/>
        <path class="cls-1" d="M689.8,427.8c22.3-9.5,44.2-19.9,66-30.2,3.8-1.8,9.4-4.3,12.1-5.6-5.2,1.9-10.4,3.7-15.6,5.5-22.4,7.6-45,15.1-67.5,22.5,20.1-8.4,40.1-17.1,60.1-25.4-23.6,7.5-47.4,14.6-71.2,21.8,25.1-10.3,50-21.1,75-31.4,4.3-1.8,8.8-3.7,12.9-5.5-5.2,1.8-10.4,3.5-15.6,5.2-14.1,4.7-28.4,9.2-42.7,13.6,14.6-5.8,29-11.6,43-17-28.2,8.6-56.8,16.3-85.2,24.3,25.2-9.9,50-20.5,74.7-30.5-16.1,4.6-32.1,9.1-47.8,13.7,11.1-4,21.4-7.9,30.3-11.1-32.8,8.4-65.8,16.7-98.2,26.1.3-.8.1-1.7-.7-2.3-9.9-7.2-21.8-12.4-34.4-15.5,12.2,5.1,20.4,12,31.2,18.9h0s0,0,0,0c-37.7,11-74.8,23.4-110.2,38.9,18.4-5.6,37.1-10.4,55.8-15.2-26.4,9.3-52.7,19.3-78.9,30.4,18.3-5.4,37-10.1,55.5-14.8-18.5,6.3-37,12.5-55.7,18.2,27-5.4,53.9-11.3,80.5-17.9-26.9,9.5-54.3,19.1-91.4,30.9,27.6-5.5,55-11.6,82.1-18.6-20,7.4-40.9,15.1-61.3,22,23.8-5.7,47.6-11.4,71.2-17.6-22.5,8-48.5,17.1-76.3,25.4,37.5-7.1,74.6-15.7,110.9-26.4-34.2,13-68,26.7-102.5,38.8,26.7-6.8,53.3-14.1,79.7-21.9-22.2,8.9-44.2,18.2-66.9,26,82-19.2,161.6-46,235.1-82-20,6.1-41.6,12.6-62.8,19.3,30.8-12.6,61-26.3,83.9-37.7-25.2,8.6-50.5,17-75.3,25.3"/>
        <path class="cls-1" d="M585,81.7c-32.4,3.7-64.8,7.9-96.9,13.3,22-4.7,43.8-9.9,65.3-15.9-25.5,4-51.1,7.2-76.6,11.2,14.5-3.4,28.9-7.1,43.1-11.5-26.4,4.9-53.4,7-79.7,12.2-29.8,5.5-59.3,14.2-88,22.1,19.1-3.1,38.2-6.2,57.3-9.4-23.1,5.5-46.1,11.6-66.8,17.5,30.7-5,61.5-10,92.1-15.5-38.1,8.9-76,20.5-111.7,32.8,87.1-19.7,175-37,262.1-56.6"/>
        <path class="cls-1" d="M534,65.4c-38.2,2-76.3,6.1-113.7,13-38.2,7.1-76.4,17.7-113.3,26.8,30.1-4.6,60.2-8.8,90.1-14-18.8,4-37.4,8.6-55.8,13.6,55.8-8,109.9-16.3,164.1-30.4-20.1,1.8-40,4.4-59.9,7.6,29.4-5.9,58.6-12.2,88.4-16.6"/>
        <path class="cls-1" d="M419.5,68.5c19.2-3.2,38.4-6.7,57.4-10.6-17.9,1.8-36,2.4-54,3.7,10.3-2.4,20.5-5,30.7-7.7-32.1,3.3-63.8,9.1-94.8,16.9-24.2,5-48,11.1-72,16.8,32.5-4.2,65-8.5,97.3-13.4-3,.5-6.1,1.1-9.1,1.7-33.6,6.4-66.4,15.7-99.5,23.3,32.8-5.4,66.1-8.7,98.9-14.6,39.9-7,79.1-16.7,118.8-24.5-24.6,2.4-49.2,5-73.6,8.5"/>
        <path class="cls-1" d="M277.3,167.8c-19.7,19-40.2,37.4-60,56.3,13.8-16.2,27.4-33.2,41-51.9-17.7,17-37,32.9-55.3,49.5,12.7-14.8,25.1-29.8,37.9-44.6-24.3,18.6-48,37.8-68.6,59.3-24.3,26.7-45.2,55.4-67.1,83.5,16.1-16,32.9-31.4,49.3-47.1-18.8,23.5-35.1,48.4-52.2,72.6,19-19.5,36.8-37.4,54-55.1-21.8,27.1-41.5,55.4-61.5,83.4,66.4-65.1,130.3-132.2,182.5-205.9"/>
        <path class="cls-1" d="M110,298.2c21.6-21.6,43.5-43.1,63.8-65.6,16.8-19.2,31.8-39.3,48.1-58.8-45.2,36.2-79.8,79.9-112,124.4"/>
        <path class="cls-1" d="M161.8,214.5c-20.1,21.5-38.8,45.9-54.5,68.8,39.7-42,78.4-77.8,112.7-122.3-19.7,17.6-40.3,34.6-58.2,53.5"/>
        <path class="cls-1" d="M164.9,196.5c9.9-11.3,20.4-23.4,30-32.9-50.1,34-87.1,78.5-122.8,122.7,14.5-13.3,29.3-26.2,43.8-39.5-21.7,25.4-41.9,51.7-62.7,77.6,28.4-28.7,58.9-56,86.5-85.3,23-24.8,42.9-51.5,64.7-77-13.3,11.3-26.6,22.7-39.4,34.4"/>
        <path class="cls-1" d="M147.9,188.9c13.4-14.4,32.9-38.7,48.6-55.2-14.7,10.5-28.1,22-40.7,34.1,7.8-9.5,15.7-19,23.9-28.3-12.4,9.6-24.5,19.5-35.9,29.8,7.4-8.8,14.8-17.7,22.7-26-39,26.3-65.7,61.9-92.8,96.4,10.5-10.3,21.5-20.3,32.2-30.5-14.8,17.9-28.3,36.4-42.6,54.5,14.3-14.1,29.1-27.7,43.5-41.8-7.9,9.9-15.4,20-22.8,30.1,6.5-6.5,13.2-12.9,19.9-19.3-12.2,13.2-24.1,26.5-36.1,39.6,28.4-24.9,58.1-48.9,84.5-75.3,16.5-16.1,28.1-31.5,45.9-46.4-18.3,11.5-34.8,24.4-50.2,38.2"/>
        <path class="cls-1" d="M82.7,219.6c14.4-14.7,30.2-28.5,44.2-43.5,12.1-13,22.6-27.2,34.8-40-33.3,22.8-58,52.5-79,83.5"/>
        <path class="cls-1" d="M323,402.8c-7.5.4-18.2,3.6-27.3,8-2.5-2.1-10.4-8.7-11.1-10-16.3-19.3-26.2-39-28.5-60-2.2-17.2-.7-34.1,8.7-49.6-18.3,24.7-19.4,56.4-10.8,83.8,6.9,17.9,19.6,31.8,34.2,40-.4.2-.8.5-1.2.7-2.1,1.8-6.7,3.5-5.3,6.4,2.2,3.6,6,.6,8.2-1.3,2.5-1.8,6-3.8,10.6-6,7.2-3.3,10.8-4.5,18.7-6.5,3.3-1.2,4.2-.3,6.2-2.2,1.1-1.5-.3-3.6-2.4-3.5"/>
        <path class="cls-1" d="M436,404.5c-5.6-3.6-11.6-6.6-18-9,2.2-1.7,3.8-4.2,5.7-5.9,10.7-13.1,17.2-28.7,19.1-44.4-4.9,17.1-18.5,33.5-30.4,45.2-1.1.7-1.8,1.6-2,2.6-4.1-1.2-8.2-2.2-12.5-2.7-2-.1-4.6-.8-5.8.9-.9,1.3,0,3.1,1.7,3.5,14.6,3,20.2,5.2,32.9,11.6,4.3,2.3,8.1,5.1,8.9,5.2,2.1.9,4.9-.7,4.8-2.6,0-2.1-2.7-3.1-4.3-4.3"/>
        <path class="cls-1" d="M519.4,384.3c-15.1,2.6-27.6,11.9-36.4,22-1.6,2.4-5.1,4.6-4.6,7.5.6,1.8,3.3,2.7,5.2,1.7,1.8-1.1,2.7-3.1,4.1-4.5,6.4-7.7,13.8-14,24.2-18.8,3.5-1.8,5.5-1.8,10.2-3.6,2.6-1.5.4-5.1-2.6-4.3"/>
        <path class="cls-1" d="M614.7,374.6c2.8-2.7,5.4-5.6,7.6-8.6,12.1-16.5,17.1-36.4,15.7-55.6-2.5,20.7-13.1,43.2-26.3,57-1.3,1.4-3.5,3.1-4.4,4.8-3.6-1-7.2-1.9-10.9-2.5-3.6-.4-8.5-1.6-14.2-.5-1.2.3-1.9.9-2.1,1.7-4.5.5-8.9,1.6-12.9,3.1,4.8-.8,9.2-.9,13.5-.7.7.7,1.7,1.2,3.1.9.6,0,1.4,0,2.2,0,3.7.9,7.2,2.1,10,3.1,4.3,1.4,21,8.1,29.4,12.2,2.8,1.8,6.8,3.1,8.5-.4,1.5-1.4.4-3.9-.6-4.3-5.4-4.3-11.8-7.6-18.7-10.2"/>
        <path class="cls-1" d="M411.4,324.1c-.8.2-1.6.4-2.4.7,0-.7,0-1.5-.5-2.6-1.5-2.2-4.6-2.1-7-1.1-4.1,1.3-8.1,2.6-12.2,3.9-28.5,9.2-56.7,19.4-84.8,29.3,13.8-3.3,27.5-6.6,41.2-10.1-20.6,6.8-41.2,13.7-62.2,19.6,41.6-6.6,103-20.9,131.6-30,8-1.8,4.3-11.8-3.6-9.6"/>
        <path class="cls-1" d="M418.6,296.3c.4-1.5-.4-3.1-2-3.8-4.2-1.4-8.5,1.4-12.6,2.2-28.8,8.4-57.4,17.1-85.7,26.6,16-3.4,32-6.5,48-9.9-12.3,4-24.5,8.1-36.8,12.1,11.4-2.1,24.4-4.5,37.3-7.1-22,6.8-43.9,14.5-66,20.9,35.6-7.1,71.6-13.3,106.2-23.3,3.5-1.2,8.2-1.2,10.5-3.9,1.4-1.9.5-4.5-1.7-5.6.4-.1.8-.3,1.3-.4,2.2-.9,1.3.2,3.7-2.1,1.4-2,.2-4.6-2.3-5.4"/>
        <path class="cls-1" d="M94.9,385.1c1-.4-.3,0,0,0"/>
        <path class="cls-1" d="M215.3,352.9c-32.3,6.6-64.8,12.6-96.9,20,31.3-8.6,62.4-18.1,92.8-28.8-29.8,8.1-92.7,18.4-104.8,24-3.7,2.1-1.3,6.8,2.6,6.9-2.9.5-5.8,1.1-7.5,3-1.4,1.8-.4,4,1.4,5.1-2.2.5-4.4.9-6.7,1.5-.7.2-1.1.3-1.2.4-.2,0-.5.2-1,.4-.6.2.4-.1.6-.2-1.1.2-2,.8-2.5,1.6-1.4,1.9,0,4.6,2.5,5.2.5,0,.9.1,1.4,0,0,0,.1,0,.6,0,1.8-.2,0,0,3.2-.5,30.5-7.4,60.4-16.2,90.4-24.6-19.3,3.3-38.6,6.6-57.8,10.2,27.9-7.5,55.5-15.7,83-24.2"/>
        <path class="cls-1" d="M216.7,373.8c.5,0,1.1-.3,1.7-.5-.5.2-1.3.2-1.7.5"/>
        <path class="cls-1" d="M176.8,385.6c-22.8,3.5-45.4,7.7-68.1,11.6-6.2,1.5-6.2.9-8.2,2.9-1.9,4,3.5,4.4,4.4,4-1.1.1-1.1.1.1,0,24.3-4.9,48.1-11.6,71.7-18.4"/>
        <path class="cls-1" d="M121.1,401.6c-3.6.8-1.9,5.4,1.6,4.4,19.7-4.4,39-10.1,57.8-16.5-19.6,4.8-39.8,7.5-59.5,12.1"/>
        <path class="cls-1" d="M476.3,322.6c-4.8-.5-4.5-1.4-8.2-.3-3.5,1.6-2.7,6.2,1.1,7,7.2,1.5,14.6,2.3,21.9,3.3,27,3.2,54.2,4.9,81.3,7.5-32-6-63.9-12.3-96.1-17.4"/>
        <path class="cls-1" d="M748.5,359.5c-4.9-2.4-16.6-2.3-25.6-3.8-21.8-2.3-43.7-5.1-65.7-6.2,28.9,5.5,57.3,13.6,86.9,16.3,4.3,1,7.6-3.7,4.3-6.3"/>
        <path class="cls-1" d="M546.6,220c5.6-.3,11.2-.5,16.8-.3-30.8-6-64.1,0-89,16.1-.6.4-1.2.7-1.9,1.1.1,0,.3-.1.4-.2,3.2-1.4,8.5-3.3,10.7-4.1,6.9-2.3,14.2-4.4,21.7-6.2-10.4,3.5-20.2,8.2-29.1,13.8-3.7,2.3-8,5.1-11.3,7.3,9-4.3,18.1-8.5,27.6-12,32.5-11.6,74.4-15.5,108,.3-15-10.2-34.8-14.7-53.9-15.9"/>
        <path class="cls-1" d="M287.5,253c4.6-3.2,9.2-6,15.5-8.5-12.5,2.7-23.5,9-33.6,15.5-13.2,8.3-22.4,20.2-27.6,33.2-.5,1.3-1.1,2.7-1.5,3.8,1.4-2.1,2.9-4.1,4.4-6.1,2.2-3,4.6-5.9,7.2-8.6-7,9.1-12.1,19.2-14.9,29.8-.9,2.9-1.9,6.4-2.6,9,2.9-5.4,5.8-10.7,9-15.9,18.3-27.3,42-51.4,78.1-62.8-12.2,1.7-23.6,5.5-33.9,10.7"/>
        <path class="cls-1" d="M472.3,220.9c0,0-.1.1-.2.2-.5.5,0,.1.2-.2"/>
        <path class="cls-1" d="M472.3,220.9s0,0,.1-.1c0,0,0,0,0-.1,0,0-.1.1-.2.2"/>
        <path class="cls-1" d="M513.1,196.1c10.3-13.1,20-26.6,30.2-39.8-11.7,11.5-23.1,23.2-34.5,34.9,8.1-10.7,16.2-21.4,23.7-32.4-19.1,20.8-39.6,41.6-60.1,62-.8.7-1.2,1.6-1.2,2.5,0,2.4,2.9,4.2,5.6,3.6,1.1-.2,2-.9,2.8-1.6,2-1.9,4-3.9,5.9-5.9.8,1.2,2.3,2.1,4,2,2,0,3.4-1.1,4.5-2.4,1.5-1.6,3-3.3,4.5-5,0,1.5,1,3.1,2.7,3.9,4.4,2.2,7.8-1.5,10-4.2,4.9-5.6,9.3-11.5,13.7-17.4,17.2-22.6,31.9-46.2,46.8-69.8-17.6,21.5-40.6,49.3-58.5,69.7"/>
        <path class="cls-1" d="M458.4,224.1c28.4-29.8,53.5-62.4,74-96.1-27.3,30.6-52.8,62.3-74,96.1"/>
        <path class="cls-1" d="M458.3,205.3c25.7-24,45-51.9,62.9-80.1-23.7,25.3-44.4,52.1-62.9,80.1"/>
        <path class="cls-1" d="M458,188.5c15.1-15.2,28.1-33.5,39.4-51-14.4,16.3-28.2,33-39.4,51"/>
        <path class="cls-1" d="M461.3,170.8c2.3-2.7,4.6-6.3,6.1-9-2.3,2.9-4.5,5.8-6.1,9"/>
        <path class="cls-1" d="M169.3,322.8c21.7-23.8,45.9-46.8,67.2-71.1,21.9-25.1,47.9-59.2,64.8-81.5-46.7,49.1-95.3,97.7-132,152.6"/>
        <path class="cls-1" d="M226.7,272.5c12.3-13,25.9-25,37.8-38.3,17.7-20,33.7-41.6,49.6-62.2-30.9,32.4-62.7,64.5-87.4,100.5"/>
        <path class="cls-1" d="M267.5,238.6c17.3-15.5,30.3-33.8,43.4-51.9-15.8,16.5-30.4,33.7-43.4,51.9"/>
        <path class="cls-1" d="M290.8,225.9c5.8-6.6,11.4-14.8,15.4-21.6-5.8,6.9-11.2,13.9-15.4,21.6"/>
        <path class="cls-1" d="M445.2,421.3c-23.9-17.1-55-29.8-86.4-26.9,13.5.9,26.7,5.8,39.4,9.8,13.7,4.6,30.7,10.7,47.1,19,2.3,1.2,5.1,2.7,7.1,3.8-2.3-1.9-4.7-3.8-7.2-5.7"/>
        <path class="cls-1" d="M372.8,403.2c17.4,5.6,35.2,12.7,53.4,17.6-16.5-8.2-34.1-15.9-53.4-17.6"/>
        <path class="cls-1" d="M381.6,410.1c9.5,4.8,20.3,8.9,30.6,11.8-9.6-4.9-19.8-9-30.6-11.8"/>
        <path class="cls-1" d="M482.4,428.3c-1.2,1.5-2.5,3.2-3.6,4.7,3.4-3,6.9-6,10.4-8.9,9.5-8.2,23.5-17.3,30.5-21.8,7.2-4.6,21-13.1,32.1-17-28.7,5.4-53.6,22-69.4,43"/>
        <path class="cls-1" d="M503.4,421.9c-1.6,1.4-3.4,3-4.7,4.4.5-.3,1.1-.7,1.6-1,1-.7,1.8-1.2,2.9-1.8,6.8-4.4,15-9.6,24.2-14.9,5.9-3.1,11.4-7,18-8.8-16.9,2.2-30.7,12.1-41.9,22.2"/>
        <path class="cls-1" d="M520.6,422.1c6.8-3.8,12.4-7.8,18.8-11.9-7.3,2.3-13.9,7.4-18.8,11.9"/>
        <path class="cls-1" d="M478.1,348.2c33.4,3.8,68,7.2,101.2,7.7-33.7-5.9-66.1-9-101.2-7.7"/>
        <path class="cls-1" d="M501.1,356.5c19,3,39.5,4.9,58.2,5.1-19.2-3.1-38.7-5.6-58.2-5.1"/>
        <path class="cls-1" d="M517,363.1c7,1.5,14.7,2.2,21.8,2.4-7.2-1.3-14.5-2.1-21.8-2.4"/>
        <path class="cls-1" d="M304.8,376.4c34.3-7.7,68.2-16.5,100.7-28.5-34.7,6.2-68.9,15.8-100.7,28.5"/>
        <path class="cls-1" d="M323.5,380.1c20.8-4.7,40.8-11.3,60.4-18.8-21.1,3.9-41,11-60.4,18.8"/>
        <path class="cls-1" d="M348.2,377.4c7.1-1.9,14.1-4.1,20.7-7.1-7.1,1.8-14.2,4.2-20.7,7.1"/>
        <path class="cls-1" d="M298.7,421.2c-4.7,2.8-18.9,8.6-14.3,12.6,3.7,2.1,4.7-.2,7.1-1.4-.7.4-.9.6-.6.4,5.6-3.5,11.2-6.9,17-10.2,11.5-6.4,22.6-11.4,36.3-12.9-16.1-.5-31.8,4.8-45.5,11.5"/>
        <path class="cls-1" d="M299.7,432c-1.7,1.3-.4,3.9,1.9,3.8,2.1-.1,3.2-1.9,4.9-2.8,7.6-4.8,18.8-12.8,30.7-17.2-13.8,2.6-26.7,8.7-37.5,16.1"/>
        <path class="cls-1" d="M311,434.6c-.8.5-1.9,1.2-1.4,2.2.4.9,1.9,1.1,2.6.4,6.7-4.5,13.2-9.4,20.1-13.5-7.6,2.9-14.9,6.5-21.4,10.9"/>
        <path class="cls-1" d="M618.6,391.2c-11.3-6.2-23.7-11.8-37.3-13.5,14.1,3.6,29.6,15,39.2,20.7,2.2,1.4,4.1,3.5,6.8.9,2-3.8-6.1-5.9-8.7-8.1"/>
        <path class="cls-1" d="M590.1,393.5c5.7,3.6,11.2,7.5,17,11.2,9.6-.1-15.1-10.5-17-11.2"/>
        <path class="cls-1" d="M371,211.7c-5.8-1.7-12.9-.2-19.1-.7,4.6.7,9.3,1.3,13.9,1.7-3.5-.3-7.2-.1-10.8,0,3.9.2,8,1.2,11.8.9.3-.2.2-.7-.1-.9,1.1,0,2.2.2,3.3.3.9,0,1.5-.8,1-1.5"/>
        <path class="cls-1" d="M366,214.2c-2.9-.3-5.9-.3-8.8-.2,3,.2,6.2,1.2,9.1.9.3-.2,0-.7-.3-.7"/>
        <path class="cls-1" d="M353.1,226.2c.3.2.8,0,.9-.3.8-2.4,1.6-4.8,2.1-7.2-.7,1.9-3.6,5.8-3.1,7.4"/>
        <path class="cls-1" d="M354.2,226c0,.2.3.4.6.4,1.7-1.6,1.6-5.1,2.5-7.2-1.2,2.2-2.4,4.5-3.1,6.8"/>
        <path class="cls-1" d="M355.7,226.1c0,.2.3.4.6.4,1.7-1.2,1.5-5.4,2.3-7.4-1.1,2.3-2.4,4.5-2.9,7"/>
        <path class="cls-1" d="M357.1,226.7c0,.4.7.5,1,.3.9-2.4.9-4.8,1.5-7.2-1.1,2.2-2,4.6-2.4,7"/>
        <path class="cls-1" d="M358.8,226.5c0,.2.3.3.5.2,1.3-1.5.7-4.7,1.1-6.7-.6,2.1-1.5,4.3-1.5,6.5"/>
        <path class="cls-1" d="M359.8,227.5c0,.2.5.3.7.2.8-2,.4-4.5.7-6.7-.7,2.1-1.4,4.3-1.4,6.5"/>
        <path class="cls-1" d="M362,221.4c-.4,1.8-.9,3.9-.5,5.7.2.1.4.1.6,0,.4-1.8-.1-3.8,0-5.7"/>
        <path class="cls-1" d="M362.6,222.6c0,1.1-.8,4,.1,4.6.9-.9-.2-3.3-.1-4.6"/>
        <path class="cls-1" d="M370.5,222.3c-1.5-.9-3.9-3.7-5.4-3.6,0,.3.3.7.8,1.1-.3-.2-.6-.3-.9-.4-.1,0-.2.2-.1.3,1.4,1.1,3.2,2,5,2.8-1-.5-1.9-1.4-2.9-2.1,1.3.7,2.9,1.4,3.5,1.9"/>
        <path class="cls-1" d="M365.7,220.7c-.3.6,2.9,1.8,3.6,2.2-1.3-.6-2.3-1.9-3.6-2.2"/>
        <path class="cls-1" d="M366.6,222.2c.3.4,1.3.6,1.9.8-.6-.2-1.3-.8-1.9-.8"/>
        <path class="cls-1" d="M371.7,213.2c-.1,2.6-.1,5.3.5,7.8.2.2.6.2.9,0,.2-2.5-1.1-5.3-1.4-7.9"/>
        <path class="cls-1" d="M371,214.3c0,1.2-.8,4.6.2,5.2,1-.9-.3-3.9-.2-5.2"/>
        <path class="cls-1" d="M370.1,215c-.3,1.4-.4,2.9-.3,4.3,0,.1.2.2.4.1.6-1.3-.2-3,0-4.4"/>
        <path class="cls-1" d="M369.5,215.5c0,.7-.9,3.7,0,3.7.6-1-.1-2.6,0-3.7"/>
        <path class="cls-1" d="M368.9,216.1c0,.5-.6,1.6-.2,2,.4-.5,0-1.4.2-2"/>
        <path class="cls-1" d="M376.4,214.7c1.4,1.9,2.7,3.8,4.5,5.4.2,0,.4,0,.5,0,.5-1.3-4-4-5-5.4"/>
        <path class="cls-1" d="M377.1,216.6c.9,1.3,1.7,2.9,3,4,.1,0,.3,0,.4,0-.3-1.5-2.4-2.6-3.4-3.9"/>
        <path class="cls-1" d="M377.1,217.6c.6.8,1.2,2.7,2.1,2.8.4-.6-1.5-2-2.1-2.8"/>
        <path class="cls-1" d="M364.4,229.3c0,.3.5.5.9.3,2.2-1.1,4.4-2.3,6.5-3.5-2,1-6.3,1.6-7.3,3.2"/>
        <path class="cls-1" d="M363,231.2c-.1.2.1.6.4.6,2-.9,3.7-2.4,5.7-3.7-2.1,1-4.4,1.8-6.1,3.2"/>
        <path class="cls-1" d="M354.5,228.5c1,2.5,1.9,5.1,3.4,7.4.2.1.4.1.6,0,.3,0,.4-.4.4-.6-1.2-2.4-2.8-4.6-4.4-6.9"/>
        <path class="cls-1" d="M355.4,228.8c1.1,1.6,2.1,5.2,3.8,6.1.3,0,.5-.2.5-.4-1.1-2-2.8-3.8-4.3-5.6"/>
        <path class="cls-1" d="M356.6,228.8c.9,1.7,1.8,3.3,3.1,4.8.2.1.4,0,.6,0,0-1.5-2.8-3.4-3.7-4.8"/>
        <path class="cls-1" d="M357.5,229.2c.9,1.4,1.8,2.8,3,3.9.1,0,.4,0,.5,0-.3-1.4-2.4-2.6-3.5-3.8"/>
        <path class="cls-1" d="M358.8,229.5c.5.6,2,3,2.8,2.8,0-1-2-1.9-2.8-2.8"/>
        <path class="cls-1" d="M359.8,229.3c.3.4,1.1,1.8,1.7,1.7,0-.7-1.2-1.1-1.7-1.7"/>
        <path class="cls-1" d="M342.8,225.1c2.1,1.8,4.4,3.4,6.7,5-2.7-2.1-4.6-5.1-7.5-7-.4,0-.6.3-.6.6-1-.9-2-1.8-3.1-2.5-7,0,10.7,10.3,12.5,11.3-3-2.2-5.4-4.8-7.9-7.4"/>
        <path class="cls-1" d="M341.1,210.2c0-.2-.2-.3-.4-.4-.3,0-.6,0-.7.3,0,.2,0,.4-.1.5-.2-.2-.6-.3-.9,0-1,2.3-1.3,4.9-1.7,7.3.4-1.6,1.3-3.3,1.9-4.9-.4,1.7-.7,3.5-1.1,5.3,1.1-2.7,2.3-5.3,2.9-8.1"/>
        <path class="cls-1" d="M337.8,211.6c-.7,1.7-1,3.6-1.3,5.5.4-1.8,1.9-3.7,1.8-5.5-.1,0-.4,0-.5,0"/>
        <path class="cls-1" d="M336.3,212.8c-.4,1.4-.6,2.9-.6,4.4.2-1.5,1.3-3.1,1.1-4.5-.2-.1-.4,0-.5.1"/>
        <path class="cls-1" d="M335.5,214.3c-.6.4-.4,1.9-.5,2.5,0-.8.8-1.8.5-2.5"/>
        <path class="cls-1" d="M342.8,218.6c1.7-.8,3.9-2.5,5.1-3-2.3.9-4.7,1.6-6.8,2.8-.2.2-.1.4,0,.6.4,0,.8,0,1.4-.3-.6.3-1.2.5-1.7.8-.2.2-.1.5,0,.6,2,.1,6.3-3.3,8.6-4.1-2.2.8-4.4,1.6-6.6,2.6"/>
        <path class="cls-1" d="M341.6,217.1c-.1.1,0,.3,0,.4,1.7,0,3.9-2,5.5-2.8-1.9.7-3.9,1.4-5.6,2.4"/>
        <path class="cls-1" d="M342,215.9c-.1.1,0,.3,0,.4,1.6,0,3.1-1.6,4.6-2.1-1.6.5-3.2,1-4.6,1.8"/>
        <path class="cls-1" d="M341.8,215.6c1.4,0,2.6-1.4,3.9-2-.8.4-4.3,1.3-3.9,2"/>
        <path class="cls-1" d="M342.6,214.3c0,0,0,.2.1.2,1-.4,1.6-1,2.5-1.5-.9.4-1.9.7-2.6,1.3"/>
        <path class="cls-1" d="M343.2,213.4c.5,0,1-.6,1.5-.8-.5.2-1.3.4-1.5.8"/>
        <path class="cls-1" d="M345.2,222.1c1.9.8,3.9,1.9,6,2.4.3,0,.5-.3.4-.5-1.7-1.1-4.3-1.2-6.4-1.9"/>
        <path class="cls-1" d="M346.9,221.9c1.3.4,4,2,4.8,1.4-.8-1-3.4-.9-4.8-1.4"/>
        <path class="cls-1" d="M347.7,221.5c1.2.2,3.2,1.3,4.1.8-.5-.7-3-.6-4.1-.8"/>
        <path class="cls-1" d="M348,221.1c1,0,3.7.9,4.3.3-1-.6-2.9-.2-4.3-.3"/>
        <path class="cls-1" d="M348.6,220.7c.8,0,3,.3,3.4-.2-.5-.5-2.5.2-3.4.2"/>
        <path class="cls-1" d="M349.4,220.2c.8-.1,3-.2,3.3-.7-.8-.3-2.4.6-3.3.7"/>
        <path class="cls-1" d="M442.5,281.1c-12.6-20.1-37.7-33-64.2-36.9,24.2,6.7,46.3,18.9,61.7,35.2,1.6,1.8,3.4,3.8,4.8,5.5-.7-1.3-1.5-2.5-2.3-3.8"/>
        <path class="cls-1" d="M394.5,245c12.7,4.6,25.3,11.3,35.2,18.6-7.3-9-26.7-18.3-35.2-18.6"/>
        <path class="cls-1" d="M625.8,253.4c15.5,18.7,22.1,41.2,24.5,63.6.3,2.7.4,5.9.4,8.4.3-1.7.5-3.4.7-5.1,2.4-23.9-5.7-49.2-25.6-67"/>
      </g>
    </g>
  </g>
</svg>