<?xml version="1.0" encoding="UTF-8"?>
<svg xmlns="http://www.w3.org/2000/svg" version="1.1" viewBox="0 0 1920 1080">
  <defs>
    <style>
      .cls-1 {
        fill: none;
        stroke: red;
        stroke-linecap: round;
        stroke-miterlimit: 10;
        stroke-width: 1.1px;
      }
    </style>
  </defs>
  <!-- Generator: Adobe Illustrator 28.6.0, SVG Export Plug-In . SVG Version: 1.2.0 Build 709)  -->
  <g>
    <g id="Capa_1">
      <g>
        <g>
          <path class="cls-1" d="M158.6,700.9c25.8-74.2,87.4-114,146.3-115.3,58.9-1.3,115.7,29.6,168.7,65.6,102,69.2,196.7,158.8,301.5,219.4,104.7,60.6,224.9,90.4,331,34.7"/>
          <path class="cls-1" d="M122.9,745.5c-23.4,9-45.2,25.7-63.3,48.3-8.3,10.4-16.4,24.6-14.3,39.9,2.3,16.3,15.8,25.6,27.6,23.8,11.8-1.7,22.2-11.4,31.9-20.8.2,15.6.4,32,5.9,45.7,5.4,13.7,17.8,23.3,28,16.9,9.5-6,13-22.3,14.3-36.8,3.8-40.4,0-82.1-11.1-119.8-9.3-5.1-20.7-1.6-27.6,8.6"/>
          <path class="cls-1" d="M445.6,832.2c-23.5-8.3-48.4-8.9-72-1.7-10.9,3.3-22.9,10-26.5,24.8-3.8,15.7,4.7,33.1,15.6,39.8,10.9,6.7,23.3,5.4,35.1,4-5.4,13.7-10.9,28.1-11,43.8,0,15.6,7.3,32.6,18.4,34,10.4,1.4,19.2-10.5,25.5-22.1,17.5-32.5,28.9-71.5,32.6-111.8-6.3-10.9-17.5-15.7-27-11.5"/>
          <path class="cls-1" d="M376,338.3c13-28.6,21.2-61.5,23.8-95.2,1.2-15.5.4-33.6-8.5-43-9.5-10-24-4.1-31.9,8.2-7.9,12.4-11,29.3-13.7,45.4-7.6-11.5-15.7-23.3-26.2-28.4-10.6-5-24.4-.5-28.9,13.8-4.2,13.4,1.1,28.8,7,40.8,16.5,33.5,39.4,60.8,65.6,78.5,9.4-4.9,16.1-18.3,16.3-32.3"/>
          <path class="cls-1" d="M974.4,653c18.8-21.4,34-49,44-79.8,4.6-14.2,7.9-31.7,1.6-44.6-6.7-13.7-21.8-14.5-32.1-6.3-10.3,8.2-17,22.9-23.3,37-4.6-14.2-9.6-29.1-18.5-38.5-8.9-9.4-23-11.3-30.5.3-7,10.9-5.5,27.8-2.5,41.8,8.1,39.1,23.7,75.1,44.6,103.4,10-.5,19.4-10.2,22.7-23.4"/>
          <path class="cls-1" d="M754.4,858.2c-69.4-34.6-185.9-61-258.1-40.4"/>
          <path class="cls-1" d="M551.4,706.2c-88.8-47.5-158.3-160.2-178.9-290.2"/>
          <path class="cls-1" d="M892.7,923.7c-46.6-17.7-90.6-60.5-108.2-123.5-17.6-62.9-1.4-145.3,42-174.8"/>
          <path class="cls-1" d="M904,785.3s2.7,0,1.9,0c.8,0-1.9,0-1.9,0"/>
          <path class="cls-1" d="M939.4,883c-1.3-1.8-2.6-3.6-3.9-5.4"/>
          <path class="cls-1" d="M872.4,851.5h0"/>
          <path class="cls-1" d="M935.5,829.5h0"/>
          <path class="cls-1" d="M241.7,498.3h0"/>
          <path class="cls-1" d="M193.1,545.6c-3.9,1.8-7.8,3.6-11.7,5.5"/>
          <path class="cls-1" d="M165.9,447.6c1.3-1.8,2.6-3.6,3.9-5.5"/>
          <path class="cls-1" d="M189.2,491.2c1.3-1.8,2.6-3.6,3.9-5.5"/>
          <path class="cls-1" d="M241.7,410h0"/>
          <path class="cls-1" d="M273.2,476.2h0"/>
        </g>
        <g>
          <path class="cls-1" d="M1788.4,700.9c-25.8-74.2-87.4-114-146.3-115.3-58.9-1.3-115.7,29.6-168.7,65.6-102,69.2-196.7,158.8-301.5,219.4-104.7,60.6-224.9,90.4-331,34.7"/>
          <path class="cls-1" d="M1824.1,745.5c23.4,9,45.2,25.7,63.3,48.3,8.3,10.4,16.4,24.6,14.3,39.9-2.3,16.3-15.8,25.6-27.6,23.8-11.8-1.7-22.2-11.4-31.9-20.8-.2,15.6-.4,32-5.9,45.7-5.4,13.7-17.8,23.3-28,16.9-9.5-6-13-22.3-14.3-36.8-3.8-40.4,0-82.1,11.1-119.8,9.3-5.1,20.7-1.6,27.6,8.6"/>
          <path class="cls-1" d="M1501.4,832.2c23.5-8.3,48.4-8.9,72-1.7,10.9,3.3,22.9,10,26.5,24.8,3.8,15.7-4.7,33.1-15.6,39.8-10.9,6.7-23.3,5.4-35.1,4,5.4,13.7,10.9,28.1,11,43.8,0,15.6-7.3,32.6-18.4,34-10.4,1.4-19.2-10.5-25.5-22.1-17.5-32.5-28.9-71.5-32.6-111.8,6.3-10.9,17.5-15.7,27-11.5"/>
          <path class="cls-1" d="M1571,338.3c-13-28.6-21.2-61.5-23.8-95.2-1.2-15.5-.4-33.6,8.5-43,9.5-10,24-4.1,31.9,8.2,7.9,12.4,11,29.3,13.7,45.4,7.6-11.5,15.7-23.3,26.2-28.4,10.6-5,24.4-.5,28.9,13.8,4.2,13.4-1.1,28.8-7,40.8-16.5,33.5-39.4,60.8-65.6,78.5-9.4-4.9-16.1-18.3-16.3-32.3"/>
          <path class="cls-1" d="M1192.6,858.2c69.4-34.6,185.9-61,258.1-40.4"/>
          <path class="cls-1" d="M1395.6,706.2c88.8-47.5,158.3-160.2,178.9-290.2"/>
          <path class="cls-1" d="M1054.3,923.7c46.6-17.7,90.6-60.5,108.2-123.5,17.6-62.9,1.4-145.3-42-174.8"/>
          <path class="cls-1" d="M1045.9,785.3s-5.6,0-4.8,0c-.8,0,4.8,0,4.8,0"/>
          <path class="cls-1" d="M1007.6,883c1.3-1.8,2.6-3.6,3.9-5.4"/>
          <path class="cls-1" d="M1077.4,851.5h0"/>
          <path class="cls-1" d="M998.6,829.5h0"/>
          <path class="cls-1" d="M1708.2,498.3h0"/>
          <path class="cls-1" d="M1753.9,545.6c3.9,1.8,7.8,3.6,11.7,5.5"/>
          <path class="cls-1" d="M1781.1,447.6c-1.3-1.8-2.6-3.6-3.9-5.5"/>
          <path class="cls-1" d="M1757.8,491.2c-1.3-1.8-2.6-3.6-3.9-5.5"/>
          <path class="cls-1" d="M1708.2,410h0"/>
          <path class="cls-1" d="M1676.6,476.2h0"/>
        </g>
      </g>
    </g>
  </g>
</svg>