<?xml version="1.0" encoding="UTF-8"?>
<svg xmlns="http://www.w3.org/2000/svg" version="1.1" viewBox="0 0 1920 1080">
  <defs>
    <style>
      .cls-1 {
        fill: #fff;
        stroke: #fff;
        stroke-miterlimit: 10;
      }
    </style>
  </defs>
  <!-- Generator: Adobe Illustrator 28.6.0, SVG Export Plug-In . SVG Version: 1.2.0 Build 709)  -->
  <g>
    <g id="Capa_1">
      <g id="Capa_1-2" data-name="Capa_1">
        <path class="cls-1" d="M1521.3,562.9c-46-91.4-127.1-158.4-224.6-201.6,17.7-54-45.8-110-103.6-120.6-6.3-1.2-12.2,2.4-12.4,8-.9,29.6,9.3,58,28.5,81.3-37.3-10.5-75.8-18-115.1-22.5,1.8-1.7,2.8-4.1,1.6-7.1-23.4-59.6-104.3-91.7-173.7-71.2-5.8,1.7-9.1,7.3-5.8,12,17.5,25.2,40.9,46.2,68.6,61.5-22.9.6-45.8,2.2-68.5,4.8-42.4-39.2-109.6-67.5-169.9-42.1-5.2,2.2-5.6,8.6-1.8,11.8,23.7,20.5,53.2,36.8,85.2,45.7-29.3,7.1-57.5,15.8-84.2,26.3,0-.3,0-.6-.3-.9-31.7-56.9-118.1-63.9-167.3-19.3-4.1,3.7-3.1,9.3,1.8,12,35.9,19.9,77.8,30.5,120.3,28-31.5,15.5-60.4,33.5-86.5,53.7-50.4-37.8-128.2-23.2-161.8,25.9-3.5,5.2,1,11.5,7.9,11.6,26.4.4,69.6,13,102.6,9-16.1,17.2-30.5,35.6-43,55-62.3-19.1-127.8,16.9-133.5,74.2-.4,4.2,4.3,7,8.6,7.3,40,2.9,77.2-11.8,100.5-37.4-13.7,30.3-23.2,62.4-27.7,96.3-.2-.2-.4-.5-.7-.7-.2-1.5-1-3-2.9-3.5-30-8.3-60,4.5-78.4,25-10.9,12.1-17.9,26.3-23.7,40.6-3.1,7.7-10.4,20.5-1.1,27.6,16.2,12.2,57.2-9.9,70.4-18,12.3-7.7,24-17.6,33.2-28.9-.3,20.1,1.1,40.8,4.3,61.9,0,.2.1.3.2.4-43.6,11.3-100.5,55.9-62.4,94.9,12,12.2,32.3,19.1,50.4,12.6,15.3-5.5,22.9-17.6,27.2-30.6,7.7,30.1,57.4,40,75.1,7.6,21.6-39.7-31.8-70.8-69.4-81.1-9.3-2.6-15.3,9.7-6.6,13.3,20.3,8.7,44.6,14.2,56.9,31.9,7.2,10.4,10.2,26.7-1.2,36.1-17.4,14.3-44.5,1-45.4-17.6-.1-3-3-4.4-5.6-4.2.2-.9.4-1.9.6-2.8,1.7-8.8-13.9-12.5-15.8-3.7-2.3,10.6-4.7,25.8-15,33.1-20.3,14.6-44.1-4.6-43.5-22.8.9-32,39.9-44.6,64.9-61.8,2.4-.7,4.2-2.5,4-5.5-1.2-16.7-1.6-33.3-1.1-50,14.4,29.9,51.6,52.3,90.4,52.6,5.2,0,8.7-3.6,9-7.7,3.6-46.7-37.5-96-94.1-101.8,3.9-24,10-47.6,18.7-70.5,6.1,30.1,31,57.5,67.1,66.2,5.4,1.3,9.5-2.2,10-6.5,4.8-38.7,8.1-102-47.4-117.2-.4,0-.8,0-1.2,0,10.5-17,22.5-33.5,36.7-49.4,5.2-5.8,10.6-11.2,16.1-16.6-1.6,6.3-2.6,12.3-3.2,16.5-5,30.7-2.5,62.5,25.9,84.5,3.2,2.5,9.6,3.4,12.7,0,35.5-38.5,46-97.5,10.5-138.7,18.1-12.7,37.5-24.2,57.7-34.4-13.3,29.3-9.9,64.5,7.8,91.8,2.8,4.4,9.4,4.4,13.4,1.5,24.9-17.7,42.5-41.3,49-68.4,3.1-13,9.4-42.8-6.3-52.3,35-12.6,71.7-22.3,108.7-29.5-21.7,14.9-38.2,33.8-47.8,57.3-6.2,15-19.4,51,8.9,55.6,26.2,4.4,63.8-28.9,78.9-43.6,23-22.6,35.7-50.6,32-80,31.3-3.1,62.4-4,93-3.1-17.1,5.7-32.3,15.5-43.4,28.1-11.9,13.3-30.9,46.8-17,63.4,6.7,8,15.4,4.8,24.6,1.8,18.5-6,37.1-12.6,53.9-21.6,26.3-14.1,51.7-36.9,53.3-64.6,0-.5,0-1-.2-1.5,48.2,6.3,94.7,17.7,138.8,33.7-50-3.1-98.1,20.2-122.9,57.3-2.6,3.9-.5,10.5,5.4,11.2,58.5,7.8,144,10.5,162.3-50.5,91.2,41.5,169.4,104.6,225.7,186.8,4.9,7.2,16.4.9,12.8-6.4h-.1ZM488.4,677.3c42.4,11.2,74.1,39.5,74.9,78.1-42.1-4.5-70.3-35.4-74.3-70.2,8.8,14.6,22.2,27.5,35.3,39.6,5.7,5.3,15.2-2.7,9.3-7.9-13.8-12.2-26.4-25.9-41.3-36.9-1.3-.9-2.7-.8-3.7-.2,0-.8-.1-1.7-.1-2.5h0ZM466.4,671.6c0,.6-.2,1.2-.2,1.8-17.7,31.7-41.4,56.3-83.3,66.5-8.7,2.1-7.1,3-8.1-1-.7-2.7,3.4-9.3,4.5-11.9,4.1-10.3,9-20.3,15.9-29.5,13.1-17.5,33.4-29.4,57.5-29.8-13.3,8.4-24.8,20-32.7,31.9-2.4,3.6,4,6.8,6.5,3.2,10.1-14.1,22.9-22.9,39.5-30.8.3,0,.4-.3.6-.4h-.2ZM499.1,532c-23.5,1.1-49.4,18.3-64.5,31.9-3.9,3.5,1.8,7.9,6,5.1,9.9-6.6,20.7-12.4,32.2-16.9,7.4-2.9,15.6-4.5,23.4-6.8-17.2,29.3-52.7,46.9-91.2,46.2,11.3-38.2,49.6-61.3,94.2-59.5h-.1ZM530,544.3c39.9,25.6,42.4,58.6,38.2,96.7-36.3-16.4-54.7-50.1-47.2-84.1,8.6,11.3,15.5,23.1,21.1,36.2,2.9,6.9,15.8,4,13-3-5.9-15.1-16.6-29.6-29.9-41.1,1.1-2,2.1-4.1,3.3-6.2.4.5.9,1,1.5,1.4h0ZM597.6,428.2c-20.2,1.9-39.7,3.9-60.4,3.5-6.2,0-7.7,8.3-1.5,9.3,15.9,2.5,33.4,3.5,50.3,2.2-22.8,26.2-73.7,10-110.3,3.7,31.1-33,79.6-37.9,121.8-18.6h.1ZM620.2,439c20.3,37.7,24,77.2-4.8,112.3-12.7-14-16-30.3-15.8-48.5,0-6.6-.4-29.5,5.3-43,1.2,13.7,5.8,28.4,8.2,40.9.8,4.4,9.2,3.3,9-1-.6-16,1.1-35.2-3.5-51.3,2.5-1.9,2.5-5.6-1.6-6.7h-.3c1.2-.9,2.4-1.8,3.5-2.7h0ZM726.4,343.4c-22.4-7-46.6-11-70.2-11.5-4.6,0-5.7,6.1-1.1,6.9,21.5,3.8,41.5,8.8,61.6,15-42.4,2.6-80.8-2.9-117.3-20.7,39.7-28.5,93.8-22.5,127,10.4ZM740,430.9c-6.6,16.1-17.6,29.3-31.6,40.7-14.1-28.4-10.2-56.5,4.4-82.6.4,15.9,2,32,3.6,47.8.4,4.5,7.7,4.5,8.1,0,1.9-19.3,3.8-38.9,3.6-58.3,3.9-1.6,7.7-3.3,11.7-4.8,0,.8-.3,1.6,0,2.3.3.6.5,1.2.8,1.7,1.2,2.8,3.7,4.4,6.9,4.6,5.1,11.1-4.5,41.4-7.5,48.7ZM877,300.9c-17-5.4-34.9-9.8-51.3-14.3-4.1-1.2-6.9,4.4-3,6,16.8,6.7,34.6,14.7,52.5,21-3.2.6-6.3,1.2-9.5,1.8-36.8-6.2-69.7-18.6-98.7-40.9,42.2-12.3,77.1,5.5,110,26.6h0ZM891.8,398.4c-11.7,11.5-33.7,32.1-51,35.6-33.8,6.8-9.3-39.9-1.7-52.5,11.5-18.9,28.3-35.3,48.9-47.5,2.8-.5,5.5-.7,8.3-1.2-4,8.3-7.8,16.6-12.6,24.6-7.3,12-16.2,23.2-24.9,34.4-3.2,4.2,4.2,9,8.1,5.3,19.9-18.3,40-42.9,49.1-67.1,1.2-.2,2.5-.4,3.7-.5,2.5,25.6-8.2,49.2-27.9,68.8h0ZM1070.9,293.3c-18.7-11.8-40.1-23.7-61.9-28-4-.8-8.1,3.8-4.4,6.4,9.7,6.7,21.1,11.5,31.5,17.4,8.6,4.9,16.7,10.1,24.7,15.5-13.8-1-27.6-1.7-41.4-1.9-31.8-14.2-59-34.6-79.5-60.7,52.2-10,105.7,11.5,131,51.3h0ZM1085.9,329c-.3.4-.6.8-.8,1.3-8.2,22.2-20.9,39.2-44,52.4-9.4,5.3-54.5,27.3-59.8,22.5-3.5-3.2,3.4-21.7,5.4-26.3,4.3-10,11.5-19.1,20-26.7,14.1-12.6,31.6-19.7,51.2-22.6-12.7,11.2-25.2,22.8-36.5,34.7-4.5,4.8,2.4,10.9,8.1,6.9,17.3-12.7,34.2-27,49.9-41.3,1,0,2,.2,3,.2,1.5,0,2.5-.5,3.3-1.3h.2v.2ZM1250.5,376c.5,0,.8,0,1.3-.2-18,9-36,18-53.6,27.3-6.9,3.7-.9,12.2,6.3,9.2,19.6-8.3,39-16.9,58.3-25.6-20.4,39.1-78.6,38.3-124.4,33,26.1-31.1,66.4-45.4,112.1-43.7h0ZM1280.1,354.3c-1.2-.5-2.5-.9-3.7-1.4-14-16.2-23.6-33.5-34.8-51.6-2.1-3.4-9.6-2-9,2.1,2.1,13.4,8.1,26.8,15.9,39.2-2-.7-4-1.6-6-2.2-24.3-21.8-39.2-49.8-41.5-80.5,23.4,6.6,43.6,18.9,58,36.3,15.4,18.6,18.2,37,21.2,58.1h0Z"/>
      </g>
    </g>
  </g>
</svg>