<?xml version="1.0" encoding="UTF-8"?>
<svg xmlns="http://www.w3.org/2000/svg" version="1.1" viewBox="0 0 1920 1080">
  <defs>
    <style>
      .cls-1 {
        fill: #fff;
        stroke: #fff;
        stroke-miterlimit: 10;
      }
    </style>
  </defs>
  <!-- Generator: Adobe Illustrator 28.6.0, SVG Export Plug-In . SVG Version: 1.2.0 Build 709)  -->
  <g>
    <g id="Capa_1">
      <path class="cls-1" d="M392.8,591.2c56-87.9,133.7-155.2,224.4-199.5,18.2,65,103.2,62.1,161.4,53.8,5.9-.8,8-7.9,5.4-12-24.6-39.6-72.5-64.5-122.2-61.2,43.8-17.1,90.1-29.3,138-36.1-.1.5-.3,1-.2,1.5,1.5,29.6,26.8,53.8,53,69,16.7,9.7,35.2,16.7,53.6,23.1,9.1,3.2,17.8,6.5,24.4-2,13.9-17.7-5-53.4-16.9-67.7-11.1-13.4-26.2-23.9-43.2-30,30.5-.9,61.3,0,92.5,3.3-3.7,31.6,9,61.3,31.9,85.5,14.9,15.8,52.3,51.2,78.4,46.6,28.2-5.1,15-43.4,8.9-59.4-9.5-25.1-25.9-45.2-47.5-61.2,36.8,7.7,73.3,17.9,108.1,31.4-15.7,10.1-9.4,41.8-6.3,55.8,6.5,29,24,54.1,48.7,73,4,3.1,10.5,3.1,13.4-1.6,17.6-29.2,21-66.8,7.7-98.1,20.1,10.9,39.4,23.2,57.4,36.8-35.3,44-24.9,107.1,10.4,148.2,3.1,3.6,9.4,2.7,12.6,0,28.2-23.5,30.7-57.5,25.7-90.2-.7-4.4-1.6-10.9-3.2-17.6,5.5,5.7,10.9,11.6,16,17.8,14.1,16.8,26.1,34.5,36.5,52.7-.4,0-.7,0-1.2.1-55.2,16.4-52,83.9-47.2,125.3.5,4.5,4.6,8.3,9.9,6.9,35.9-9.3,60.7-38.6,66.8-70.7,8.6,24.5,14.7,49.7,18.6,75.3-56.3,6.1-97.2,58.9-93.6,108.7.3,4.4,3.9,8.2,9,8.2,38.6-.3,75.6-24.3,89.9-56.1.5,17.7.1,35.5-1.1,53.4-.2,3.2,1.6,5.1,4,5.9,24.9,18.4,63.6,31.8,64.6,66,.5,19.4-23.1,39.9-43.3,24.3-10.2-7.9-12.6-24.2-14.9-35.4-1.9-9.4-17.4-5.4-15.7,3.9.2,1,.4,2,.6,3-2.7-.2-5.5,1.3-5.6,4.5-.9,19.8-27.9,34.2-45.2,18.8-11.3-10.1-8.4-27.5-1.2-38.6,12.2-18.9,36.5-24.9,56.6-34.1,8.6-4,2.6-17-6.6-14.3-37.4,11.1-90.5,44.2-69.1,86.6,17.5,34.7,66.9,24.1,74.6-8,4.3,13.8,11.8,26.8,27.1,32.6,18,6.9,38.1-.4,50.1-13.5,37.9-41.5-18.7-89.1-62-101.3,0-.2.1-.3.2-.5,3.2-22.5,4.5-44.6,4.3-66.1,9.1,12,20.8,22.6,33,30.8,13.1,8.8,53.9,32.4,70,19.3,9.2-7.5,2-21.3-1.1-29.4-5.8-15.3-12.8-30.4-23.6-43.3-18.2-21.9-48.1-35.5-77.9-26.7-1.9.6-2.7,2.2-2.9,3.8-.3.2-.5.5-.7.7-4.5-36.2-13.8-70.6-27.5-102.9,23.2,27.4,60.1,43.1,99.9,40,4.3-.3,9-3.3,8.5-7.8-5.6-61.1-70.7-99.6-132.7-79.2-12.3-20.7-26.7-40.3-42.7-58.7,32.8,4.3,75.7-9.2,102-9.6,6.9-.1,11.4-7,7.9-12.5-33.4-52.4-110.7-68.1-160.8-27.7-25.9-21.6-54.7-40.8-86-57.4,42.2,2.6,83.8-8.6,119.6-29.9,4.9-2.9,5.9-8.9,1.8-12.8-49-47.7-134.9-40.2-166.4,20.6-.2.3-.2.6-.3.9-26.5-11.1-54.6-20.4-83.7-28,31.9-9.4,61.2-26.9,84.7-48.8,3.7-3.5,3.4-10.3-1.8-12.6-60-27.1-126.8,3.1-168.9,45-22.5-2.8-45.3-4.5-68.1-5.1,27.5-16.4,50.9-38.8,68.3-65.7,3.3-5.1,0-11-5.7-12.9-69-21.9-149.5,12.4-172.7,76-1.2,3.2-.3,5.8,1.6,7.6-39,4.8-77.4,12.9-114.4,24,19-24.9,29.1-55.4,28.3-86.9-.2-6-6.1-9.8-12.3-8.6-57.5,11.4-120.6,71.1-103,128.8-97,46.2-177.6,117.8-223.3,215.3-3.6,7.7,7.8,14.5,12.8,6.8ZM1407,709.2c-1-.6-2.5-.8-3.7.2-14.9,11.9-27.4,26.4-41.1,39.5-5.8,5.6,3.5,14.1,9.3,8.4,13-12.9,26.4-26.6,35.1-42.3-4,37-32.1,70.1-73.9,74.9.8-41.2,32.3-71.4,74.4-83.4,0,.9-.1,1.8-.1,2.7ZM1429.5,700.9c16.6,8.4,29.3,17.8,39.3,32.9,2.5,3.8,8.8.4,6.5-3.4-7.9-12.7-19.3-25.1-32.6-34,23.9.4,44.1,13.1,57.1,31.8,6.8,9.8,11.7,20.6,15.8,31.5,1.1,2.9,5.1,9.8,4.4,12.8-.9,4.2.6,3.3-8,1-41.6-10.9-65.3-37.3-82.8-71.1,0-.6-.2-1.3-.2-1.9.2.1.3.3.6.4ZM1490.1,615c-38.3.7-73.7-18.1-90.7-49.4,7.7,2.5,15.8,4.1,23.2,7.2,11.4,4.7,22.1,11,32,18,4.2,3,9.8-1.7,6-5.4-15.1-14.5-40.8-32.8-64.2-34,44.4-1.9,82.4,22.7,93.7,63.5ZM1367.2,563.1c1.2,2.2,2.2,4.4,3.3,6.5-13.2,12.3-23.8,27.7-29.8,43.9-2.7,7.5,10,10.5,12.9,3.2,5.6-14,12.4-26.5,21-38.7,7.5,36.4-10.8,72.2-46.9,89.8-4.3-40.7-1.7-76,37.9-103.3.6-.4,1.1-1,1.5-1.5ZM1419.7,460.5c-36.4,6.7-86.9,24-109.6-4,16.8,1.4,34.2.3,50-2.4,6.2-1,4.7-10-1.5-9.8-20.5.4-40-1.6-60-3.7,42-20.7,90.2-15.5,121.1,19.9ZM1279.5,455c-.1,0-.2,0-.3,0-4,1.2-4.1,5.1-1.6,7.1-4.6,17.1-2.9,37.6-3.5,54.7-.1,4.6,8.1,5.8,9,1.1,2.4-13.4,6.9-29,8.1-43.7,5.6,14.5,5.1,38.9,5.2,45.9.3,19.5-3.1,36.9-15.7,51.8-28.7-37.3-24.9-79.6-4.8-119.9,1.2,1,2.3,1.9,3.5,2.9ZM1296.8,339c-36.3,19.1-74.4,24.9-116.6,22.1,20-6.7,39.9-12,61.2-16,4.6-.9,3.5-7.4-1.1-7.3-23.5.5-47.5,4.9-69.8,12.3,33-35.1,86.8-41.5,126.3-11.1ZM1149.4,391.5c3.1-.2,5.6-1.9,6.9-4.9.3-.6.5-1.2.8-1.8.3-.8.1-1.6,0-2.4,3.9,1.6,7.7,3.4,11.6,5.1-.2,20.7,1.7,41.7,3.6,62.3.4,4.7,7.7,4.7,8.1,0,1.6-16.9,3.2-34,3.6-51.1,14.5,27.9,18.4,57.9,4.4,88.2-14-12.2-24.8-26.3-31.5-43.4-3-7.7-12.5-40-7.5-52ZM1130.1,276.3c-28.8,23.8-61.6,37.1-98.2,43.7-3.2-.6-6.3-1.3-9.5-1.9,17.9-6.6,35.5-15.2,52.2-22.4,3.9-1.7,1.2-7.7-3-6.4-16.4,5-34.2,9.6-51,15.4,32.7-22.5,67.4-41.5,109.4-28.3ZM978.2,335.3c1.2.2,2.5.4,3.7.6,9.1,25.9,29,52.1,48.8,71.7,3.9,3.9,11.3-1.2,8.1-5.7-8.7-12.1-17.5-23.9-24.8-36.8-4.8-8.5-8.6-17.5-12.6-26.3,2.7.4,5.5.7,8.2,1.2,20.5,13,37.2,30.5,48.7,50.7,7.6,13.4,31.9,63.2-1.7,56.1-17.2-3.7-39.1-25.7-50.7-38-19.6-20.9-30.3-46.2-27.8-73.4ZM958.1,241.8c-20.4,27.8-47.5,49.6-79.1,64.8-13.7.3-27.5,1-41.2,2,8-5.8,16.1-11.4,24.6-16.6,10.3-6.3,21.7-11.5,31.3-18.6,3.7-2.7-.4-7.6-4.3-6.8-21.7,4.5-42.9,17.2-61.5,29.9,25.1-42.4,78.3-65.4,130.2-54.8ZM813.2,334.6c.8.8,1.8,1.4,3.3,1.3,1,0,2-.2,3-.3,15.6,15.2,32.3,30.5,49.6,44.1,5.6,4.4,12.5-2.2,8-7.3-11.2-12.8-23.7-25.2-36.3-37.1,19.5,3.1,36.9,10.7,50.9,24.1,8.5,8.1,15.7,17.9,19.9,28.5,1.9,4.8,8.9,24.7,5.4,28-5.3,5-50.1-18.4-59.4-24.1-23-14-35.6-32.2-43.8-55.9-.2-.5-.5-.9-.8-1.4,0,0,.1,0,.2,0ZM760.9,431.4c-45.6,5.7-103.5,6.5-123.7-35.2,19.2,9.3,38.5,18.5,58,27.3,7.1,3.3,13.2-5.9,6.3-9.8-17.6-9.9-35.5-19.6-53.3-29.1.4,0,.8.2,1.3.2,45.5-1.8,85.5,13.5,111.5,46.7ZM640.9,299.5c14.3-18.6,34.4-31.8,57.6-38.8-2.3,32.9-17.1,62.7-41.3,86-2,.7-4,1.6-6,2.4,7.7-13.3,13.7-27.6,15.8-41.9.6-4.4-6.8-5.8-8.9-2.2-11.1,19.3-20.6,37.7-34.6,55.1-1.2.5-2.5.9-3.7,1.5,3-22.5,5.7-42.2,21-62.1Z"/>
    </g>
  </g>
</svg>