<?xml version="1.0" encoding="UTF-8"?>
<svg xmlns="http://www.w3.org/2000/svg" version="1.1" viewBox="0 0 1920 1080">
  <defs>
    <style>
      .cls-1 {
        fill: #555769;
      }

      .cls-2 {
        fill: #79483a;
      }
    </style>
  </defs>
  <!-- Generator: Adobe Illustrator 28.7.2, SVG Export Plug-In . SVG Version: 1.2.0 Build 154)  -->
  <g>
    <g id="Capa_1">
      <g>
        <path class="cls-1" d="M1379.4,998.1c-8.1-17.7-16.2-35.4-23.7-53.3-7.5-17.8-14.5-35.8-24.8-53-1.2-2-2.3-4.2-2.7-6.4-.9-5.3-4-10.1-6.8-15-3.2-5.4-5.5-10.9-7.2-16.4,2.3-2.4,4.2-4.6,6.3-6.6,8-8.2,15.1-16.7,18-26.3,3.5-11.4,6.5-22.8,9-34.3,1.2-5.4.1-11-1.7-16.5-1.4-4.3-6.3-7-13.8-6.4-6.2.5-12.3,1.6-18.5,2.4-2.3.3-4.7.4-7,.5-.7-1.2-1.4-2-1.5-2.8-3.2-17.7-12.9-34.3-21.4-51.1-7.2-14.1-16-27.9-22.5-42.2-9.2-20.2-22.5-39.3-34.5-58.7-6.3-10.2-13.7-20.2-20.5-30.3-1.3-1.9-2.3-4-3.5-6.1,4.7-1.6,9-2.8,12.7-4.5,8-3.6,9.7-6.5,6.9-12.7-6.2-14-12.2-28.2-19.4-42-6.6-12.5-14-24.9-22.3-37-19.3-27.9-38.5-55.9-60.3-83-11.7-14.7-23.3-29.4-35.2-44-4.2-5.1-9.2-9.9-13.9-14.9,1.6-2.7,6-4.3,5.4-7.4-1.4-7.6-.7-15.5-7-22,5.1-3.7,10-7.1,14.6-10.6,5.9-4.7,11-9.8,17.3-14.3,23.5-16.8,36.6-37,42.6-59.2,6-22.3,4-44.6-4.1-66.7-4.8-13-13.7-24.9-20.8-37.3-1-1.8-2.3-3.7-4.3-5-4.8-3-6.8-6.9-9.2-10.7-2.1-3.3-4.2-6.7-6.8-9.8-5.4-6.4-7.9-13.3-10-20.4-3.5-11.9-7.2-23.9-10.8-35.8-.4-1.4-1.1-2.7-1.6-4-2.3-5.2-7.1-8.6-15-9.4-9.7,2.4-13,6.6-13,13,.2,12.3,3.6,24.2,9.4,35.7,4.5,8.9,9.5,17.7,14.1,26.6,2.1,4.2,3.9,8.4,6,13-3.3.8-5.9,1.5-8.6,2.1-10.3,2.4-20.8,4.4-30.8,7.2-13.5,3.8-26.8,7.8-39,13.3-16.3,7.4-30.6,16.4-45,25.2-3.1,1.9-5.7,4.1-8.4,6.1-4.3,3.3-8.6,6.6-13.5,10.3-2.2-1.6-3.9-2.8-5.4-4-7.8-6.1-15.4-12.4-24.8-17.6-5.8-3.2-10.9-6.9-16.8-10-9.2-4.8-18.3-9.8-28.5-13.6-19.4-7.2-39.5-13.4-61.2-17-2.8-.5-5.4-1.3-8.5-2,1-2.4,1.6-4.6,2.7-6.6,5.8-11.2,12-22.4,17.6-33.7,5.8-11.6,9-23.5,9.1-35.8,0-6.6-4.5-10.3-13.1-12.3-11,3-13,4.1-15.4,10.9-4.2,12.1-8,24.3-11.5,36.5-2.3,7.9-4.8,15.7-11,22.8-1.7,1.9-2.7,4.1-4.1,6-3.6,4.9-5.9,10.3-12,14.4-2.8,1.9-4,4.8-5.7,7.3-2.5,3.8-4.9,7.6-7.1,11.5-3.1,5.4-6.4,10.8-8.9,16.4-8.2,17.9-11.4,36.2-10,54.9,1.9,25.2,12.3,48.4,35.2,68.9,4.2,3.8,9.1,7.2,13.5,10.9,9.2,7.8,17.6,16,29.2,22.2-7.4,7.5-6.2,15.7-7.4,23.6-.1.7.8,1.6,1.4,2.3,1.2,1.3,2.6,2.6,3.7,3.8-2.3,2.6-4.3,4.7-6.1,6.9-9.5,11.1-19.8,21.8-28.3,33.2-12.6,16.9-27.2,33-38.2,50.5-6.9,11-15.7,21.4-23.4,32.1-13.5,18.7-25.7,37.8-36.5,57.3-2.7,4.9-4.7,10-7,15.1-4.1,9-8,18-12.2,27-2,4.3,0,7.6,5.1,10.3,2.6,1.3,5.6,2.4,8.4,3.5,2,.8,4.1,1.5,6.7,2.4-1.3,2.2-2.2,4-3.3,5.8-7.2,10.6-14.5,21.2-21.5,31.8-3.9,5.8-6.9,11.9-11,17.6-7.6,10.5-13.2,21.5-19,32.5-10.8,20.6-21.2,41.4-32.3,61.9-6.5,12-11.7,24.2-14.8,36.8-.4,1.5-1.3,3-2.1,4.9-2.6-.3-4.6-.5-6.6-.8-5.7-.8-11.4-1.8-17.2-2.3-9.1-.9-13.4,1-15.4,6.9-1,2.9-1.4,6-1.8,9-.8,6.4.9,12.7,2.6,18.9,2,7.3,3.8,14.7,6.3,22,3.7,10.7,11.5,20.2,20.8,29.1,3.2,3,3.6,5.7,2,9.2-4.8,10.6-11.9,20.7-14.7,31.7-.4,1.6-1.7,3.1-2.5,4.7-4.7,9.4-9.6,18.9-14,28.4-3.4,7.4-6.2,14.9-9.4,22.4-4.9,11.4-9.9,22.8-14.9,34.2-2.6,5.8-5.3,11.6-8,17.5-2.9,6.1-4.5,12.3-3.8,18.8.4,4.1,3.6,6.8,9.4,7.9,3.5.6,7.4.7,11.1.5,4.1-.2,8.2-.8,12.2-1.2,7.8,8.3,19.2,9.7,32.1,8.6,2.5-.2,5-.5,7.4-1,13.8-2.5,27.4-5.3,38-12.9,3.1,3.1,6,5.7,8.7,8.5,3,3.2,7.2,5.4,12.4,6.8,14.7,4,28.6,3.1,41.7-3,2.3-1.1,4.5-2.2,6.9-3.4,2.8,2.4,5,4.4,7.5,6.2,2.3,1.6,4.6,3.3,7.5,4.3,10.7,3.5,21.7,5.5,34,3.3,8.3-1.4,15.8-3.6,22.6-6.9,2.9-1.4,5.3-3.6,10.1-3.6,0,0,.2.2.3.2-.4.9.7,2,2.2,1.8,1.7,1.4,3.4,2.8,5.3,4.1,4.5,3.3,9.7,6.1,16.4,7.4,20,3.9,38.9,2.8,56.5-5,3.1-1.3,6.2-2.6,9.9-4.1,2.2,2.1,4.1,3.9,5.9,5.7,5.5,5.3,19.2,9.7,31.3,6.4,5.4-1.5,10.5-3.4,15.6-5.3,2.5-.9,4.7-2.1,6.8-3,1,.3,1.5.4,1.7.6,1,.9,2,1.8,3,2.7,6.7,6.2,16,7.8,26.6,5.8,5.5-1.1,10.3-1,15.8,0,10.6,2,19.9.3,26.5-5.9,1.2-1.1,2.4-2.1,4-3.5,2.9,1.3,5.1,2.5,7.5,3.4,4.7,1.8,9.4,3.7,14.4,5,12.2,3.1,24.6.5,32.4-6.3,2-1.7,3.8-3.5,5.9-5.5,2.4.9,4.4,1.4,5.8,2.3,9.9,5.8,22.1,8,34.7,8.7,17.5,1,33.4-1.5,44.8-11.4,1.7-1.5,3.7-2.9,5.3-4.3,5.2.3,7.9,2.7,11.1,4.3,8.3,4.2,17.7,6.5,27.8,7,14.9.7,28.2-1.9,37.7-10.3,1.6-1.4,2.5-3.6,6.5-3.7,2,1.1,4.1,2.4,6.5,3.6,15.5,7.4,44.3,6.9,55.2-6.6,1.7-2.1,4.1-4,6.4-6.2,13.5,8.7,29.8,12.1,47,13.8,11.9,1.2,22.5-.6,29.7-7.8.4-.4,1.4-.5,2.6-.8,2.9.4,6.2.7,9.5,1.2,9.2,1.4,16.4-.5,21.3-5.9v-11.6c-3.9-2.7-2.1-6.3-3.6-9.5ZM1313.8,773.9c6.1-1.6,13-1.9,19.2-2.8,4.2,2.8,4,5.9,4.5,8.9.8,5.9-1.2,11.6-2.7,17.3-2.5,9.5-4.2,19.1-9.2,28.3-4.8,8.7-12.2,16.3-21,23.4-1,.8-2.4,1.5-3.7,2.2-.6.3-1.5.4-2.8.7-7.9-2.5-13.6-7-19.2-11.4-4.9-3.9-9.6-7.9-14.3-12,2.9-1.9,5.8-3.8,8.7-5.7,1.4-.9-.8-2.3-2.1-1.4-2.8,1.9-5.6,3.7-8.4,5.6-.6-.6-1.3-1.1-1.9-1.7,6-4.2,11.6-8.6,17.2-13,1.3-1-.9-2.4-2.1-1.4-5.5,4.4-11,8.7-16.6,13.1,0,0,0,0,0,0,3.1-2.7,5.4-5.9,8.5-8.6,4.6-4,9.8-7.8,14.8-11.7.8-.6-.6-1.6-1.4-.9-5.1,3.8-10.4,7.5-15.2,11.5-3.2,2.6-5.4,5.6-8,8.4-.9-.8-1.7-1.7-2.9-3,9.2-4.9,14.6-10.7,16.4-17.3,6.6-5.8,13.2-11.6,19.2-17.6.7-.7-1-1.4-1.7-.7-5.2,5.3-11.1,10.3-17,15.3.4-4-.3-8.2-2.4-12.9,15.2-4.3,29.6-8.7,44.3-12.6ZM1236.2,851.4c2.7,9.5,4.9,19,7.5,29.1-7,1.6-13.9.7-21.3.6-1-1.9-2.3-3.7-2.7-5.5-1-5.2-1.8-10.4-2.1-15.7-.7-12.4-1.1-24.9-1.5-37.3,0-1.1.6-2.1,1-3.6,6.3,1.1,12.3,2.2,18.8,3.3.1,9.8-2.5,19.4.3,29ZM1210.9,800.9c.4-.6.9-1.1,1.3-1.7.3,1.5,3.1,2.7,4.9,1.2,2.6-2.1,5.3-4.2,7.9-6.3,2.4-1.9-1.8-4.7-4.2-2.8-2.3,1.8-4.6,3.7-6.9,5.5,4.2-5.7,8.2-11.4,12.7-16.9,1.4-1.8-2.7-3.3-4.1-1.6-4.7,5.9-9.2,11.9-13.3,18,0-.1,0-.2-.1-.3-.2-1-.3-2-.3-3,.9-1.2,1.7-2.3,2.2-3.2,2.4-4,5.2-7.9,8.4-11.6,9.3-3.1,21.7-3.9,31.5,3.3,6.9,5,12.2,10.5,11.4,17.5,1.2,6.3-6.8,12.1-15.1,13.5-17.1,2.8-31.1-1.8-36.4-11.7ZM1187.4,779.4c-7.4,9.4-15.1,18.7-20.8,28.7,0,0,0,0,0,0-5.6.4-11.2.9-16.8,1.6-5.4.8-10.9.3-15.5-2.8-.4-4.6.3-9.2,2.5-13.7,3.7-7.6,8.3-15.1,12.1-22.7,3.5-6.9,8.8-13.2,15.2-19,6.7-6,13.1-12.1,18.2-18.8,1-1.4,2.9-2.5,4.9-4.2,12,11.7,15.3,24.8,20.8,37.5-1.2-.4-2.6-.3-3.3.7-5.2,6.9-10.8,13.6-15.3,20.7-4.2,6.6-4.8,13.1-7.5,19.8-3.3.2-6.6.3-9.9.5,5.7-9.2,12.9-17.9,19.8-26.7,1.5-1.9-2.9-3.7-4.5-1.7ZM1100.8,788.7c-4.5,3.7-8.9,7.5-13.4,11.2-3.3-.8-6.3-2-9.4-3.2,2.3-2,4.6-3.9,6.9-5.9,2.1-1.8-1.7-3.8-3.8-1.9-2.4,2.1-4.8,4.2-7.3,6.2-.2,0-.3-.1-.5-.2-1.8-.7-3.1-1.8-4.9-2.6-5.4-2.5-9.4-1.6-11.7,2.4-.3.5-.5,1.1-.6,1.6-1.2,5.4-7.7,7.6-14.8,7.3,12-7.9,22.5-16.7,32.8-25.6,1.9-1.6-2.3-3.2-4.2-1.6-10.6,9.2-21.6,18.2-33.8,26.5-4.1-.7-8.2-1.6-11.8-3.2,12.4-9.1,24.7-18.3,36.4-27.9,1.7-1.4-1.3-3.4-3-2-11.9,9.6-24.4,18.8-36.5,28.3,0,0-.2,0-.3-.1-2.4-1.5-5.2-2.9-8-4-2.3-.9-4.6-1.2-6.7-.8,10.8-6.8,21-13.8,30.8-21.3,2-1.5-1.3-3.7-3.3-2.2-15.8,11.9-32.7,23.1-50.5,33.7,0,0,0,0,0,0-6.3.6-13-.3-17.3-2.6-3.3-1.7-6.1-3.8-9.4-5.5-2-1-4-1.5-5.9-1.4,4.7-1.9,9.4-3.8,14-5.7,1.5-.6,0-2.2-1.4-1.5-11.6,5.1-23.5,10-35.3,15-2.2-.5-4.3-1.3-5.9-2.5-.3-.2-.4-.5-.6-.7-.9-.8-1.7-1.4-2.4-2,23.2-7,46.8-13.3,70.9-19.2,2.6-.6,1.6-3.3-1.2-2.7-25.5,4.9-49.8,11.9-73.5,19.7-3.1-1.1-6,0-11.5,3.4-.7.4-1.4.8-2,1.2-4.2,1.5-8.4,2.9-12.6,4.4-1.7.2-3.4.3-5.3.3-5.3-.2-9.9-1.1-13.8-3.1,31.8-11,63.9-21.3,97.5-29.9,1.7-.4,1-2.3-.8-1.9-34.5,7.3-66.3,19.3-97.9,31-.9-.5-1.7-1-2.5-1.6-1.9-1.5-3.4-2.6-4.9-3.5,31.1-10.3,62.3-20.3,93.7-30.3,1.5-.5.4-2.2-1.2-1.8-33.4,8.8-64.6,19.6-96.1,30.6-3.4-.8-6.8.5-13,3.8-5.3,2.9-11.2,4.8-17.7,6-9.5,1.8-18.3-.7-19.4-6.8-.1-.8-.6-1.6-1.1-2.4-.6-.9-1.4-1.6-2.3-2.1,2.1-.8,4.2-1.7,6.3-2.5.5.3,1.2.4,1.7,0,.9-.6,1.9-1.2,2.8-1.8,16.9-6.6,33.6-13.4,49.7-20.8,2-.9.1-3.2-2-2.2-9.7,4.3-19.6,8.3-29.6,12.3,15.8-8.8,32.4-17,47.5-26.3,1.1-.7-.4-2-1.7-1.4-21.2,9.8-41,21.3-59.6,33.2-13.1,5.2-26.3,10.3-39.3,15.5-.9.4-1.1.9-1,1.4-.5.2-1.1.4-1.6.5-11.1,2.9-21.3,2.1-30-3.9-2.4-1.7-3.6-2.5-4.6-3.7,7.2-4.5,14.6-8.9,22.2-13.2,6.6-3,12.8-6.4,18.9-9.9,1.7-1,3.3-2,5-3,11.3-5.9,22.8-11.6,34.5-17.3,1.7-.8.2-2.7-1.7-1.9-4,1.7-8,3.4-12,5.2,8.7-6.7,16.6-13.8,24-21.2,9-9,18.1-17.9,26.6-27.1,14.4-15.6,26.5-32,37-48.9,5.1-8.2,10.3-16.3,14.5-24.7,6.2-12.3,11.6-24.8,17.3-37.2.5-1,.8-2.1,1.6-3.9,1.6,1.1,3,1.6,3.4,2.4,6.2,13.5,11.6,27.1,18.6,40.4,7.4,14.1,15.9,27.9,26,41.3,9.9,13.1,19.6,26.3,32.1,38.5,11.9,11.7,23.2,23.7,36.1,34.9,14.8,12.8,32.8,23.6,52.8,32.9,3.4,1.6,7.4,2.6,11,3.9,4.3,1.5,9.2,2.6,13.3,5.2-3,5.3-8.9,8.7-15.8,11.3-5.3,2-11.1,2-16.7,1.1,4-3.4,8-6.8,12-10.2,1.7-1.4-1.3-3.4-3-2ZM944.4,796.7c-.9.8-1.4,1.9-2.4,2.7-2.8,2.2-7.1,3.2-11.3,2.9,4.6-1.8,9.1-3.7,13.7-5.5ZM657.8,813.3c2.7,1.7,4.4,2.3,5.1,3.3,3.3,4.5,7.2,8.6,11.7,12.6-.2,0-.3.1-.4.2-2.1,1-.1,3.2,2,2.3.3-.1.6-.3,1-.4,3.4,2.8,6.9,5.5,10.8,8.1,6.4,4.3,12.1,9.1,19.3,14.5-6.5,3.1-11.8,5.7-17.4,8.2-3.9,1.7-7.8,1.5-11.5-.6-6.4-3.5-12.9-7-20.1-10.8.1-11.7,2.9-23.8-.3-37.3ZM674.9,817.7c1.4-1.8,3.8-1.3,5.6-1.2,7,.3,14,.7,21,1.2-6.3,2.3-12.3,4.9-18.3,7.6-2.3-1.8-4.6-3.7-7-5.5-.7-.6-1-1.4-1.4-2.1ZM694.2,833.6c-2.8-2-5.5-4.1-8.2-6.2,7.6-3.2,15.4-6.3,23.2-9.2,5.6.4,11.2.6,16.7,0-10.8,5-21.6,9.9-31.6,15.6,0,0-.1,0-.2-.1ZM712.9,809.7c-1.3-.1-2.6-.2-3.9-.3.6-.9,1.2-1.9,1.7-2.8.3-.6-1.1-.8-1.4-.3-.6,1-1.4,1.9-2.1,2.9-7.5-.6-15-1.3-22.6-1.7.5-2,1.1-4,1.8-6,.2.4.6.7,1.4.7,2.1,0,2.1-2.1,0-2.1s-.7.1-.9.3c.8-2.1,1.7-4.2,2.8-6.2,1.4-2.5,3.8-4.9,3.4-7.7,0-.5-1.1-.5-1.1,0-.3,3-4.1,6.1-5.6,9-2,3.8-4.2,7.7-4.5,11.8-5.5-.4-10.7-1.2-16.6-3.8,1.1-3.7,2.2-7.4,2.5-10.9,4.3-8.6,9-17.1,13.3-25.7.5-1.1-1.9-1.5-2.5-.5-3.4,6.1-7.8,12.4-11.3,18.8-.4-1.6-1.1-3.1-2.1-4.5,4.2-9,8.6-17.7,15.1-26.5.3-.4-.6-.7-.9-.3-5.4,7.4-12.8,15.4-16.9,23.7-1.4-1.4-3.2-2.7-5.4-3.9,3.4-4.9,7-9.8,10.4-14.7,3-4.3,7.1-8.5,6.8-13.3,0-.7-1.6-.7-1.6,0-.7,6.4-9.2,14.2-13.4,20-1.6,2.2-3.4,4.4-4.9,6.7-.3-.1-.6-.3-.9-.4,6.2-12,8.4-24.1,16.5-35.2,2-2.7,3.6-5.4,6.7-7.7,3.7,1.5,5.1,3.7,6.8,5.8-3.5,1.7-7,3.5-10.4,5.2-.8.4,0,1.4.8.9,3.5-1.7,7-3.4,10.5-5,3.3,3.5,6.1,7.3,9.9,10.5,11,9.3,19,19.5,24.7,30.6,2.8,5.5,6,10.9,8.4,16.5,1.6,3.7,2,7.6,2.7,11.4.3,1.8-1.2,3.1-3.8,3.9-4.4,1.4-8.9,1.3-13.5.9ZM628.3,822.4c6.4-1.2,12.4-2.2,18.3-3.3,3.4,10.7.5,50.8-4.3,61.1-3.3,1.7-7.2,1-10.8,1.1-3.3,0-6.6-.2-10.8-.3,1.5-10.2,5-19.8,7.4-29.5,2.4-9.7-.2-19.3.2-29ZM611.6,811.2c-.7-.2-1.4-.4-2-.7.3-.1.6-.3.7-.6,3-4.8,6.5-9.5,9.7-14.2,1.2-1.8-2.8-3.4-4.1-1.6-3.3,4.9-6.5,9.7-9.2,14.7-.2-.2-.5-.4-.7-.6.4-.2.7-.4.8-.8,1.6-10.3,6.4-19.8,12.8-29.1.4-.2.8-.4,1.3-.6,9.2-3.9,25.5-.9,31.8,4.5,1,.9,1.9,1.9,2.2,2.9,2.1,6.7,1.8,13.3-4,19.1-10.6,10.7-23.4,11.1-39.3,6.9ZM618,829.8c-3.8,2.4-7.7,4.9-11.5,7.3,3.3-2.7,6.7-5.3,10.1-7.7.6.1,1,.2,1.4.4ZM824.7,502.2c-14.7,21.3-30.7,42.3-41.9,64.5-.6-5.3-1-10.6-1.4-15.9,3.2-3.4,6.3-11.2,7.6-13.2,3.4-5.3,7.5-10.5,11-15.7,7.9-11.8,16.2-23.1,25.5-34.4.3-.4,0-.8-.3-1,14,4.3,26.6,9.8,36.6,17.8,10.4,8.3,21,16.5,32.1,25.1-3.1,3.2-5.5,5.8-8.2,8.6-8.6-3.5-16.8-6.7-24.9-10.1-4.5-1.8-9.3-2.5-14.4-1.9-2.1.3-4.3.8-4.4,2.4,0,1,.7,2.3,1.8,2.9,5.1,2.4,10.3,4.7,15.7,6.9,7.1,2.9,14.4,5.6,22.1,8.7v4.8c-.7.4-1.6,1.1-2.6,1.4-10.9,3.6-21.6,7.4-30.7,12.9-2.8,1.7-5.3,3.5-7.8,5.4-.8.6-1,1.4-1.7,2.7,17.1.5,28.6-7.5,43.1-11.4,3.6,3,4.4,6.6,7.2,10-2.8,2.1-5.1,4.4-8.2,6.2-18.9,11.3-38.1,22.4-60.8,30.6-7,2.5-13,3.3-18,2.4,1-.6,1.8-1.1,2.7-1.8,1-.7-.4-2.1-1.7-1.4-1.5.8-3.1,1.5-4.8,2.2-.8-.3-1.6-.6-2.4-1,2.3-3.7,6-7.2,9.7-10.5-.5.9-.9,1.7-1.3,2.6-.5.8,1.6,1.4,2.1.6,1.8-2.8,3.4-5.6,4.8-8.4.1-.1.3-.3.4-.4,6.5-6.7,12.6-13.6,19-20.3,1.1-1.2-1.7-2.3-2.8-1.1-5.3,5.4-10.5,10.9-15.8,16.3-.8,0-1.6,0-1.8.7-.2.6-.5,1.3-.8,1.9-1.6,1.5-3,3.1-4.6,4.7-3.9,3.8-9.1,7.4-11.8,11.7-2-1.9-3.5-4.4-4.6-7.4-1.7-4.8-3-9.8-3.5-14.7-.5-5.4-1.1-10.7-1.6-16.1.5,0,1-.1,1.2-.5,13.5-22.2,28.3-43.9,42.9-65.7.7-1.1-1.7-2.1-2.4-1ZM808.6,485.4c-9.4,11.9-17.6,24.2-26.4,36.3,1.1-9.6,3.1-19.1,6.7-28.5.5-1.3,1.2-2.6,2-3.9,2.6-4.3,7.1-6.5,14.5-6.2,6,.2,11.7,1.1,17,2.6.7.2,1.3.4,2,.6-.4,0-.9,0-1.2.4-10.9,12.8-19.9,25.9-29.7,39-3.4,4.6-8.7,10.4-12.4,16.1,0-3.6,0-7.2.2-10.9,0-1.5.3-3,.4-4.5,11.4-12.7,19.5-26.8,29.8-39.8,1-1.3-2-2.5-3-1.2ZM814.6,620.9c3.9-1,8.1-1.6,11.7-3,16.9-6.6,34-13.1,47.8-22.7,4.9-3.4,10.9-6,17.6-9.6-1.7,7.6-5.5,13.6-9.2,19.7-4.5,7.4-9.7,14.7-13.8,22.2-7.2,13.1-17.2,25.2-27.9,37.1-8.8,9.7-17.8,19.4-27.2,28.9-3.2,3.2-6.6,6.4-10,9.5-20.3,11.8-43.6,21.1-65.8,31.3-1.7.8-.1,2.6,1.6,1.8,17.7-7.8,36-15,52.8-23.6-8.9,7.1-18.3,14-28,20.6-9.5,6.5-21,11.9-31.9,17.5-3.5,1.8-8.1,2.8-13.4,4.5-8.5-8.5-19.4-14.8-25.9-23.3,15.6-7.1,31.6-13.9,47.7-20.5,11.3-4.7,22.5-9.4,33.8-14.2,8.3-3.5,18.7-4.9,25.7-9.3,1.7-1-.4-2.5-2.3-2-37.3,11.4-72.6,27.9-106,44.5,0,0,0,0,0-.1-1.9-2.7-4.8-5.2-7.8-7.5-4.2-3.1-9.8-3.2-14.4-.3-2.4,1.5-4.3,3.4-5.9,5.3-7.2,9.1-12.7,18.6-15.6,28.8-1.1,3.8-2.2,7.6-3.3,11.5-6.1,0-11.9-.2-17.5,0-5.5.3-10.7,1.7-14.8,4.2-4.3,2.6-8.2,5.4-12.7,8.3-6-1.9-12-3.8-17.9-5.7,5.2-9.8,12.2-19.2,19.5-28.5.6.2,1.3.2,1.8-.3,23.8-28.2,51.1-54.8,76.8-82.3,21.3-9.4,42.4-19.1,63.8-28.4,11.4-5,22.9-9.9,34.6-14.5,3-1.2,6.4-2.3,9.7-3.4,7.9,4,18.8,5.3,26.5,3.3ZM616.6,779.7c-6.2,8.3-11.4,16.8-12.7,26.1-1.3-2.1-2-4.5-2-7.1,0-8.2,5.8-14.4,14.8-19ZM726.8,765.8c-.4-.7-.3-1.6-.5-2.6,17.6-6,32.9-14.2,46.6-23.5,21.4-14.4,40.9-30,57-47.2,11.8-12.7,22.8-25.7,33.7-38.8,3.8-4.6,6.6-9.5,9.5-14.4,6.4-11.1,12.9-22.1,18.8-33.3,3.3-6.2,5.3-12.8,8-19.1.6-1.5,1.5-3,2.3-4.7,7.5.5,14.5.9,22,1.4,0,1.6.5,3,0,4.2-16.1,35.5-37.4,69.7-63.5,102.5-3.9,4.9-8.5,9.5-13.2,14.1-12.3,12.2-24.2,24.5-37.4,36.3-11.4,10.3-25.9,18.7-41.1,26.6-14.1,7.3-19,9.2-33.5,12.7-3.2-5.1-6.1-9.6-8.8-14.2ZM907.6,541.1c5.8-6.1,12.8-11.7,18.9-17.7.9-.9.2-1.8-.9-2.1.6-.2,1.2-.3,1.8-.5,3.4-.7,6.3-.6,9.7,0,5.8,1.2,10.5,3.4,14.7,6.2,11.8,7.7,17.4,14.8,16.5,25.7.1,4.5-1.2,9.6-5.5,14.3-2.7,2.9-6.1,5.1-11.5,5.9-4.1.6-7.9,2-12,2.3-4.9.4-9.9.3-14.8,0-3.7-.3-7.1-1.7-10.8-2.1-2.9-.3-5.3-1.1-7.3-2.1,4.7-5.6,9.8-11,16.8-15.6,2.6-1.7-1.4-4.4-4-2.7-6.9,4.5-12.3,9.7-17,15.2-.6-.6-1.1-1.1-1.6-1.8-.7-1-1.3-2.1-1.9-3.1,2.3-2.6,5.5-5.1,8.1-7.2,4.8-4.1,10.2-7.7,16.1-11,2.4-1.4-1.1-3.7-3.5-2.3-6.8,3.8-12.9,8-18.2,12.7-1.4,1.2-2.9,2.4-4.4,3.7-.3-.8-.5-1.5-.7-2.3,2.5-5.3,7.5-11.2,11.4-15.4ZM897.3,545.3c3.3-5.8,7.2-11.4,12.4-16.6,3.4-2.5,7.2-4.6,11.7-6.2-7.5,7-17.5,14.6-24.2,22.8ZM747.1,785.4c-2,1.2-4,2.5-5.9,3.7-.2-.4-.4-.8-.6-1.2,2.1-.8,4.3-1.7,6.6-2.5ZM1104.6,772.2c-16.7-7.9-32.1-17-45.4-27.3-9.7-7.6-17.9-16-26.6-24.1-4.6-4.3-8.7-8.8-13.1-13.2-21.1-21.4-36.8-44.5-51.8-68-10.8-16.8-18.9-34.2-27.6-51.5-.5-1-.8-2.1-1.6-4.4,4.9-.4,8.5-.7,12.2-.9,3.3-.2,6.6-.5,10.8-.8.7,1,2,2.2,2.3,3.4,3.4,12.9,11.2,24.8,17.7,37.1,2.4,4.4,5,8.8,7.5,13.2,5.7,10.1,12.5,19.9,20.6,29.3,10.6,12.2,21.1,24.5,33.3,36.1,14.4,13.6,30.3,26.5,47.9,38.3,13.4,9,28.1,17.4,45.7,23.1.6.2,1,.8,2,1.8-3.1,4.9-6.3,10.2-9.9,15.9-9-2-16.8-4.6-23.8-7.9ZM1032,589.9c-3.1,3.2-6.2,6.3-9.3,9.5-.4.4-.4.7-.3,1-8.1-3.6-15.8-7.5-22.6-12.3-1.3-.9-2.9-1.7-4.5-2.5,4.6-4.2,6.9-9.7,10.2-14.2.1-.1.2-.3.3-.4,2.2.7,4.4,1.4,6.6,1.9-3.4,4.3-6.8,8.7-10.3,12.9-1.1,1.4,2.1,2.6,3.2,1.2,3.7-4.4,7.3-8.9,10.8-13.4,2.1.3,4.4.5,6.7.4-4.2,4.7-8.4,9.3-13,13.8-1.6,1.5,2.1,2.9,3.7,1.4,5.3-4.7,10.1-9.5,14.7-14.5,1.6-1.8-2.3-3.4-4.1-2-1.3-1.6-2.5-3-4-4.2,2-2.6,4-5.1,5.9-7.7,1.1-1.4-2.1-2.6-3.2-1.2-1.8,2.3-3.6,4.6-5.4,7-1.6-1-3.5-2-6-3.2,3.4-4.7,6.8-9.3,10-14,1-1.4-2.2-2.7-3.3-1.3-3.3,4.6-6.7,9.2-10.1,13.8-1.7-.7-3.6-1.5-5.7-2.4,7.1-8.3,14.5-16.6,22.3-24.8,1.3-1.4-2-2.6-3.3-1.3-7.7,8.1-15.6,16.1-22.7,24.4,0,0,0,0-.1.1-1.9-.7-4-1.6-6.2-2.4,5.8-6.7,11.9-13.2,18-19.8,1.4-.6,2.8-1.1,4.2-1.7.7-.3,1.4-.6,2.1-.9,2.8-1.2,6.2-2.1,5.9-4.8-.2-1.8-4.5-3-9.6-2.4-2.9.3-5.8,1-8.5,1.9,4.8-4.6,9.6-9.2,14.1-13.9,1.6-1.6-2.3-3.1-3.9-1.5-6.2,6.4-13.1,12.6-19.6,19-2.5,1-5.1,2.1-7.6,3.1-1,.4-2,.8-3,1.2,9.8-10.6,21-20.6,30.4-31.4,1.1-1.3-1.8-2.4-3-1.1-10.6,11.8-23.3,22.5-33.9,34.3-2.5-2.6-4.8-5-7.4-7.7,1.9-1.7,3.7-3.6,5.8-5.2,9.2-7.2,18.4-14.3,27.7-21.5,10.9-8.4,24.8-13.9,40-18.1,5.8-1.6,12.1-2.2,18.5-1.9,3.7.2,6.6,1.2,8.2,3.2,1.9,2.4,3.8,5,4.8,7.6,5.1,13.7,7,27.8,7.5,41.9.6,18.6-2.2,37-4.7,55.4-.4,3.3-1.3,6.6-2.6,9.8-1,2.4-2.5,4.7-4.5,6.8-4,4.1-10.5,5.6-17.5,4.4-3.2-.6-6.4-1.4-9.2-2.5-6.7-2.7-13.4-5.3-19.9-8.1.6,0,1.2-.2,1.7-.6,3.3-3.1,6.5-6.2,9.8-9.3,1.7-1.6-2.4-3.2-4-1.6ZM978.9,571.9c2-2.8,4.1-5.5,6.4-8.3,1.1.2,2.1.4,3.1.8,1.1.4,2.2.8,3.3,1.3-3.5,4.1-6.8,8.4-8.9,12.8-1.9-1.3-3.7-2.7-5.4-4.1.4-.8.9-1.7,1.5-2.5ZM975.7,572.8c0,0-.2-.1-.2-.2,2-3.1,3.9-6.2,6.1-9.7.2,0,.4,0,.6.1-2.3,3.2-4.3,6.5-6.5,9.8ZM983.2,551.9c1.7-2.4,3.3-4.8,5.1-7.1,5.3-2.2,10.5-4.3,15.8-6.5-5.1,5.3-10.1,10.6-14.8,16-1.8-.7-3.8-1.5-5.9-2.3,0,0,0-.1-.1-.2ZM995.8,567.3c2.1.8,4.2,1.6,6.4,2.4-3.5,4.8-6.2,9.8-9.5,14.6-.2,0-.4-.2-.6-.3-2.2-1.2-4.4-2.5-6.5-3.8,3.3-4.4,6.7-8.7,10.2-12.9ZM1192.3,792.6c1.4-2.7,3.1-5.4,5-8-1.1,3.4-1.1,7-.4,10.7.5,2.7,1.3,5.4,2,8.2-3.9,2-8.1,3.1-12.6,3.5,3-4.6,3.6-9.6,6-14.4ZM1201.9,816c.6-.8,2.2-1.3,4-2.4-1.3,10.9-2,21.1.4,31.2,1,4.2-.6,7.4-6.9,9.5-4.3,1.5-7.8,4.1-11.7,6.2-6.4,3.4-8.6,3.6-15.6.5-4.9-2.1-9.4-4.6-14.7-7.2,5.6-4.4,10.5-8.8,16.3-12.7,11.3-7.5,21.3-15.5,28.1-25.1ZM1203.7,776.1c1.9-2.4,3.8-4.9,5.6-7.3.4.8.7,1.6,1.1,2.4-1,1-1.3,1.6-1.9,1.9-1.9.9-3.4,2-4.8,3ZM1215.9,779.7s0,0,0,0c-2.5,2.9-4.8,5.9-7,8.9,0-.5,0-1,0-1.5,0-3.4,2.9-5.7,6.9-7.4ZM1212.6,613.4c14.7,26.5,29.8,52.8,42.8,79.7,6.5,13.4,14.1,26.6,21.1,39.9,5,9.4,8.9,19,11,28.9.7,3.3,1.8,6.5,2.7,9.9-7.9,3.9-17.2,5.7-25.7,9.1-6.3-4.1-11.1-8.7-18.9-11.1-8-2.5-16.3-1.9-24.8-.9-3.4-3.3-3.6-6.9-4.3-10.4-2.2-9.7-7.6-18.7-13.5-27.5-1.8-2.8-4.3-5.4-7.3-7.7-4.9-3.7-11.3-3.6-16.3.1-1.7,1.2-3.1,2.6-4.3,4.1-6,7.7-13.7,14.5-22.3,21-2.5,1.8-4.5,3.9-6.9,6-7.7-.6-13.3-3.3-19.1-6.1-19.1-9.2-35-20.5-50.3-32.3-23.8-18.4-42.4-39.1-60.5-60-12.2-14-21-28.9-29.7-43.8-4.5-7.7-8.8-15.5-13.2-23.3-.3-.5,0-1.1,0-3,6.5,3.5,12.5,6.1,17.3,9.5,13.8,9.5,30.8,16.1,47.9,22.6,7.5,2.8,15.8,4.6,25.3,3.3,11-1.5,18.1-5.9,22-12.3,2.7-4.6,4.1-9.6,5.1-14.4,1.2-5.1,1.3-10.4,1.9-15.6,6.7.2,12.9.8,18.9.3,6.3-.5,8.7-4.9,13.8-7.7,2.2.9,4.5,1.9,6.9,2.8,14.2,5.5,23.1,4.7,34.5-3.2.8-.6,1.8-1.1,3-1.7,8,2.4,15.9,4.8,24.5,7.4.7,1.5,1.7,3.3,2.3,5.1,3.4,10.9,10.5,21,16.2,31.4ZM1065.4,69.6c-5.5-10.2-8.1-20.8-8.9-31.7,0-1.4-.3-2.9.5-4.1.7-1.1,2.6-2.4,4.2-2.6,1.6-.1,4.2.8,5.1,1.7,1.7,1.9,2.8,4,3.5,6.1,3.8,11.6,7.6,23.2,10.8,34.9,2.3,8.2,5.7,16.1,12.1,23.4,3.7,4.2,6.9,8.7,9.5,14.1-4.8.3-8.3.6-12.4.8-1.4-2-2.7-3.7-3.7-5.5-7-12.4-14.1-24.8-20.8-37.3ZM972.2,164.3c-.5.4-.9.7-1.4,1.1-.3-.2-.6-.3-.9-.5.7-.2,1.5-.4,2.2-.6ZM763.9,107.8c2.4-3.5,4.6-7.1,7.6-10.4,6.8-7.5,10-15.6,12.4-24.1,3.2-11.6,7.1-23.2,10.9-34.8.7-2.1,2.2-4.1,3.8-6,.7-.8,3-1.5,4.1-1.3,1.7.4,3.5,1.4,4.3,2.5.8,1.2.6,2.7.6,4-.5,11.7-3.7,23-9.9,33.9-6.2,11.1-12.4,22.2-18.7,33.3-1.3,2.3-2.7,4.6-4.1,7h-12.2c.5-1.7.5-3,1.2-4.1ZM757.9,125.3c1.4-2.2,2.9-3.3,5.1-3.8-.2,0-.3.2-.5.4-3.3,4.2-7,8.7-10.7,13.3,2.3-3.2,3.9-6.6,6.1-9.9ZM741.2,239c-9.4-19.3-11.5-39.1-7.9-59,.9-4.9,2.1-9.8,3.6-14.7,6.5-14.6,18.7-29,28.6-42.1.6-.8-.3-1.6-1.3-1.7,1,0,2.1,0,3.4,0,12.1.9,24,2.6,35.5,5.2,16.3,3.7,32,8.4,46.8,14.1,10,3.9,19,9,28.2,13.8,5.5,2.9,10.4,6.3,16.5,10.1-4.6.7-7.4-.5-10.1-1.4-17.5-5.9-36.5-8-55.7-9.5-19-1.5-36.6,1.4-53.7,6.4-3.4,1-6.3,2.4-9,3.9,4.4-8.5,9-17,14-25.5.9-1.5-2.8-2.1-3.7-.7-16.9,27.1-35.9,55.7-40.8,85.2-.2,1,2.2,1.2,2.6.2,5.2-11.9,10.5-23.7,16-35.5,1,1.9,2.4,3.7,4.3,5.3,1.3,1.1,2.7,2.1,4.2,3.1-6.6,14.7-13.1,29.5-19,44.4-.4,1,1.8,1.4,2.3.4,6.9-13.2,10.7-27.1,16.6-40.5.5-1.1,1-2.2,1.5-3.3,2.8,1.9,5.9,3.7,9.2,5.2-7,18.1-13.6,36.3-18.6,54.8-.3,1.1,2.1,1.5,2.5.5,6.3-18,12.8-36,19.5-53.9,3.2,1.3,6.5,2.4,10.1,3.3-2.5,7.1-4.9,14.2-7.4,21.4-5,14.4-10.6,28.6-12.2,43.4-11.3-10.1-20.2-20.9-26-32.9ZM776.5,166.3c-3.6,7.8-7.2,15.7-10.8,23.5-5.8-4.9-5.9-11.5-.3-16.5,3.1-2.7,6.7-5.2,11.1-7ZM792.8,294.3c.7,0,1.4-.4,1.5-1,1.2-14.5,7.4-28.6,11.6-42.8,3.9-13.2,7.6-26.5,12.3-39.6.6-1.5-3-2.2-3.5-.6-5.5,14.4-9.6,28.9-14.2,43.4-4.1,13-10.1,25.7-9.6,39-7.4-6.5-14.8-12.9-22.2-19.4.7,0,1.4-.2,1.6-.7,5.9-14.7,8.9-30.3,14-45.3,2.2-6.4,4.3-12.8,6.5-19.2,3.3.6,6.5.9,9.8.9-3.3,10.4-6.5,20.9-9.4,31.4-3.7,13.2-5.3,27-11.4,39.9-.7,1.5,2.6,2,3.5.6,7.7-12.3,8.5-26.8,12-39.8,2.8-10.8,6-21.5,9.3-32.2,1.3,0,2.6-.2,4-.3,5.8-.6,10-2.5,11.4-6.6,1.5-4.4.8-8.2-4.1-11.5-3.1-2-8-2.4-11.6-1.1-3.5,1.3-5.1,4.2-3.8,7.2.6,1.3,1.6,2.5,2.2,3.4-1.6,2.5-4.3,2.2-6.7,1.9-1-.1-1.9-.3-2.8-.4,2.5-7.4,5.1-14.7,7.8-22.1.6-1.6-3.2-2.3-3.8-.7-2.8,7.3-5.4,14.7-7.9,22-3.6-.8-6.9-1.8-10-3.1,2.4-6.4,4.7-12.9,7.2-19.3.5-1.4-2.7-2-3.3-.6-2.4,6.2-4.8,12.3-7.2,18.5-3.1-1.5-6-3.3-8.6-5.3,3.9-8.5,7.9-17,11.8-25.5.6-.2,1.1-.4,1.7-.6,16.9-4.9,34.3-7.2,52.7-4.9,9.1,1.1,18.1,2.3,27.1,3.6,9,1.3,16.9,4.4,24.9,6.9-.6,2.3-2.8,1.6-4.1,1.6-16.8,0-29.7,5.1-40,13.5-6.8,5.5-6.8,9.3-.4,14.9,3.5,3,8.3,4.6,13.8,5.3,4,.5,7.5-.3,10.4-2.2,2.3-1.5,2.9-4.2,1.3-6.2-1.5-1.8-4-2.9-7.2-2.7-2,.1-4,.9-6.1,1-2,0-4.1-.2-6.1-.6-2.3-.5-3.6-2.9-2.3-4.2,9.9-9.6,23.3-15,41.3-14.3,4.5.2,8.9,1.1,12.9,1.6,1.5,2.3-1,2.9-2.2,3.9-2.8,2.4-6.1,4.6-8.2,7.2-3,3.7.3,7.8,6.6,9.2,3.2.7,5.8,0,7.9-1.6,1.8-1.3,2-3.1.8-4.7-1.2-1.4-2.9-2.6-4.7-4.1,2.4-1.4,4.3-2.8,6.7-3.9,4.7-2.1,9.5-2.2,13.8.4,3.9,2.4,8.2,3.9,13.6,3.2,2.8-.4,5.7-.8,8.1-1.8,11.4-4.8,13.6-4.7,23.2,2.4-1.4,1.2-3.2,2.4-4.3,3.8-1.3,1.6-.9,3.3.7,4.7,1.7,1.5,5.2,2.1,7.9,1.5,6.2-1.3,9.2-5.4,6.5-9.2-1.4-2-3.5-3.8-5.6-5.5-1.8-1.4-4-2.7-6.1-4.1,20.3-7.2,44.8-1.4,56.1,12.9-1.2,2.5-4.1,3.4-7.8,3.1-2.5-.2-4.8-1-7.3-1.1-3.2-.2-5.6.9-7.2,2.7-1.6,1.9-1.1,4.7,1.2,6.2,3.3,2.1,7.3,2.8,11.6,2.1,9.1-1.3,14.5-5.3,17.2-11,1.2-2.5,0-4.9-2.5-7-10.3-9.1-23.2-15.1-41-15.5-.8,0-1.7,0-2.5,0-.8,0-1.6-.2-3.6-.4,1.5-1,2.3-1.8,3.5-2.2,17.3-6.1,36.3-8.4,55.5-9.9,16.7-1.3,32.5,1.3,47.6,5.9,5.9,1.8,10.4,4.8,14,8.1,5.5,5,6,10.6.6,15.5-8.1,7.4-19.3,12.2-33.5,13.1-1.1,0-2.3-.4-4.3-.8.9-1.9,1.9-3.6,2.5-5.4.8-2.7-1-5.3-4.1-6.4-3.6-1.3-8.6-.9-11.6,1.2-4.9,3.3-5.6,7.2-4,11.5,1.5,4.1,5.8,5.9,11.5,6.6,12.8,1.6,24.2-1.1,34.3-5.9,5.4-2.5,10.4-5.7,14.7-9,9.5-7.5,8.6-18.4-1.3-25.9-5.9-4.5-13-7.6-21.5-9.8-19.3-5-39.1-5.9-59.3-3.4-14.4,1.8-28.8,3.6-42.1,8.2-2.4.8-5.4.8-8.1,1.1,0-.5,0-1.1.4-1.4,14.8-9.4,30.1-18.4,48.7-24.6,17.2-5.8,34.7-11.1,53.6-14,6.9-1.1,13.9-1.9,21-2.5,5.6-.5,7.8.3,10,3.6,11.5,17.3,21.7,34.9,24.5,53.8,2.8,19.1,2.2,38-6.3,56.7-7,15.4-17.9,29.1-33.7,41.3-5.4,4.2-9.9,8.9-14.9,13.4-6.2,5.5-12.4,11-18.6,16.5-3.1.4-6.1.8-9.2,1.1,18.6-13.9,30.1-33.4,43.3-49.6,1.3-1.6-2.4-3-3.6-1.4-13.8,17-25.9,36.1-43.6,51.5-2.4.3-4.7.6-7.3.9-1-2.1-1.9-4-2.8-6,8.1-7.4,15.3-15.1,22.4-23,1.4-1.5-2.3-2.9-3.6-1.4-6.4,7.4-12.8,14.9-19.9,22-1.3-2.8-2.6-5.6-4-8.3,3.9-4.7,8.2-9.2,12.9-13.5,1.3-1.2-1.7-2.3-2.9-1.1-4.1,4-7.7,8.1-11.1,12.4-1.8-3.2-5.6-4.9-10.6-5.5,3.9-2.9,7.9-5.8,11.8-8.6,1.6-1.2-1.1-2.9-2.6-1.7-4.3,3.3-8.5,6.7-12.6,10.1-6.9-.3-13.2.9-18.8,3.6-8.8,4.2-17.6,8.5-25.9,13.1-4.7,2.6-8.4,6-13,9.4-10.6-4.7-21.5-6.2-32.4-4.6,2.1-5.3,4.4-10.6,7.3-15.8.9-1.5-2.8-2.2-3.7-.7-3.2,5.6-6,11.3-7.5,17.2-3.8.9-7.6,2.1-11.4,3.9-4.9-3.5-8.9-7-13.9-9.8-8-4.5-16.5-8.5-24.9-12.6-.5-.2-1-.4-1.6-.6,3.1-10.2,5.1-20.6,7.3-30.9.3-1.5-3.1-2.2-3.5-.6-1.7,6.9-3.9,13.7-5.6,20.6-.7,3-2.1,6.2-2.4,9.4-2.9-.8-6-1.4-9.2-1.6.6-2.7,1-5.5,1.6-8.2,1.9-9.7,3.9-19.4,6.2-29,.3-1.3-2.7-1.9-3-.5-3.2,12.5-5,25.3-8.3,37.8-.6,0-1.1,0-1.7,0-6.4.3-11.2,2.2-13.4,6.4-2,3.9-3.7,7.9-5.6,11.9-1,2.1-2,4.1-3.1,6.3-3.1-.4-6-.7-8.9-1.1,4.4-24.2,14.2-48.4,21.9-72.2.5-1.5-2.9-2.1-3.4-.6-7.8,22.8-19.1,46.7-21.9,70.2-.3,0-.6,0-.7.2-.2.6-.4,1.3-.7,1.9-2.2-.3-4.3-.5-6.5-.8-4.8-4.1-9.6-8.3-14.4-12.5ZM1066.2,330.1c-7.6,4.7-15.9,5.1-24.3,5.5-2.5-4.4-3.8-12.8-3-20,7.7-2.1,15.7-2.8,24.2-1.5,3.9,5.2,3.6,10.6,3.1,16ZM976.2,349.4c2-1.3,3.9-2.8,5.7-4.3,0,0,.2,0,.3,0,2.6.9,5,2,7.7,2.8,4,1.1,7.8.7,9.2-.8,1.5-1.5.4-3.9-3.3-5.7-2-1-4.1-1.9-6.3-2.9,3.7-3,7.4-6.1,10.5-9.4.8-.9-1.2-1.6-2.1-.8-3.2,3.3-7.1,6.2-11,9.1-2.7-1.2-5.5-2.4-8.5-3.7,2.9-2.5,7.2-3.7,10.6-5.5,2.8-1.5,7-2,8.2-5.2-3.3-2.5-7.7-2.8-12.2-1.7-4.2,1.1-8,2.8-12.6,4.5-4.3-2.8-5.5-6.8-9.8-9.9,2.3-1.4,4.3-2.7,6.6-3.8,10.4-5.1,20.8-10.3,31.3-15.3,6.1-2.9,6.2-2.8,15.6-2.9,7.6,5.4,9.2,12.6,11.7,19.5.6,1.6.3,3.3.8,4.9,4.2,14.3-.1,28.1-5.6,41.8-1.5,3.7-3.8,7.2-8.3,10.4-2.5-.6-5-.9-7-1.6-5.4-2.1-10.7-4.4-15.9-6.7-3.8-1.7-7.1-3.9-11-5.5-3.9-1.6-8.1-2.8-12.8-4.4,1.3-3.6,5.1-6.1,8.2-9.2.6.2,1.2.4,1.8.7-2.2,1.5-4.1,3.1-4.3,5.1,0,.8,1.5,1.1,2.3.6ZM924.6,324.4c-3.4,7.9-9.2,15-13.4,22.6-2.7-.9-5-1.8-6.8-2.9,6.5-6.8,11.2-14.8,15.4-22.3.8-1.4-2.6-2-3.4-.6-4.3,7.3-10.1,14.1-14.5,21.2-3.7-3.1-4.1-6.9-1.3-12.1,5.4-10.2,15.2-17.6,31.6-21.5,16.4,3.8,26.2,11.2,31.6,21.4,4.4,8.2,1.3,13-10.7,16.8-7,2.2-14.6,2.4-22.1,2.3-5.4,0-10.8-.3-16-1.4,2.4-2.9,3.9-6.2,5.8-9.2,2.8-4.5,5-9.2,6.7-13.9.5-1.2-2.3-1.7-2.9-.5ZM884,322.9c-1.6-.6-3.2-1.2-4.8-1.5.7-2,1.3-4.1,1.7-6.1.1-.7-1.5-.8-1.8-.2-.8,2-1.8,3.9-2.8,5.9-2.1-.2-4.3,0-6.6.7-1,.3-1.8,1-3,1.7,1,2.2,3.5,3.2,6,4.1-5.9,10.4-12.3,20.7-13.2,31.9,0,1,2.3,1.2,2.6.2,1-4,2.6-7.9,4.4-11.8,1.2.5,2.8.9,3.8.7,3.6-.5,7-1.6,10.4-2.7,2.2-.7,4.2-1.7,6.8-2.8,3.1,2.9,5.8,5.6,8.5,8.1-.6.7-.8,1.5-1.4,1.6-12.3,3.2-21.4,9.6-32.6,13.9-2.9,1.1-5.8,2.3-8.7,3.2-1,.3-2.4.3-3.4.4-17.1-10.5-23.1-58-2.6-75.9.4-.1.7-.2,1.1-.2-.2.7.5,1.1,1.3,1.1-7.9,9.6-12.2,20.4-14.4,31.3-.3,1.5,3.1,2.2,3.6.7,3.7-11.5,7.7-23,16.6-33.2,2.3.4,4.4,1.2,6.5,2.1-5.2,7.8-10.8,15.4-15.1,23.5-5.2,9.5-6.1,19.2-9.5,29-.4,1.2,2.1,1.6,2.7.5,4.6-8.2,5.6-16.9,9.5-25.2,4.2-8.9,10.3-17.4,16-26,11.8,5.7,23.5,11.4,36.1,17.6-3.3,3.8-6,6.9-8.6,9.9-4.3,1.1-6.3-1.2-9-2.3ZM885.7,333.1c-3.1,2.9-8.2,3.7-11.8,5.9-1.3.8-2.7,1.4-4.1,2.1,2.2-4.1,4.4-8.2,6.3-12.3,2.9,1.4,6,2.8,9.6,4.4ZM821.6,325.3c-3,3.2-5.8,6.4-8.7,9.7-2.4-.3-4.6-.7-6.7-1.2,5.2-6.2,10-12.5,14.2-19,1.6.3,3.5.7,5.8,1.2.6,6.4-2.4,12.8-2.1,19.8-2.8-.2-5.5-.3-8-.5,2.5-3.1,5.1-6.1,7.8-9.1.9-1-1.4-1.9-2.3-.9ZM801.9,329.1c2.6-5.3,7.5-10.3,10.6-15.5,1.5,0,3.1.3,4.9.6-4.3,6.3-9.3,12.4-14.4,18.5-1.7-.7-3.3-1.4-4.8-2.5-.9-7.5-.3-10.3,3.1-15.9,4-.4,6.6-.7,8.9-.7-3.7,5-8.7,9.8-11.1,15.1-.5,1.2,2.2,1.6,2.7.5ZM788,354.9c3.6-4.9,7.5-9.8,11.5-14.8,5,.8,9.8,1.6,14.6,2.4-9.2,6-18.8,12-29.2,16.7,1-1.4,2-2.9,3.1-4.3ZM657.7,562.6c.9-2.3,1.7-4.5,2.5-6.6.6.2,1.5.1,2-.4,16.8-15.4,37.8-28.6,57.2-42.6,19.3-13.8,38.5-27.6,58.6-41,1.6-1-.9-2.6-2.4-1.6-21.6,14.1-42.4,28.8-63.2,43.5-17.3,12.2-37.7,23.7-50.8,38.2,1.4-3.8,2.8-7.4,4.6-11,5-10.2,10.3-20.4,15.8-30.6,17-12.2,36.2-23.5,54.8-34.6,23.2-13.7,48.7-25.5,72-39,.3-.2-.1-.6-.5-.4-24.8,12.6-50.1,24.2-73.7,38-15.9,9.3-34.3,18.8-49.2,29.5.2-.4.5-.9.7-1.3,11.5-20.8,25.5-40.9,39.6-61,11.8-16.8,24.1-33.4,36.1-50.1.4.1.9.1,1.4,0,9.6-3.9,17.7-9.5,26.7-14,9.9-5,20.2-9.7,30.3-14.5,1.3-.6,0-2-1.3-1.4-10.2,4.7-20.6,9.3-30.6,14.2-8.3,4-15.9,8.8-24.3,12.7,2.9-4,5.8-8.1,8.6-12.1.3.3.8.5,1.4.2,7.7-2.9,13.7-7.3,20.5-11,8.1-4.4,16.4-8.5,24.4-13,1.4-.8-.6-2.1-2-1.3-7.2,4-14.7,7.7-22.1,11.5-7.3,3.8-13.8,8.5-21.2,12.2,3-4.3,6.1-8.6,9.2-12.9,12.7-4.8,23.9-12,34.5-19.1,2.9.5,5.7.9,8.6,1.4.9,3.6,1.9,7.3,2.8,11.1,1.4,5.8,4.1,11.3,8.1,16.5,4.7,6,11.3,7.9,20.8,5.1.3,0,.6-.2,1-.3-14.7,9-31.4,17.4-45,27.2-33.3,17.9-67.4,35.4-96.7,56.1-1.3.9.7,2.2,2,1.3,27.9-17.1,56.4-33.6,85.4-49.8-1.7,1.6-3.4,3.1-4.9,4.8-.8.9,1.2,1.6,2.1.8,19.2-16.4,45-28.8,66.8-43.6,0,0,0,0,0-.1,4.1-1.6,8.1-3.2,12-5,3.6-1.7,7.2-3.4,10.9-5-12.2,6.2-23.8,12.9-35,19.9-1.8,1.1.9,2.9,2.7,1.8,16.4-10.1,33.9-19.3,51.8-28.2,3.1.5,6.3.9,9.4,1.2-21.9,8.4-41.4,19.7-60.5,30.7-.6.3-.5.7-.3,1-21.2,16-46.3,30.7-61.7,49.5-.8,1,1.2,1.7,2.2.8,18.9-17.4,40.9-32.7,62.1-48.8.6-.4.5-.9.2-1.3,21.1-11.4,42.3-22.7,66-31.4,9.5.3,19.1-.4,28.3-2.3.3.1.5.2.8.3-18.8,6.1-36.6,13.3-53.9,21-.6.3,0,.9.6.7,18.1-7.5,36.6-14.5,56-20.5h0c3.4,1.5,6.5,2.9,9.6,4.2,3.8,1.7,7.6,3.4,11.5,5,7,3,14.1,6,21.2,8.9,1.8.7,3.8,1.2,5.8,1.6,8.5,1.8,14.7.2,18.9-5.1,4.6-5.6,7.4-11.7,8.8-18.1.7-3.3,1.5-6.5,2.3-10,8.7-1.5,17.1-2.9,26-4.4,5,4,7.9,8.9,11.3,13.5,15.6,21.1,31.1,42.3,46,63.6,21.9,31.4,44.4,62.6,62.4,95.1,5.7,10.4,10.5,21,15.4,31.5,2.7,5.8,4.7,11.7,7.1,17.8-1.4,3.1-6.2,4-10,5.5-2.7,1.1-5.7.3-8.4-.6-5.6-1.8-11.3-3.7-17-5.4-5.3-1.6-7.9-1.2-10.1,2.2-2.3,3.4-4.6,6.8-10.8,7.3-5.7.5-10.4-1.7-14.8-3.8-2.3-1.1-4.3-2.6-6.7-3.7-2.5-1.2-5.8-1-8.1.4-2.4,1.5-4.6,3.2-6.9,4.8-3.5,2.4-7.5,3.5-12.4,1.9-2.2-.7-4.6-1.2-7.3-1.8,0-2.5,0-5,0-7.4-.2-13.8.4-27.7-.7-41.4-.7-9.3-3.5-18.6-5.6-27.9-.9-3.8-3-7.4-6.3-10.7-4-4-9.2-6.2-16.6-6.5-9.8-.4-19.2.5-28.2,3.1-17.4,5.2-33,11.9-44.8,22.2-5.8,5.1-12,9.9-17.7,15.1-3.1,2.8-5.6,6-8.8,9.5-9.7-5.2-19.3-10.1-33.1-10-13.4.1-22.7,4.7-32.4,10.1-8.1-10.1-18.8-18.4-29.3-26.9-10.5-8.5-23.6-14.4-38.3-18.8,3.6-3.1,5.8-6.8,8.9-10.1,4.3-4.6,9-9.1,13.3-13.7.8-.8-1.2-1.5-1.9-.7-4.2,4.3-8.7,8.5-12.8,12.8-3.5,3.6-5.7,7.6-9.1,11.2-2.3-.7-4.7-1.3-7.1-2-1-.3-2-.4-3-.6,10-12.9,22.9-25.1,34.6-37.3,1.2-1.3-1.8-2.5-3.1-1.2-12,12.2-26.1,24.5-35,37.8-3.6-.5-7.2-.7-10.9-.7,5.8-6.1,10.7-12.9,16.4-18.7,11-11.2,22.6-22.1,34.2-33,1.3-1.2-1.8-2.4-3.1-1.2-18.8,17.3-35.7,35-52.6,53-.4,0-.7,0-1.1,0-6.9.2-11.8,2.4-15.6,6-3.7,3.5-5.7,7.4-6.9,11.5-.8,2.7-1.4,5.3-2.1,8-15.3,12.4-30.7,24.7-46.2,37-9.9,7.8-20.6,15.1-28,24-2-1.2-4.1-.6-9.7,1.2-4.6,1.4-9.2,2.7-13.6,4.3-4.6,1.6-8.7,1.7-12.8-.5-1.9-1-4-1.9-6.7-3.2ZM760.2,581.6c-11,4.2-21.5,9-31.9,14-.4-.3-1.3-.5-1.8,0-.8.7-1.7,1.4-2.5,2.1-13.3,6.5-26.2,13.4-39.1,20.1,8.5-7.2,17-14.4,25.3-21.6,7.6-3.9,15.3-7.7,23-11.5,4.8-2.3,9.9-4.5,14.9-6.8,3.9,1.8,8.6,2.3,13.8,1.7,2.8-.3,5.5-.8,9-1.3.4,1.5.8,2.8,1,4.1.4,2.9.7,5.7,1.1,8.6-29.5,11.3-57.1,24.7-84.3,38.3,11.7-9.4,23.4-18.9,34.5-28.6,12.6-6,25.3-12,38.2-17.8,1.2-.6.1-1.9-1.2-1.4ZM770.1,568.2c-.1,0-.6.6-1.3.7-3.6.8-6.1,1.4-8.2,1.6-.3-.7-1.3-1.2-2.3-.7-.5.3-1.1.5-1.6.8-2.9-.4-5.4-2.1-10.5-5.5-.6-.4-1.2-.8-1.8-1.2,2.7-5.6,7.9-11,11.9-16.1,4.7-6.1,9.4-12.2,13.9-18.4-.2,3.4-.3,6.8-.2,10.2.2,9.4,0,18.8,0,28.5ZM770.5,525.6c-.6,0-1.3,0-1.7.6-6.1,8.2-12.6,16.3-19,24.4-3.1,4-6.6,7.8-8.3,12-2.7-.8-5.1-.2-9,2.2-3.8,2.3-7.8,4.2-12.6,5.3-5.3,1.3-9.9.4-13.3-2.6-.1-.1-.2-.3-.3-.4,3.4-3.1,6.8-6.2,10.1-9.4,1.4-1.3-1.9-2.6-3.3-1.3-2.9,2.7-5.9,5.4-8.9,8.1-.5-.6-.9-1.1-1.3-1.5,9.6-10.4,22.4-19.4,33.9-28.9,12.3-10.2,24.6-20.3,36.9-30.4-1.6,7.3-2.6,14.5-3.2,21.9ZM585.9,736.5c10.3-19.8,20.9-39.6,31.2-59.5,3.6-6.8,6.7-13.7,10.4-20.4,3.7-6.6,7.4-13.1,11.1-19.7.2.7,1.5,1.3,2.6.6,26.7-17.4,49.2-38.5,72.8-57.8.9-.7-.7-1.8-1.6-1-23.8,19.2-46.9,39.6-73.2,57.3,7.4-13.1,14.7-26.1,21.9-39.2,3.6-6.5,6.1-13.2,9.1-19.8,7.9-2.4,15.9-4.9,24.4-7.5.8.5,1.7,1.1,2.5,1.7-4.7,4.2-9.5,8.4-14.3,12.5-9.5,8.2-20.4,15.7-26.9,25.2-1,1.5,2.2,2.8,3.3,1.3,7-9.2,18-16.8,27.3-25.1,4.5-4,9-8,13.4-12,4,2.6,8.5,4.8,14.8,4.9,8.9.2,16-2.8,23.4-6.5,2,1.2,4.3,2.4,5.9,3.8.4.3.8.6,1.1.9-10.3,4.9-20.6,9.8-30.8,14.8-.7-.5-1.9-.7-2.6-.1-1.3,1.1-2.7,2.3-4.1,3.4-4.5,2.3-9,4.6-13.5,7-1.8,1,.8,2.7,2.6,1.7.4-.2.8-.4,1.1-.6-23.8,20-48.2,39.7-71.8,59.7-1.2,1,.7,2.4,2.2,1.5,16.6-10.6,30-24,44.4-35.9,2.6-2.2,5.2-4.4,7.8-6.5,12.1-5.9,24.1-11.7,36.2-17.5-29.4,24.7-62.4,47.5-89.8,73.1-1.6,1.5,2.2,3,3.8,1.5,16.2-15.4,34.3-30,52.4-44.5,29.4-14.2,59.2-27.8,90-40.6.3,2,.5,3.9.8,5.9.4,2,1,3.9,1.9,5.7-30.8,11.6-59.4,26.4-88.1,40,4-4.3,7.9-8.6,11.8-12.9.7-.7-1.1-1.4-1.8-.7-27.2,28.8-56.6,57.1-89,83.5-.9.7.2,1.6,1.3,1.4-8,7.3-17.7,15.1-25.8,23.3.5-1,.8-1.9,1.3-2.9ZM579.4,752.5c10.1-14.2,25.1-27.1,38.2-39.9.5-.5.2-1-.4-1.2,25.9-18.8,47.4-41.3,67.7-63.3.6.5,1.5.7,2.4.2,29.9-13.7,60.8-26.7,90.3-40.8,1.1,1.9,2.5,3.7,4.1,5.4,1,1,2.1,1.9,3.4,2.8-4.6,1.6-9.3,3.2-13.6,5-10.7,4.5-21.3,9.1-31.8,13.8-19.1,8.6-38,17.3-57.1,26-.4-.5-1.6-.8-2.2-.1-.7.7-1.4,1.4-2,2.1-1.3.6-2.6,1.2-3.9,1.8-1.1.5-.5,1.5.6,1.6-21.6,22-45.6,43.2-64.3,66.3-.7-.3-1.7-.3-2.1.4-6.8,8.8-13.8,17.5-20.4,26.4-3.6,4.8-7.6,9.7-9.8,14.9-1.4-.5-2.7-1.1-4.2-1.8,1.6-6.6,3.3-13.1,5.3-19.5ZM533.9,814c-2.2-7.9-4.4-15.7-6.1-23.7-1.3-6-1.8-12.1,1.3-18.2,8.8-1.2,16.7.5,24.4,2.5,2.1.6,4.2,1.2,6.4,1.8-8.5,10.7-15.7,21-21.2,32.9-.6,1.2,2.3,1.7,2.9.5,5.2-11.6,11.6-22.3,19.3-33.1,3.4,1,6.8,1.9,10.3,2.9-10.5,12.2-20.4,24.5-26.1,38.1-.5,1.2,2.2,1.7,2.8.5,6.8-13.2,16-25.6,26.1-37.8,6.7,2,13.6,4,20.7,6-5.2,12.5-2.4,22.9,11.6,31.2-.3.3-.2.8.5.8s.4,0,.5-.2c.4.2.8.5,1.2.7-4.6,8-30,27.7-42.8,33-2-1-4.6-1.9-6.3-3.3-12.8-10.1-21.9-21.5-25.5-34.6ZM575.5,858.2c-5.5,4-10.7,8.3-16.3,12.2-2.9,2-5.4,3.4-7,5.4,2.1-5,4.4-9.8,5.4-14.8,1-.5,1.3-.8,1.6-.8,6.2.5,11.5-.4,16.3-2ZM598.3,1008.3c-2.6-1.5-5.8-1.2-9.7.6-1.4.6-2.7,1.3-3.9,2.1-11.4,7.2-25.6,10.3-40.5,12.4-2.8.4-5.8.5-8.7.3-4.4-.3-7.9-1.7-10-4.4-1.1-1.5-2.1-3-3.6-4.3-2.1-1.9-5.7-2.4-9-1.6-3.1.7-6.1,1.7-9.3,2.3-2.6.4-5.4-1-5.1-2.7.6-3.6,1.3-7.1,2.6-10.6,2.8-7.5,5.9-15,9-22.4,2.9-7.1,6-14.1,9-21.1,5.8-6.6,10.1-13.7,15.8-20.4,6.8-8,14.5-15.7,22.2-23.4,15.4-15.3,32-30.1,48.2-45,1.4-1.3-1.9-2.6-3.3-1.3-27.1,24.4-55.4,48.4-76.6,75.3,1.7-4,3.3-8,5.1-11.9,1.5-3.4,2.9-6.8,4.4-10.2,10.7-10.8,20.9-21.7,32.7-32.1,15.2-13.4,31.2-26.3,46.9-39.4,1.6-1.3-1.2-3.1-2.8-1.8-25.6,20.9-50.4,41.5-72.7,63.8,2.1-4.7,4.1-9.5,6.2-14.2,21.6-18,42.6-36.2,64.4-54.1,1.5-1.2-1.1-2.9-2.6-1.7-20,16.1-41.4,31.9-59.5,49.1,0-.3.2-.6.2-.9.4-3.9,1.6-7.7,3.1-11.4.5,1.1,3.2,1.4,4,0,2.3-4.6,10.7-8.8,15.3-12.4,5.3-4.1,10.5-8.1,16-12.1,10.6-7.6,21.8-14.9,33-22.2-.4,11.7-3.5,23.1-7.3,34.5-1.7,5.1-2.5,10.4-6.4,15.1-.2.2-.3.4-.4.6-.4-.7-2.1-1-2.9-.2-30,31.2-66.5,61-87.4,95.6-.6,1.1,2,1.8,2.8.8,25.9-33.1,57.6-63.5,87.3-95.1,0,1.8,2.1,3.5,5.3,4.1,2.4.5,4.9.7,7.4.8,1.2,0,2.4,0,3.6,0-9.5,6.8-19.8,13.3-28.7,20.5-1.4,1.1-2.7,2.3-4,3.4,3.4-4.1,6.8-8.2,10.1-12.3.8-1-1.5-1.9-2.4-.9-8.9,11-18.8,22-28.6,33.1-.9.9-1.8,1.8-2.7,2.7-.2.2-.2.3,0,.5-18.2,20.7-35.6,41.9-45.1,64.5-.3.7.4,1.1,1.2,1.2l-1.1,1.7c-.8,1.2,1.9,2.3,2.7,1.1,2.1-3.1,4.3-6.3,6.5-9.4.7-1-.8-1.8-1.9-1.7,14.6-24.5,34.1-47.7,53.4-70.8,5.4-5,11-10,17.3-14.6,8.7-6.4,18.1-12.4,26.7-18.9,4.9,0,9.8,0,14.6,0,1.6,0,2.9-.1,4.2-.3-25.5,14.3-51.7,29.5-70.7,47.7-.9.8,1.2,1.6,2,.8,21.2-19.5,51.1-33.1,76.5-49.8.7-.5.6-1,.2-1.4,1.5-1.3,2.5-3.1,3.2-5.6,1.2-4.6,1.7-9.3,2.6-14,.3-1.6.6-3.2.9-4.8,4.7,0,5.9,2.5,8.1,3.9,13.1,8.3,19.1,8.6,34.1,1.9,4.5-2,9.1-3.9,13.6-5.9,1.7-.8,3.3-1.7,4.8-2.7,3.9-2.7,4.1-5.4.2-8.1-7.6-5.2-15.4-10.3-22.9-15.6,12.2-6.6,25.6-12.2,38.4-18.2,2.7-.8,4.9-1.9,6.6-3.2.7-.3,1.4-.6,2-1,.6-.3.4-.8,0-1.2.8-1.2,1.2-2.5,1.3-4.1,0-.7.6-1.5,1-2.2,22.1,7.4,26.4,7.3,52.4-1.2,1.1.9,2.4,1.9,3.6,2.9,7.7,6.2,17.7,8.2,29.3,6.3,8.5-1.4,17-3.2,23.8-7.8,4.3,2.2,8.2,4.7,12.5,6.7-2.1.8-4.2,1.5-6.3,2.3-1.5.6-.2,2,1.3,1.5,2.5-.9,5.1-1.8,7.6-2.7,3.6,1.4,7.6,2.4,12.5,2.6,11.7.4,21.5-1.6,30.1-7.1,3.8,1,7.6,2,11.1,2.9,2,2.1-.2,3.4-1.2,4.8-4.3,5.7-8.6,11.4-13.3,16.9-8.7,10.1-17.6,20.1-26.4,30.1-2.5,2.9-6.3,4.5-11.2,4.6-20.1.8-32.5-7.4-34.3-19.1-.3-2.1.1-2.5,6.1-4.9,1.6,1.1,3,2.4,4.9,3.3,5.3,2.7,12.1,1.2,13.9-3,2.5-5.8-4.8-11.5-13.9-10.5-8.1.9-14.9,3.6-19.6,8.2-2.2,2.1-2.8,4.5-2.4,7.1,1.9,12.7,12.4,21.1,31.5,25,1.9.4,3.7.9,6.3,1.5-4.8,3.6-10.3,5.6-15.6,7.7-11.3,4.4-23.5,7.3-36.2,9.2-8,1.2-15.9.6-23.5-1.3-3.1-.8-6-2.1-8.4-3.5-4.7-2.8-4.3-5.6,1-8.2,2-1,4.2-1.8,6.8-2.8,2.4,1.1,4.5,2.4,7,3.2,6.6,2.1,13.1-1,12.4-5.8-.8-5.3-7.6-9.1-15.6-8.6-4.7.3-9.1,1.3-12.6,3.4-3.3,2.1-6.6,4.3-9.3,6.7-5.6,5-4.9,11.4,1.2,16,6.1,4.6,14.1,6.9,22.9,8.1,8.8,1.2,17.6,1.1,26.1-.7,8-1.7,15.7-3.8,23.6-5.6,2.6-.6,4.8-2.4,8.7-1.1-1.6,1.6-2.9,3.2-4.6,4.6-25.1,20.1-54.7,36.6-90.3,48.2-14.8,4.8-30.2,8.1-47,8.1-13.6,0-24.2-4.2-33-10.5-6.9-4.8-7.4-13.2-1.7-18.5,5.8-5.4,13.8-8.8,23.6-10.3,6.8-1,9.6.1,12.1,4.7.4.8.6,1.6,1.2,2.3,1.6,1.9,4.1,2.8,7.3,2.6,3.2-.1,5.5-1.3,6.7-3.3,2-3.2.8-6.8-3.5-9-8.5-4.3-18.1-5.9-28.5-3.9-5.2,1-10.4,2.4-14.9,4.3-20.7,9.1-22.6,19-17.2,30.6.7,1.5,1.5,3.1,2.5,5.1-3.6,0-6.8,0-10,0,0,0,0-.2.1-.2.8-1.3-2.4-1.9-3.2-.6-.2.3-.3.6-.5.8h-.8c-3.2,0-6.4,0-9.5,0,.3-.4.5-.8.8-1.2.6-1-1.5-1.8-2.1-.8-.5.7-.9,1.4-1.4,2.1-.5,0-1.1,0-1.6,0-4,.2-8,.4-12.1.7,2.7-4.1,5.4-8.2,8.1-12.3.9-1.4-2.2-2.6-3.1-1.2-3.1,4.6-6.3,9.3-9.4,13.9-2.4.2-4.8.5-7.2.9-2.7.4-5.3,1-7.7,1.8,3.9-6.3,7.8-12.5,11.6-18.8.1-.2.1-.4,0-.5.2,0,.4,0,.6,0,20.9-10.4,42.5-20.1,63.7-30.2,1.7-.8.1-2.7-1.7-1.9-21.8,9.6-42.8,20.1-63.6,30.7-.4.2-.4.4-.3.7-.7,0-1.6.1-1.9.7-4.5,7.2-9.1,14.3-13.6,21.4-4.9,2.2-9,5.2-12.1,9-3.5,4.2-3.7,8.4-1.1,11.8-.4.6-.8,1.2-1.1,1.8-4.6,7.5-9,15-13.4,22.6-3.2,5.4-7.5,10.6-7.8,16.4,0,1,2.6,1.3,2.8.3,1.4-6.6,7.9-13.5,11.5-19.7,3.6-6.2,7.1-12.4,10.7-18.6,1.9,1.3,4.3,2.4,7.3,3.2.8.2,1.6.4,2.5.5-1.5,2.5-3.2,5-4.6,7.5-3.6,6.1-5.5,13.5-10.8,19-.8.8,1.1,1.8,2,1,9-7.3,12.5-17.9,17.5-26.8,4.3.6,8.8.6,13.2-.2-5.7,9.1-11.5,18.2-17.9,27.1ZM620.5,953.5c1.8-.3,3.6-.5,5.5-.6,2.8-.2,5.6-.3,8.4-.4-3.8,5.7-7.5,11.5-11,17.2-.4,0-.8-.2-1.2-.2-3.6-.4-7.5-.2-11.2,0-.2,0-.5,0-.7,0,3.4-5.4,6.8-10.7,10.3-16.1ZM605.5,969.9c-2,0-4-.3-6-1.2-1.2-4.4,1.8-7.7,6.8-10.5,2.8-1.6,5.9-2.8,9.2-3.6-3.4,5.1-6.8,10.2-10.1,15.4ZM653.2,1016.5c-2.8,1.7-5.2,3.6-8,5.3-10.8,6-25,5.3-34.9-1.5-4.2-2.9-6.8-6.2-9.4-9.7-.2-.3-.5-.5-.7-.8,7.9-8.4,12.2-18,17.6-27.1.4-.7.9-1.4,1.3-2.1,3.5-.9,6.1-2.4,7.7-4.6,1.3-1.8.5-4.1-1.5-5.4,3.8-6.1,7.8-12.2,11.8-18.3,3.6-.1,7.1-.2,10.7-.1-10.3,17.2-21.2,34.3-29.8,51.9-.6,1.3,2.3,1.8,3.1.6,10.1-17.5,20.4-34.9,30.4-52.4,5.1.1,10.1.4,15.1.9-7,11-13.8,22.1-20.5,33.2-5.7,9.5-16.1,20.3-17,30.5-.1,1.2,2.5,1.3,3.1.3,11.6-21.4,25.2-42.7,38.4-63.7.6,0,1.2,0,1.8.2,3.2.4,6.5,1.2,9.2,2.4,5.7,2.4,11.7,3.9,17.8,4.8-11.9,17.7-21.5,36.3-34.3,53.7-3.7-1.3-7.5-.6-11.8,2ZM957.4,1029.8c-.5.8-1.2,1.5-1.5,2.3-1.7,4.2-5.8,5.5-12.2,5.3-1.3,0-2.6,0-3.9,0,6.4-3.1,12.8-6.2,19.2-9.3-.6.5-1.1,1.1-1.6,1.8ZM1365.4,1014.1c-2.5,2-5.4,1.7-8.2,1.1-1.2-.2-2.2-.8-3.3-1.1-7-2-9.9-1.5-13.4,2.7-2,2.4-3.5,5-7.9,6.1-4.5,1.2-8.9,1-13.6.3-14.9-2.3-28.7-5.7-40.4-12.7-7.4-4.4-10.7-4.6-14.8-.5-7.9,2.4-15.9,4.6-23.9,6.8-1.8.5-1.1,2.4.8,2,6.9-1.7,13.6-3.5,20.2-5.6-2,2.4-4.3,4.7-7,6.7-9.9,7.4-24.5,7.8-35.6,1.3-2.6-1.5-4.8-3.2-7.3-4.7,0,0,0,0,.1,0,8.1-1.7,18.3-1,25.3-4,1.4-.6.5-2.4-1.2-1.9-4.2,1-9,.5-13.4,1-5.1.5-10.1,1.7-15,2.9-4.2-1.4-8.2-.7-11.8,2.1-.7.5-1.3,1.1-1.9,1.7-6.9,2.1-13.8,4.3-20.4,6.9-2,.8-.2,2.7,1.8,2,4.8-1.8,9.6-3.4,14.5-4.9-9.8,8.9-24.1,11.3-39.5,6.5-3.4-1.1-6.4-2.6-9.5-4-3.2-1.4-6.1-2.9-9.4-4.1-1.4-.5-2.6-.8-3.9-1.1,8.9-2.3,17.9-4.4,26.9-6.4,3-.7,1.7-3.8-1.3-3.1-17.9,4.2-35.4,8.9-52.8,14-2.4.7-.3,3,2,2.3,1.9-.5,3.8-1,5.7-1.5-.6.5-1.3,1-1.9,1.5-8.4,7.6-20.2,9.2-33.5,8.2-8.9-.7-17.2-2.3-24.6-5.7-1.9-.9-3.9-1.7-6-2.5,19-6.4,38.1-12.7,58.1-17.9,1.9-.5,1.2-2.4-.8-2-21.5,4.4-41.4,11.4-61.1,18.5-.3-.1-.6-.2-.9-.3-6.7-2.2-11.9-1.4-16.6,2.5-2.1,1.7-3.7,3.7-5.6,5.5-5.4,5.1-10.8,6.1-19.4,3.2-5.2-1.8-9.9-4.2-14.8-6.3-.8-.3-1.6-.7-2.4-1.1,12.4-5.5,25-10.8,38-15.7,2.1-.8.2-2.9-1.9-2.1-13.3,5.1-26.1,10.8-38.6,16.7-1.1-.5-2.3-.9-3.5-1.2-3-.7-5.7-.9-8-.4,13.2-6.4,26.6-12.7,40.8-18.2,1.8-.7.2-2.6-1.7-1.9-23.8,9-44.6,20.9-66.3,31.8-5.6,0-11.3,0-16.9,0-.4,0-.8,0-1.1,0,9.7-6,19.6-11.8,30-17.2,11.2-5.9,23.9-13.1,37.1-16.9,2-.6.5-2.5-1.4-2.2-11.4,1.6-22.9,9.4-31.7,14.2-12.7,6.9-24.6,14.3-36.1,22-3.5-.3-6.1-1.5-7.5-4.2-.4-.7-.8-1.4-1.3-2.1,13.8-8.4,28.3-16.2,44.4-22.7,1.5-.6.2-2.1-1.4-1.5-16.6,6.1-30.6,14.2-43.9,23.1-2.8-4.1-7.7-5-12.9-4.1,12.8-8.9,26.1-17.1,41.1-24.8,1.6-.8-.7-2.4-2.3-1.5-16.2,8.5-30.2,17.7-43.7,27.7-2.4,1-4.5,2.4-6.8,3.4-4.9,2.1-9.8,4.3-15,6-6.7,2.1-12.1,1-16.5-2.9-1.3-1.2-2.4-2.4-3.5-3.6,13.8-12.1,26.3-24.9,39.2-37.4,1.4-1.4-2-2.7-3.4-1.3-12.8,12.2-25.7,24.3-37.8,36.8-3.7-3.2-7.1-4.6-11.3-4.4,7-8.6,13.5-17.4,20.4-26,1-1.2-1.7-2.2-2.7-1.1-6.7,7.8-13.3,15.7-19.7,23.7-1.1,1.4-2.8,3-4.5,4.7-.6.2-1.1.3-1.7.5-4,1.5-7.9,3.1-11.9,4.6-3.5,1.3-7.1,2.4-10.8,3.2,0,0,.2,0,.3-.1,14.8-15,28.2-30.4,41.5-46,1.1-1.2-1.8-2.3-2.9-1.1-13.5,15.3-29.4,30.2-41.1,46.2-.5.7.2,1.2,1,1.3-5.5,1.1-11.2,1.5-17,1.4,14.1-17.8,28.3-35.7,40.8-54,.8-1.2-1.8-2.2-2.7-1-13.3,18.7-28.6,36.6-43.2,54.8-.8,0-1.5-.1-2.3-.2-3.5-.4-6.6-1.1-9.4-2.2,14.6-21.2,30.2-42.2,46.6-62.8,1-1.2-1.9-2.4-2.9-1.1-10.6,13.4-20.9,26.9-31.5,40.3-5.4,6.8-12.4,14-16.5,21.5-.5-.3-1-.6-1.5-1-2.5-1.8-4.8-3.7-7.3-5.6,1.7-3.4,2.9-6.9,4.4-9,9.6-13.3,19.1-26.6,27.8-40.1.6-1-1.5-1.8-2.2-.8-7.8,11.2-15.5,22.5-24.3,33.4-3.4,4.2-7.3,8.2-10,12.6-.2.3-.3.6-.5.9-4-1.8-8.5-2-13.1-.8,6.1-5.9,9.7-13.7,14.4-19.9,7.5-9.9,15.3-19.7,22.7-29.7.5-.7-1-1.3-1.6-.6-7.2,9.3-14.9,18.4-22.3,27.6-6.1,7.7-10.9,16.2-17.9,23.5-.2.3-.2.5,0,.8-3.5,1.4-6.9,2.9-10.1,4.4-5.5,2.6-11.5,4.5-18.3,5.1-11.8,1.1-21.5-1.2-28.4-7.8-1.9-1.8-3.5-3.8-5.5-5.5-.6-.5-1.1-.9-1.7-1.3,13.4-17.6,22.4-37,34.1-55,8.2.8,16.6.5,25.1-.5,15.8-1.9,30.5-5.7,44.8-10.6,32.5-11.3,59-27.1,82.5-45.5,2.2-1.7,4.3-3.4,6.2-5.2,17.3-17,34.1-34.2,46.4-53.1,7.7-11.9,15.7-23.8,24-36.3,1.3,1,2.5,1.7,3.1,2.6,12,18.2,22.5,37,37.5,54.3,17.1,19.7,35.3,38.9,60.7,54.7,20,12.5,41.8,23.1,66.4,31.1,16.3,5.3,33.5,8.7,51.9,9,10.8.2,20.9-1.2,30-5.1,4.7-2,9.9-2.9,15.3-3.4,12.5-1.1,25.1-1.1,37.7-.6,8.5.4,16.6,1.7,23.4,5.4,5.2,2.8,8.4,6.1,7.1,10.6-3.6,1.9-7.3,1.3-11.1,1-3.3-.3-6.7-.6-10-.3-6.2.5-8.9,4.9-4.8,8.1,2,1.6,5.1,2.9,8.1,3.6,7.9,1.8,15.8.9,23.1-1.6,9.5-3.2,12.4-9.9,7.5-16.3-5.4-7.1-14.1-11.7-25.6-13.6-7.2-1.2-14.9-1.7-22.4-2-9.6-.3-19.2,0-29.5,0,1-2.1,1.9-3.9,2.7-5.7,5.4-11.5,1.3-20.7-13-28-11.4-5.8-24-9.3-38.6-5.7-3.5.9-6.8,2.1-9.7,3.7-4.1,2.2-4.9,6-2.5,9,1.5,1.9,4,3.1,7.1,2.7,2.2-.3,4.6-1.2,6.2-2.3,1.3-.9,1.5-2.5,2-3.8,1-2.6,3.9-3.5,7.4-3.6,11.7-.4,27.9,7.2,30.8,14.7,2.2,6,.2,11.5-6.8,15.9-12.5,7.9-27.4,10.4-44.1,8.3-10.7-1.4-21.2-3.4-31.1-6.6-37.6-12.1-68.9-29.3-95-50.8-1-.8-1.7-1.9-3.3-3.7,3.2.5,5.1.7,6.8,1.1,9,2.2,17.9,4.8,27.1,6.5,11.6,2.2,23.4,1.9,34.5-1.4,4.8-1.4,9.5-3.6,13.3-6.1,6.7-4.4,7.2-10.9,1.7-15.9-2.7-2.4-6-4.6-9.3-6.8-3.4-2.2-7.8-3.2-12.5-3.6-8.6-.6-15.7,3.6-15.9,9.2-.1,4.4,5.9,7.1,12.1,5.2,2.2-.7,4-1.9,6.1-3,4,.1,6.9,1.8,9.7,3.4,3,1.7,3.6,4,1,5.8-2.6,1.8-5.5,3.5-8.8,4.5-6.1,1.9-12.8,2.9-19.6,2.2-21.1-2.2-40-7.7-57.8-17.2,3.9-.9,6.4-1.6,9-2.1,17.3-3.5,28.5-13.2,29.3-25.2.2-3.2-1.2-5.9-4.4-8.4-4.3-3.2-9.8-5.3-16-6.3-9.6-1.6-17.7,3.9-15.4,10.2,1.6,4.3,8.4,5.9,13.7,3.2,1.9-1,3.4-2.3,4.8-3.4,5,.8,7.1,2.5,6.4,5.5-2.5,10.4-11.6,17.8-30.3,18.6-6.8.3-12.2-1.1-15.8-5.2-7.4-8.4-15.3-16.5-22.3-25-6.8-8.2-12.8-16.7-19.5-25.5,3.8-1.2,7.5-2.4,11.7-3.7,8.5,4.4,17.5,7.7,29.5,7.2,12.1-.5,20.1-4.8,27.5-10.1.9.3,1.7.5,2.5.8-.2.1-.4.3-.5.4-1.3,1,.9,2.5,2.3,1.5.4-.3.9-.6,1.3-.9,4.9,1.6,9.7,3.3,14.7,4.4,10.9,2.5,18.5,2.4,25.6-.6-4.4,3.5-9,7-13.8,10.3-1.4,1,.7,2.4,2.3,1.5,9.6-5.7,18-12.1,26-18.7,3.5,1.1,6.6,2.1,9.4,2.9-5.7,4.4-11.8,8.5-18.6,12.2-1.4.8.5,2.4,2,1.7,7.9-3.7,14.6-8.1,20.8-12.8,4.5,1.1,8.2,1.8,11.8,1.9-5.2,3.8-10.3,7.5-15.6,11.2-1.6,1.1.9,2.8,2.6,1.7,6.8-4.3,13.2-8.7,19.6-13.2,5-.7,10.3-2.3,17.7-4.8.5.4,1.3.8,1.4,1.2.2,6.7,6.2,9.7,14.2,11.3-4,2.7-8.1,5.4-12,8.1-2.9,2-5.8,4-8.6,6.1-2.6,1.9-5.4,5.1-9.7,5.4-1.2,0-1.3,1.3,0,1.3,6.9.1,11.7-5,15.9-7.9,5.9-4.2,11.8-8.3,17.9-12.4,5.5.9,11.1.7,16.7.1-8.6,5.5-17.5,10.9-27.3,15.6-1.5.7-.2,2.3,1.5,1.6,12-5,22.3-11.2,32.5-17.6.2-.1.3-.2.4-.4,6.8-.7,13.8-1.1,21.1-1-8.9,6.5-18,12.9-25.6,19.9-.8.7,1,1.6,1.9,1,6.2-5.1,13.5-9.4,20.1-14.2,2.9-2.1,5.6-4.3,8.4-6.5.9,0,1.8,0,2.7,0-1,1.6-1.5,2.8-2.6,3.8-3.5,3.1-7,6.2-11,9-9.2,6.4-18.5,12.8-28.2,18.9-7.2,4.5-7.1,8,1.4,12.1,5.7,2.8,11.8,5.2,17.8,7.8,2.1.9,4.5,1.5,6.7,2.3,5.4,1.8,10.7,1.6,15.4-.9,5.2-2.7,10.2-5.7,15.4-8.6,2.7.2,2.2,1.8,2.4,3.1.9,5.2,1.4,10.5,2.6,15.6,1.5,6.3,5.5,8.4,15.3,8.7,7.1.2,14.3.1,21.4,0,2.5,0,5-.3,7.4-.7,4.7-.9,6.3-3.4,4.6-6.5-8.5-16.3-12.6-33.1-13.5-50.3,0-.3.2-.5.5-1.4,1.5.5,3.1.6,3.9,1.3,5.1,4,9.9,8.2,15,12.3,3.2,2.6,6.4,5.1,10,7.5,12.6,8.4,14.8,9,32.1,10.2,1.9,9.7,7.7,18.9,9.8,28.8,1.8,8.7,6.5,17.1,10.1,25.6,3.4,8,7.5,15.8,10.7,23.8,7,17.1,13.7,34.2,20.6,51.3,1.5,3.7,3.3,7.4,5,11.1,1.9,4.2,3.7,8.5,2.6,12.8Z"/>
        <path class="cls-2" d="M738.5,930.9c-3.8.4-6.3,2.6-6,5.4.4,3.4,4.4,6,8.8,5.7,4.2-.2,7.5-2.8,7.4-5.7-.2-3.5-4.8-6-10.2-5.5Z"/>
        <path class="cls-2" d="M1124.9,930.8c-5.5-.2-9.6,2.6-9.3,6.2.3,2.9,4,5.2,8.2,5.1,4.6-.2,7.9-2.8,7.9-6.3,0-2.7-2.9-4.8-6.8-4.9Z"/>
        <path class="cls-2" d="M785.8,923.1c4.4,0,8-2.5,7.7-5.2-.3-2.8-3.9-5-8.3-5-4.4,0-8,2.4-7.6,5.2.3,2.8,3.9,5,8.3,5Z"/>
        <path class="cls-2" d="M1080.3,912.9c-4.9-.4-9.1,1.9-9.4,5-.2,2.9,3.2,5.2,7.6,5.2,4.5,0,7.8-2.1,8.1-5,.2-2.6-2.5-4.8-6.3-5.1Z"/>
        <path class="cls-2" d="M983.9,894.5c-4.2,0-7.4,2.5-7.3,5.5,0,3,3.7,5.1,8.1,4.8,3.8-.2,6.7-2.3,6.7-4.9,0-3-3.3-5.4-7.5-5.4Z"/>
        <path class="cls-2" d="M756.8,927.6c.2,2.4,3.8,4.6,7.4,4.7,4.3,0,7.8-2.4,7.6-5.3-.1-2.6-3.3-4.6-7.3-4.6-4.3,0-8.1,2.5-7.8,5.2Z"/>
        <path class="cls-2" d="M1099.7,922.2c-3.8,0-7.3,2.1-7.6,4.6-.3,2.7,3.5,5.5,7.6,5.5,3.5,0,7.2-2.3,7.5-4.7.3-2.8-3.3-5.4-7.6-5.4Z"/>
        <path class="cls-2" d="M879.8,894.6c-4,.2-7.4,2.9-7.1,5.6.3,2.4,3.6,4.5,7.4,4.6,4.5,0,7.6-2.1,7.5-5.2-.2-3.1-3.4-5.2-7.8-5Z"/>
        <path class="cls-2" d="M907,870.2c3.9,0,7.3-2.1,7.2-4.5-.1-2.5-3.6-4.5-7.5-4.3-3.9.1-6.9,2.4-6.5,4.9.4,2.2,3.3,3.9,6.8,3.9Z"/>
        <path class="cls-2" d="M964,865.6c-.2-2.5-3.8-4.5-7.6-4.3-4,.2-6.7,2.5-6.2,5,.4,2.2,3.2,3.8,6.8,3.8,3.8,0,7.2-2.2,7-4.6Z"/>
        <path class="cls-2" d="M968.6,878.3c-3.3-.3-6.4,1.4-6.8,3.7-.4,2.4,2,4.3,5.5,4.5,3.7.1,6.6-1.4,6.9-3.6.3-2.2-2.2-4.2-5.7-4.5Z"/>
        <path class="cls-2" d="M896.8,886.5c3.5-.1,6-2.1,5.7-4.4-.3-2.3-3.4-4-6.7-3.8-3.4.3-6.1,2.3-5.8,4.5.3,2.2,3.3,3.9,6.8,3.7Z"/>
        <path class="cls-2" d="M736.6,199.2c6.6-26,26.9-51,41.7-75.3.8-1.3-2.3-1.8-3.1-.6-8.1,12.9-16.7,25.7-24.5,38.7-7.2,11.9-15.3,24.1-16.5,37,0,.9,2.2,1.1,2.4.2Z"/>
        <path class="cls-2" d="M822.7,232.2c-8,22.8-17.8,47-19,70.5,0,1.2,3,1.5,3.3.3,5-23.5,11.4-47,19.1-70.2.5-1.4-2.8-2.1-3.3-.6Z"/>
        <path class="cls-2" d="M829.3,298.5c0,1.2,2.6,1.2,2.8,0,1.2-7.9,6-15.9,8.6-23.7,2.7-8,5.1-16.1,7.5-24.2.4-1.4-2.8-2-3.2-.6-3,9.2-5.8,18.4-9.1,27.5-2.5,6.9-6.5,13.8-6.5,20.9Z"/>
        <path class="cls-2" d="M883.5,274.8c.5-2.1,1.1-4.2,1.6-6.3.4-1.7-3.6-2.5-4-.7-.5,2.1-1,4.2-1.6,6.3-.4,1.7,3.5,2.4,4,.7Z"/>
        <path class="cls-2" d="M893.3,290.1c1.4-7,4-13.9,5.3-20.9.5-2.3-5.1-2.3-5.6,0-1.4,7-4.3,13.8-4.2,20.9,0,1.9,4.1,1.8,4.4,0Z"/>
        <path class="cls-2" d="M906.6,300.8c1-4,.5-8.1,1.1-12.1.3-2.2.9-4.4,1.5-6.5.3-.2.4-.5.2-.8.8-2.7,1.8-5.3,3-8,.2-.5-.9-.7-1.2-.2-4.6,8.3-9,18.6-7,27.6.2.8,2.2.8,2.4,0Z"/>
        <path class="cls-2" d="M913.3,306.1c1.7-8.1,4.6-16,6.3-24.1.3-1.3-2.7-1.9-3-.5-2.1,8.2-5.7,16.1-6.5,24.4-.1,1.2,3,1.5,3.2.3Z"/>
        <path class="cls-2" d="M871.7,303c-17.2,15.5-21.6,36.7-28.7,54.8-.7,1.7,3.1,2.4,4,.7,9.1-17.9,11.3-38.3,28.5-54.1,1.6-1.5-2.1-2.9-3.7-1.4Z"/>
        <path class="cls-2" d="M870.2,360.5c1.6-3.5,3.3-7,5.3-10.4.9-1.6-3.2-2.4-4-.7-1.6,3.5-3,7-4.2,10.6-.4,1.2,2.3,1.7,2.8.5Z"/>
        <path class="cls-2" d="M925.3,342.8c1.6-2.1,3.1-4.2,4.7-6.3.5-.7-1-1.3-1.5-.6-1.6,2.1-3.2,4.2-4.9,6.2-.6.8,1.2,1.4,1.7.7Z"/>
        <path class="cls-2" d="M933.9,346.2c1.2,0,1.2-1.3,0-1.3s-1.2,1.3,0,1.3Z"/>
        <path class="cls-2" d="M773.4,400c18.2-9.5,36.5-19,55-28.3,1.6-.8,0-2.7-1.7-1.9-18.9,9.3-37.6,18.8-56.2,28.3-2.1,1.1.8,3,2.9,1.9Z"/>
        <path class="cls-2" d="M736.7,437.6c11.5-9.3,28.9-16.8,43-24.3,17.6-9.5,35.5-18.7,53.6-27.8,1.9-1,0-3.1-1.9-2.1-17.6,8.8-35,17.7-52.2,26.8-15,8-33.8,15.6-45.3,26-1.2,1.1,1.6,2.6,2.9,1.5Z"/>
        <path class="cls-2" d="M808.7,419.1c-37.3,22.3-77.4,43.4-111,68.2-1.5,1.1.8,2.6,2.5,1.6,37.9-22,74.3-45.3,111.3-68,1.8-1.1-.9-2.9-2.7-1.8Z"/>
        <path class="cls-2" d="M791.6,462.5c-.7.9,1.2,1.6,2.1.8,20.3-18.3,40.6-36.4,61.8-54.2,1-.9-.8-2.1-1.9-1.2-18.8,15.3-39.7,30.5-55.6,47.3-39.7,20-79.8,40.8-114.4,64.7-1.3.9.7,2.2,2,1.3,34.3-22.4,71.5-43.3,109.6-62.8-1.2,1.4-2.5,2.7-3.6,4.1Z"/>
        <path class="cls-2" d="M687.2,555.7c13.9-9.6,25.8-20.4,39.3-30.2,14.4-10.5,29.1-20.9,43.4-31.5,1.4-1-.9-2.5-2.3-1.5-28.2,20.4-55.7,40.7-82.5,61.9-1.2.9.7,2.2,2,1.3Z"/>
        <path class="cls-2" d="M764.3,516.9c-15.3,15.2-31.9,30.1-41.8,47.3-.8,1.3,2.6,2.3,3.5,1,11-16.8,26-31.9,40.9-47.3,1.1-1.1-1.5-2.1-2.6-1Z"/>
        <path class="cls-2" d="M765.6,550.3c-2.6,3.8-5.3,7.7-7.9,11.5-.9,1.4,2.1,2.6,3.1,1.2,2.6-3.8,5.3-7.7,7.9-11.5.9-1.4-2.1-2.6-3.1-1.2Z"/>
        <path class="cls-2" d="M854.5,477.1c2.1-2.4,4.3-4.9,6.4-7.3,1.2-1.4-2-2.6-3.2-1.2-2.1,2.4-4.2,4.9-6.3,7.3-1.2,1.3,2,2.5,3.1,1.2Z"/>
        <path class="cls-2" d="M823,524.2c-6.7,10.2-14.7,20-21.4,30.2-6.6,9.9-9.5,21-16.4,30.7-.6.9,1.2,1.6,2.1.8,9-8.5,11.9-20.7,17.9-30.3,6.5-10.3,14.2-20.2,20.7-30.5.7-1.1-2.1-1.8-2.8-.8Z"/>
        <path class="cls-2" d="M823.1,542.3c-8.8,15.4-17.7,30.8-26.7,46.1-.4.7,1.4,1.2,1.9.5,11.1-14.8,18.7-30.7,27.4-46.2.6-1.1-1.9-1.5-2.5-.5Z"/>
        <path class="cls-2" d="M654.1,709.5c8.3-8.8,16.6-17.6,24.9-26.4.6-.6-.9-1.2-1.5-.6-13.8,14.1-27.5,28.3-41.5,42.3-11.9,12-24.5,23.8-34.9,36.4,2.5-4.7,4.9-9.5,7.4-14.2.8-1.5-2.8-2.1-3.5-.6-5.3,9.8-10.5,19.6-16.1,29.3-1,1.6,3.1,2.4,4,.7,1.5-2.7,2.9-5.3,4.3-8,.4,0,.8,0,1.1-.3,18.6-19.3,37-38.7,55.3-58.1,0,.4.6.9,1.2.6,4.8-2.3,9.7-4.5,14.6-6.8-17.5,20.6-35,41.3-51.3,62.3-.9,1.2,1.8,2.2,2.7,1,17-21.5,34.6-42.7,52.2-64,.3-.4.1-.7-.2-1,18.9-8.8,37.8-17.5,56.9-26.1,11.7-5.3,23.3-10.5,34.9-15.8,11.1-5,23.4-8.9,33.8-14.5,1.4-.7-.4-2.3-1.9-1.6-23.4,10.6-47.7,20.3-70.9,31.2-23.9,11.3-47.9,22.6-71.6,34Z"/>
        <path class="cls-2" d="M659.6,690.4c41.7-21.7,87.1-40.5,132.1-59.2,1.6-.7.2-2.2-1.5-1.6-47.5,14.8-90.6,38.7-131.5,60.2-.6.3.2.9.8.6Z"/>
        <path class="cls-2" d="M796.5,657.8c-18,8.6-38.3,15.3-56.9,23.3-19.4,8.4-38.4,17.2-57.4,25.9-1.7.8-.1,2.7,1.7,1.9,20-8.9,39.9-17.9,60.3-26.5,18-7.6,38.3-13.7,54.4-22.9,1.4-.8-.5-2.5-2-1.7Z"/>
        <path class="cls-2" d="M752.4,691.5c-22.3,9.5-44.5,18.9-66.8,28.4-1.1.5,0,1.6,1,1.2,20.6-8.7,41.2-17.4,62-25.8,10.4-4.2,20.9-8.4,31.3-12.5,10.2-4.1,20.9-9.7,32-12.5,1.9-.5,1.2-2.3-.9-2.1-9.2,1-17.6,6-25.3,9.2-11.2,4.7-22.4,9.4-33.5,14.1Z"/>
        <path class="cls-2" d="M791.8,700.8c-26.7,10.9-52.8,22.5-79.2,33.8-1.2.5,0,1.8,1.1,1.3,26.6-11,53-22.3,79.7-33.2,1.8-.7.1-2.6-1.6-1.8Z"/>
        <path class="cls-2" d="M807.8,611.2c12.9-9.7,22.9-20.8,33.8-31.5,1.1-1.1-1.6-2.2-2.7-1.1-10.9,10.6-21.4,21.3-33.1,31.5-.9.8,1.1,1.8,2,1Z"/>
        <path class="cls-2" d="M840.8,592.1l-12.8,10.4c-1.2,1,.9,2.4,2.1,1.4,4.2-3.5,8.4-7,12.6-10.5,1.1-.9-.8-2.2-2-1.3Z"/>
        <path class="cls-2" d="M568.3,791c-6.8,10.4-14.1,20.6-17.4,31.8-.4,1.6,3,2.2,3.6.7,4.4-10.8,11.2-21,17.8-31.4,1-1.5-3-2.6-4-1.1Z"/>
        <path class="cls-2" d="M561,827.7c5-9.5,10.6-18.9,16.1-28.2,1-1.7-3.2-2.4-4.2-.8-5.6,9.4-11.2,18.7-15.6,28.3-.7,1.6,2.9,2.2,3.7.7Z"/>
        <path class="cls-2" d="M570.3,827.1c-1.3,5.3-2.8,10.5-4.8,15.7-.5,1.3,2.6,1.9,3.1.6,2.1-5.2,3.5-10.4,4.7-15.7.3-1.3-2.7-1.9-3.1-.6Z"/>
        <path class="cls-2" d="M686.4,778.6c-5.5,7.9-14.7,16.6-14.4,25.7,0,1.1,2.6,1.4,3,.3,3-9,8.7-16.5,14.2-24.9.8-1.2-1.9-2.3-2.8-1.1Z"/>
        <path class="cls-2" d="M820,761.6c6.9-3.8,15.4-6.6,21.2-11.1,1.1-.9-.6-2-1.9-1.3-13.6,7.3-28.1,13.8-41.7,21.3-15.4,8.5-29.9,17.6-44.3,26.8-1.6,1,.8,2.6,2.4,1.6,14.6-9,29.5-17.9,44.9-26.4,6.5-3.6,12.9-7.3,19.5-10.8Z"/>
        <path class="cls-2" d="M855,754.9c-29.1,10.8-54.7,24.6-79.7,39.1-1.9,1.1.9,3,2.8,1.9,24.9-14.1,50.6-27.6,79.1-38.4,2.5-1,.3-3.5-2.3-2.6Z"/>
        <path class="cls-2" d="M696.9,790.6c-3.2,4.7-5.1,9.7-5.8,14.8-.2,1.2,2.8,1.2,2.9,0,.4-4.9,1.4-9.9,3.7-14.6.1-.3-.6-.5-.8-.2Z"/>
        <path class="cls-2" d="M703,794.9c-.2,3.7-2.4,7.7-4,11.2-.6,1.3,2.5,1.8,3,.5.8-2.1,1.6-4.1,2-6.2.4-1.9.2-3.7.3-5.6,0-.6-1.3-.6-1.3,0Z"/>
        <path class="cls-2" d="M559.1,969.6c10.6-13.9,21.7-27.6,33.1-41.2.9-1.1-1.7-2.1-2.6-1-22.7,26.3-43.9,52.7-60.4,80.9-.6,1,1.8,1.6,2.6.7,5.2-5.9,7.5-12.3,11.6-18.4,4.8-7.1,10.3-14,15.6-20.9Z"/>
        <path class="cls-2" d="M602.3,929.5c-23.5,27.5-44,56-60,85.8-.8,1.4,2.8,2.4,3.7,1,18.9-29,35.4-58.1,58.9-85.8,1-1.1-1.7-2.1-2.6-1Z"/>
        <path class="cls-2" d="M679.7,959.7c-8.3,12-17.1,24-25.3,36-5.4,7.9-13.9,16.6-14,25.4,0,1,2.5,1.3,2.8.2,2.3-9.7,12.7-20.6,18.9-29.6,7-10.3,14.3-20.4,21.2-30.7,1-1.5-2.4-2.9-3.5-1.3Z"/>
        <path class="cls-2" d="M719.3,964.9c-7.2,9.8-14.2,19.7-21.4,29.5-3.3,4.6-6.9,9.2-10.1,13.9-2.3,3.4-3.8,8.4-7.5,11.1-1.1.8.4,2.2,1.8,1.5,8.6-4.1,11.9-13.6,16.2-19.7,8.2-11.6,16.3-23.3,24.6-34.9,1.1-1.6-2.4-3-3.6-1.4Z"/>
        <path class="cls-2" d="M743,961.7c-9,11.2-18.2,22.3-26.6,33.7-5.9,8-14.4,16.8-16.1,25.7-.2,1.1,2.6,1.6,3.2.6,13.2-19.8,28.1-39.3,43.3-58.5,1.4-1.7-2.5-3.2-3.9-1.5Z"/>
        <path class="cls-2" d="M754.5,970.2c-13.5,16.6-28.8,32.8-40.2,50.1-1.2,1.8,2.8,3.5,4.2,1.6,12.4-17.1,25.9-33.7,39.2-50.5,1.1-1.3-2-2.5-3.1-1.2Z"/>
        <path class="cls-2" d="M883.5,1005.7c-6.5,5.4-13.1,10.7-19.5,16.1-3.8,3.2-10.2,6.7-10.8,10.9-.1.9,1.8,1.1,2.5.4,8.8-9.1,20.1-17.3,30.2-25.8,1.3-1.1-1-2.7-2.4-1.6Z"/>
        <path class="cls-2" d="M917.1,999.5c-6.1,3.6-11.9,7.4-17.7,11.2-.2,0-.2-.1-.4-.1-1.2,0-1.6.7-1.4,1.3-8.7,5.9-16.9,12.1-24.1,19-1.4,1.4,1.9,2.6,3.3,1.3,12.3-11.5,27.7-21.2,42.2-31.4,1.2-.9-.6-2.1-2-1.3Z"/>
        <path class="cls-2" d="M839.2,787.1c20.3-10.3,39.8-21.4,60.3-31.4,1-.5,0-1.7-1.1-1.2-21.3,9.4-40.4,21.1-60.6,31.5-1,.5.3,1.6,1.3,1.1Z"/>
        <path class="cls-2" d="M920.1,760.6c-26.3,14-57.2,25.4-85.5,37.5-1.7.7-.1,2.6,1.6,1.8,28.5-11.9,61-23,86.1-37.9,1.5-.9-.7-2.3-2.2-1.5Z"/>
        <path class="cls-2" d="M1024.5,585c-2.8,0-2.8,2.9,0,2.9s2.8-2.9,0-2.9Z"/>
        <path class="cls-2" d="M926.8,380c14.6-4.7,28.9-9.8,43.9-13.9,1.1-.3.7-1.5-.5-1.3-15.6,3.5-30.2,8.6-45,13.3-1.8.6-.2,2.4,1.6,1.8Z"/>
        <path class="cls-2" d="M948.5,379.7c9.7-2.3,19.5-4.4,28.9-7.3,1.2-.4.2-1.5-1.1-1.2-9.3,2.6-18.9,4.9-28.3,7.3-1.1.3-.6,1.4.5,1.2Z"/>
        <path class="cls-2" d="M994.3,363c1.2,0,1.2-1.2,0-1.2s-1.2,1.2,0,1.2Z"/>
        <path class="cls-2" d="M999.1,285.8c1.9,0,1.9-1.9,0-1.9s-1.9,1.9,0,1.9Z"/>
        <path class="cls-2" d="M1174.9,779.4c-6,8.3-13.6,16-18.9,24.5-.8,1.3,2.5,2.2,3.5,1,6.4-8,13.6-15.8,19.4-23.9,1.3-1.8-2.8-3.4-4.1-1.6Z"/>
        <path class="cls-2" d="M1153.9,792.9l-4.8,6.3c-1.6,2,3.1,3.9,4.7,1.8l4.8-6.3c1.6-2-3.1-3.9-4.7-1.8Z"/>
        <path class="cls-2" d="M1113.5,815.9c-7.4,4.9-14.7,9.9-22.1,14.8-1.6,1.1.9,2.8,2.6,1.7,7.5-4.8,14.9-9.7,22.4-14.5,1.9-1.2-1.1-3.2-2.9-1.9Z"/>
        <path class="cls-2" d="M594.8,931.5c23-12.9,47.1-24.7,70.5-37.3,1.9-1-.8-2.7-2.6-1.7-23.2,12.7-46.8,24.9-69.3,38.1-1,.6.5,1.5,1.5,1Z"/>
        <path class="cls-2" d="M527.7,971.4c-9.9,11.5-19.9,23.1-27.6,35.3-.4.6.8,1.3,1.7,1.1.7-.2,1.4-.4,2.1-.6,1.2-.3,1-1.3,0-1.5,8.5-11.2,17.1-22.4,26.3-33.4.9-1.1-1.6-2-2.5-1Z"/>
        <path class="cls-2" d="M1058.4,1007.3c-19.4,6.9-39,13.4-58.5,20.2-1.8.6-.2,2.5,1.6,1.8,19.6-6.6,39.5-12.9,59-19.6,2.4-.8.3-3.2-2.1-2.4Z"/>
        <path class="cls-2" d="M1119.2,1014.6c-20.7,4.6-40.6,10.3-60.5,16.2-1.7.5-.2,2.1,1.4,1.6,19.8-5.5,39.7-10.9,60.2-15.3,2.4-.5,1.4-3.1-1.1-2.5Z"/>
        <path class="cls-2" d="M1200.4,1008.6c-15.1,3.6-28.9,7.8-43.2,12.8-1.5.5-.2,2,1.4,1.5,14-4.6,28.1-8.5,42.6-12.4,1.7-.5,1-2.3-.8-1.9Z"/>
        <path class="cls-2" d="M769.7,810.9c-17.6,7-34.5,14.8-50.9,22.9-1.5.7,0,2.4,1.5,1.7,16.6-8,34.2-15.1,50.7-23.1,1.3-.6.2-2-1.3-1.5Z"/>
        <path class="cls-2" d="M776,823.1c2.6-1,5.3-2.1,7.9-3.1,1.9-.7.2-2.7-1.7-1.9-2.6,1-5.3,2.1-7.9,3.1-1.9.7-.2,2.7,1.7,1.9Z"/>
      </g>
    </g>
  </g>
</svg>