<?xml version="1.0" encoding="UTF-8"?>
<svg xmlns="http://www.w3.org/2000/svg" version="1.1" viewBox="0 0 1920 1080">
  <defs>
    <style>
      .cls-1 {
        fill: #555769;
      }
    </style>
  </defs>
  <!-- Generator: Adobe Illustrator 28.7.2, SVG Export Plug-In . SVG Version: 1.2.0 Build 154)  -->
  <g>
    <g id="Capa_1">
      <g>
        <path class="cls-1" d="M733.6,75.9c-.7-5.9-7.6-4.7-7.1,1.4,1.1,14-2.5,27.4-6.6,39.7-4.4,13-9.5,25.4-14.4,38-10,25.8-19.8,51.7-29.9,77.5-20.1,51.2-40.4,102.1-61.5,152.4-21,50.2-42.9,99.7-65.7,148.3-11.4,24.4-23.1,48.5-35.2,72.3-11.3,22.4-22.5,45.2-35.1,66.1-13.5,22.3-29.1,43.9-47.9,55.7-17.8,11.1-40,13.4-58.5,4.8-6-2.8-8.5,11.1-2.5,14.1,18,8.8,36.7,6.3,54.2-4,17.2-10.1,32.8-24.5,46.6-42.8,14.1-18.7,26.1-40.7,37.8-62.8,12.6-23.8,24.8-48.1,36.7-72.7,47.9-99.2,90.8-203.6,132.3-308.9,11.6-29.4,23.2-58.9,34.7-88.4,5.7-14.6,11.8-29.2,16.8-44.4,4.8-14.7,7.2-29.9,5.2-46.2"/>
        <path class="cls-1" d="M727.5,72.9c-38.8,34.3-79.9,63.6-110.6,114.5-28.7,47.6-43.6,110.3-46.1,173.9-1.4,35.5.4,71.9,8.7,105.4,2.1,8.4,11.1,5.1,9.1-3.6-6.6-29-11.3-59.1-11.5-89.8-.3-30.9,3.6-61.5,10.9-90.3,7.3-28.6,18-55.6,31.2-78.9,14-24.8,30.8-45.7,48.4-64.4,20.1-21.3,41.8-39.8,64-56,4.8-3.5.5-14.8-4.1-10.8"/>
        <path class="cls-1" d="M356.5,676c22.9,2.7,45.4,8.3,67.9,15.1,11.3,3.4,22.7,7.1,33.8,11.6,0,0,0-.2.1-.3,1.5-3,3.2-5.6,4.9-8.2l.8-1.2c-22.3-8.5-44.5-16.2-67.4-20.7-23.1-4.5-46.3-7.2-69.6-9-13.2-1-26.5-1.8-39.6.6-3.3.6-3.4,6.8-1.3,9.6,14.8,20.1,30.1,39.9,47.8,53.7,8.8,6.9,18.4,11.9,28,15.6,9.4,3.6,19.2,6.2,28.9,3.9,1.7-.4,1.9-4.2.3-5.1-8.9-4.8-18.3-7.4-27.4-11.5-9.1-4-17.7-9.4-26.4-15.1-8.7-5.7-16.8-12.8-24.9-20.2-6.1-5.5-11.5-12.5-16.4-20.2,8.7,0,17.5-.4,26.2-.5,11.5-.1,22.9.7,34.3,2"/>
        <path class="cls-1" d="M284.9,663.3c-10.1,2.7-20.1,6.8-30.1,10.3-10.2,3.5-20.4,7.2-30.6,11-20,7.5-39.9,15.1-59.7,23.7-19.9,8.7-39.8,17.8-59.4,28.1-18.9,10-38,20.5-56.1,33.6-8.6,6.2-17.1,14.9-20.9,28.7-3.4,12.3-2.9,26.8,3.4,36.8,3.8,6.1,10-3.4,6.1-9.3-5.1-7.5-4.1-19.8-.4-28.2,4.5-10.4,12.7-16.1,19.9-21,17.8-12.1,36-22.9,54.4-32.9,36.4-19.8,73.7-36,111.4-49.2,10.6-3.7,21.3-7.2,31.9-10.6,10.6-3.4,21.5-5.9,32-9.7,4.9-1.7,2.8-12.6-1.9-11.3"/>
        <path class="cls-1" d="M797.3,405.7c-8.4,16.4-19.8,29-30.8,40.9-11.3,12.3-23.5,22.7-35.6,33.1-24.4,20.8-47.7,43.3-69,70.9-21.6,28-41.3,59-58.4,93.4-17,34.1-31,71.2-42.8,110.1-6.8,22.3-13.4,44.6-21.1,66.3-7.5,21.3-16.1,42.7-27.4,59.8-1.5,2.2.8,5.7,2.3,3.5,10.3-14.7,19.3-30.9,26.9-49,7.6-18.5,13.9-38.1,20.2-57.7,12.4-39.2,25.1-77.8,41.6-113.4,16.2-34.8,34.9-66.8,55.8-95.2,21.1-28.7,44.8-52.3,69.4-73.3,13.6-11.6,27.4-22.9,40.3-36.6,12.7-13.5,22.8-30.1,31.2-49.9,1-2.2-1.4-5-2.5-2.9"/>
        <path class="cls-1" d="M808.4,312.6c-2.2-16.7-5.4-33.1-8.6-49.4-3-15.1-5.8-30.3-9-45.3-6.3-30-13.8-59.5-23.7-87.2-5.3-15-11.3-30.2-18.8-43-4.8-8.3-11.4-14.8-18.4-15.4.1.9.3,1.8.4,2.8.2,2.1.4,4.3.5,6.5,6.5.9,12.3,9.6,16.1,17.4,5.7,11.5,10.7,23.8,15.2,36.5,9,25.5,15.6,52.8,21.3,80.4,5.9,28.4,11,57.2,15.6,86.1,4.5,28.7,5.9,57.7-.4,86-2.9,12.8-7.9,24.6-13.7,34.6-6.3,10.8-12.7,18.9-20.7,26.5-2.1,1.9-1.3,7.4,1.1,6,16.1-9.3,29.2-30.7,36.9-53.7,4-11.9,7-24.2,8.2-37.5,1.5-17.1.2-34.4-2-51.2"/>
        <path class="cls-1" d="M795.1,409.8c-11.8,23.3-21.4,48.3-28.8,75.6-7.5,27.5-13,56-17.3,84.9-9.5,63.6-15.5,128.5-20.1,193.3-2.7,38.5-4.8,112.2-6.3,150.8-.3,7.2,7.1,7.2,7.4,0,2.5-67.3,7.2-169.3,13.8-236,5.9-60,12.3-120.5,25.3-178,7-30.8,16.2-61.2,28.4-88,.9-2-1.3-4.7-2.3-2.7"/>
        <path class="cls-1" d="M693,522.7c-1.3-4.5-6.5-1.3-5.3,3.3,5.3,20.2,7.2,42.2,8,63.9.8,22.8.3,45.8,0,68.6-.8,47.2-2.5,94.3-3.9,141.4-.8,26.6-1.6,88.2-2.3,114.8-.1,5.6,5.5,5.6,5.7,0,1.2-47.9,2-130.9,3-178.8,1-47.1,2.2-94.3,2.5-141.5.1-24.6-1.3-48.8-7.7-71.6"/>
        <path class="cls-1" d="M729.5,911.8c-1-2.7-3.1-3.4-4.8-2.1-2.4,1.7-4.9,3-7.4,4.2-2.7,1.3-5.3,2.6-8.1,2.7-5.5.2-10.9-2-16.3-3.8-2.5-.9-4.5,4.7-1.9,6.7,5.7,4.5,12,5.3,18.4,4.9,3.2-.2,6.4,0,9.5-.9,3.2-.8,6.2-2.5,9.2-4.5,1.7-1.1,2.3-4.9,1.4-7.3"/>
        <path class="cls-1" d="M721.8,513.8c-6-6.5-13.8-6.9-20.9-6.8-3.8,0-3.7,8.9,0,8.9,5.9,0,13.1,0,18,5.9,6.1,7.4,3.7,20.8,2.6,30.8-2.8,26.1-4,52.6-5.8,78.8-3.6,53.1-7.2,106.1-10.6,159.3-1.9,30.5-3.9,96-5.8,126.5-.4,6.1,5.9,5.9,6.3-.1,3.4-56.8,7.1-148.5,10.2-205.4,1.5-28.1,2.9-56.2,4.7-84.2.9-14.5,2-28.8,3.7-43.1,1.6-13.2,3.4-26.5,4.3-39.8.9-11.5-.3-23.5-6.9-30.6"/>
        <path class="cls-1" d="M726.3,875.9c-1.4.5-2.7,1.8-4.1,2.4-1.4.7-2.8,1.1-4.3,1.5-2.6.7-5.4.8-8,.5-2.7-.3-5.3-1-7.9-2.2-2.8-1.2-5.3-3.7-8.2-4.5-2.3-.6-3.7,3.2-2.2,5.9,2,3.7,5.5,5.4,8.4,6.8,3.1,1.5,6.4,2.3,9.6,2.7,3.2.3,6.3,0,9.5-.7,1.5-.4,3-.9,4.5-1.5,1.6-.6,3.4-1.1,4.9-2.5,2.8-2.7,1.1-9.6-2.2-8.4"/>
        <path class="cls-1" d="M701.9,904.4c0-.6-.2-1.1-.4-1.6,0-1.1,0-2.2,0-3.3.1-4.8.4-9.6.2-14.4,0-2.4-1.1-4.4-2.8-4.8-1.5-.3-3.1,1.2-3.5,3.5-.6,4-1,8-1.4,12.1-.4,4.1-.8,8.1-1.2,12.2-.2,2.6-.6,5.3,0,7.9,1.1,4,4.1,5.6,6.6,3.7,3.5-2.7,2.7-10.6,2.3-15.3"/>
        <path class="cls-1" d="M724.6,885.3c-1.4-2.8-3.6-3.5-5.7-2.9-1.1.3-2.2,1-3.3,1.6-.8.4-1.7.9-2.5,1.3-.4-2.1-1.8-3.6-3.2-3.3-1.5.3-2.4,2.1-2.6,4.5,0,1.2-.3,3.2-.3,4.7,0,.8,0,1.7-.1,2.5,0,.4,0,.7,0,1.1,0,0,0,.7,0,1,0,.2,0,.6,0,.7,0,.5,0,.9-.1,1.4,0,.7-.2,1.5-.3,2.2-.2,1.6-.4,3.3-.7,4.9-.2,1.4-.5,2.9-.7,4.3-.3,1.7-.7,3.4-.7,5.2,0,2.7.7,5,2.1,6.7,1.6,1.9,3.5,1.7,5.4,1,2.1-.8,4.2-1.5,6.3-2.3,2.5-.9,5.2-1.7,6.5-5.5.7-2,.7-4.2.8-6.4,0-1.8.1-3.5.2-5.2.1-3.4.2-6.8.3-10.2,0-2.6,0-4.9-1.2-7.1"/>
        <path class="cls-1" d="M538.8,834.3c-2.7,4.6-5.7,8.8-8.7,12.9-.8,1.1-1.6,2.1-2.4,3.2-3.1,7.4-6.5,14.5-10.3,21.1-10.3,18-22.3,31.8-36,43.2-31.6,26.6-69.1,31.9-104.5,31.2-79-1.6-157.3-27.2-233.9-55.1-21.8-7.9-43.7-15.2-65.4-23.2-9.3-3.4-18.9-5.9-27.4-12.6-6.3-4.9-12.3-12.3-13.3-23.7-.5-5.5-6.3-4.2-6.2,1.2.6,23.9,17.9,30.4,30.2,35.2,20.3,7.8,40.3,17,60.6,25.2,40,16.1,80.6,29.6,121.4,40,40.5,10.3,81.3,19.1,122.3,22.2,37.4,2.8,76.6-.6,111-25.2,14.5-10.3,27.6-24.4,39.2-41.3,10.6-15.4,19.8-35.1,24.7-56.4-.4.7-.8,1.4-1.2,2.1"/>
        <path class="cls-1" d="M498.6,903.3c1.1-2.5,2.2-5,3.3-7.5-11,10.3-23.2,18.1-35.4,23.8-33.7,15.8-70.3,15-105.2,12.2-73.4-5.7-145.6-29.9-217.2-53.6-19-6.3-38-12.6-56.7-20.6-9.1-3.9-18.2-8.2-27.1-13.3-8.9-5.1-17.4-11.6-26-17.4.1,1.2.2,2.5.3,3.7.2,2.6.1,5.2,0,7.9,6.4,4.6,13,8.2,19.8,11.8,8.2,4.3,16.4,8.6,24.8,12.4,17.1,7.8,34.5,13.9,51.9,19.8,36.6,12.3,73.2,24.4,110.1,34.7,36.4,10.1,73.2,18.1,110.1,22,36.1,3.8,73.2,5.1,108.6-7.7,12.6-4.5,24.7-11.5,35.9-21,1-2.4,1.9-4.8,2.9-7.2"/>
        <path class="cls-1" d="M742.3,480.2c-5.9,4.2-12,8-18.3,10.9-1.1,4.2-2.1,8.2-3,11.9-.4-1-1-1.8-1.7-2.3-.1-.2-.2-.4-.4-.6-2.5-1.8-6.4.3-8.5,4-2.5-1.7-6,0-7.1,7.8,0,.5-.2.9-.2,1.4-1.2-1.2-3.2-.5-3.7,2.8-3.6,14.1-.4,29.5.9,43.9.4-9.8.5-17.7,1.1-25.4,0,5.9.1,11.8.3,17.7.7,22,1,44.1,1.6,66.1,1-16.6,2-33.4,3.2-49.4-1.1,27.8-1,55.7-1.6,83.5,1.9-19.8,4.2-42.2,6.8-64.4-2.2,48-2.7,101.5-3.6,113.8,3.7-40.9,7-81.8,11.8-122.8-.8,12.5-1.5,24.6-2,36,5.6-45.9,14.8-90.4,24.3-134.7"/>
        <path class="cls-1" d="M757.3,468.8c-4.9,3.9-9.9,7.7-15,11.4-5.9,29.7-11.2,61-14.1,84.9-7.5,62.9-9.9,127.7-9.2,196,1.4-32.1,4.3-65,8-97.6-3,50.8-3.1,102.6-4.9,156.4,7-70.3,11-130.6,20.3-199.7,7.4-59.2,23.8-131.1,35.2-172.1-5.6,8.2-12.7,14.8-20.3,20.8"/>
        <path class="cls-1" d="M684.3,224.5c1.3-4,2.7-8.1,4-12.1-25.6,29.9-48.4,65.5-65.4,107.2,17.2-34,37.2-60.3,59.3-83.6.1-3.7.8-7.6,2.1-11.5"/>
        <path class="cls-1" d="M682.3,237.8c-22.4,28-41.9,61-57.2,98.7,14.2-26.5,31.9-52.9,47.8-70.3.2-.3.5-.5.7-.8,3.1-7.6,6-15.2,9-22.8-.2-1.6-.3-3.2-.3-4.8"/>
        <path class="cls-1" d="M703.7,130.7c-31.8,28.6-61.5,64.6-84.1,109.2,25.5-40.4,57-70.7,90.7-95.4,6.7-20.2,13.5-40.3,20.9-59.9-6.4,4.9-12.8,10-18.5,15.1-38.8,32.8-74.7,75.6-99.9,131.8,25.1-44.3,57-74.7,90.9-100.8"/>
        <path class="cls-1" d="M710.1,145.3c-1.5,1.4-3,2.7-4.5,4.1-32.9,30.5-63.2,69.1-84.7,118.3,22.7-40.6,49.1-69,79.4-94.2-32.8,34.6-62.9,79.7-80.8,121.1,19.7-36.2,45.4-67.2,72.3-92.7,6.1-18.7,12.1-37.7,18.3-56.6"/>
        <path class="cls-1" d="M590.1,422.5c8-31.3,17.2-61.8,28.9-91.5-14.6,29.1-27.5,60.4-38.3,93.2,9.8-40.6,21-78.7,37.9-116.2-18.7,30.9-33.3,66-45,103.5,0,1,.1,2.1.2,3.1,1.7,16,3.8,31.9,6.2,47.7,1.3,5.3,2.6,10.7,3.8,16.1,11.4-44.2,23.2-92.1,39.5-134.3-12.4,25.1-23.4,51.4-33.2,78.4"/>
        <path class="cls-1" d="M577.3,314.2c-.9,7.1-1.7,14.2-2.3,21.3,11.4-33.5,24-65.9,40.5-93-9.9,12.5-18.9,26.9-27.2,42.4,7.3-18.2,15.2-35.9,23.7-52.7-11.5,16.4-22,34.2-31.3,53.3-.9,9.5-2.1,19.1-3.3,28.7"/>
        <path class="cls-1" d="M621.2,251.8c-18,25.3-33.4,54.3-46.3,85.5-1.5,16.4-2.5,32.8-2.9,49.3.4,6.3.8,12.6,1.2,18.9,11.1-42.4,26-83.8,45.2-123.8-15.4,24-28.8,49.5-40.1,76.1,11.7-37.6,25.9-73.5,42.9-105.9"/>
        <path class="cls-1" d="M465.8,702.3c-49.4-12-106-16.4-160.2-22.3,29.1,8.6,58.1,17.8,87.1,27.2-20.8-2.6-42.2-5.1-64-8.7,27.7,9,55.2,19.7,82.8,29.3-21.6-3.3-41.2-6.6-63.2-13.8,20.6,12.3,41.8,23.4,63.5,30.7,16-13,32.5-24,48.5-36.1,1.8-2.1,3.6-4.2,5.4-6.4"/>
        <path class="cls-1" d="M214.6,903.4c-37-10.8-74.4-17.3-111.6-26-4-.9-10.2-2.9-12.7-3.6,3,1.5,6.1,2.9,9.2,4.2,37.3,15,75.3,25.7,112.9,38.6,47.5,18.2,96.6,26.1,145.6,23.6-48.2-4.8-94.6-21.4-143.4-36.9"/>
        <path class="cls-1" d="M543.7,807.7c-1.7,1.8-3.5,3.5-5.3,5.3.3-.8.6-1.6.9-2.4-.6,1.1-1.2,2.2-1.8,3.3-3.4,3.5-6.8,7-10.2,10.3-27.3,25.6-50.2,44.4-80.5,55-23.5,7.9-44.1,15.2-67.7,14.1,29.9,9.6,62.1,7.4,91.2-7.1,25.3-13.8,42.8-37.3,62.2-63.4-3.9,6.7-7.9,13.3-12.2,19.4-11.2,15.5-19.6,26.1-33.4,36.7-16.4,12.8-48.2,24.2-64.8,26.6-37.3,6.3-76.1,6.1-112.6-3.3,72.6,37.3,172.6,43.2,220.8-69.6,2.2-5.1,4.4-10.5,6.5-15.8,2.3-3,4.6-6.1,6.8-9.2"/>
        <path class="cls-1" d="M496.6,832.5c-7.7,8.5-24.3,19.3-26.7,20.5-15.6,9.5-31.6,19.9-49.6,25.5,29.4,1.3,58.8-16,79.5-48.2,1.1-1.6,2.2-3.4,3.2-4.9-2.1,2.4-4.2,4.8-6.4,7"/>
        <path class="cls-1" d="M482.3,824.5c-6.9,5.9-16.6,12.2-20.5,14.7-6,3.6-11.1,7.9-19.7,11.4,15.5-.6,29.9-11.7,41.5-26.9.3-.4.5-.7.8-1-.7.6-1.4,1.2-2.1,1.8"/>
        <path class="cls-1" d="M787.1,303.2c-2.2-9.1-5-18.6-7.6-27.2,1.8,11.1,3.5,22.3,4.8,33.6,1.6,14.8,3.3,30.4,2,47.6-.5,8-7.9,34.2-12.1,40-14.8,24.6-26.9,36.9-44.8,55.4-15.1,15.1-29.6,31.9-45.2,45.9,16.9-10.2,33.2-21.8,49.6-34.2,20.1-15.4,40.3-34.7,52.6-64.4,4.6-13.1,7.9-27.6,8.4-42.5,0-18.6-3.7-36.8-7.8-54.2"/>
        <path class="cls-1" d="M772.9,314c-1.4-5.3-3.1-11.2-4.7-16,1.7,9.9,3.2,20,4.2,30.2,3.6,32.2-8.8,56.5-26,80.3-13,17.6-26.1,36-39.9,51.3,36.2-26.6,90-73.2,66.4-145.9"/>
        <path class="cls-1" d="M724.5,422.1c9.3-8.1,18.3-17.4,25.5-29.7,7.3-12.7,14.5-35.7,15.6-48.4-11.8,33.6-22.2,50.8-41.1,78"/>
        <path class="cls-1" d="M734.5,386c6.1-3.9,10.7-12.9,13.3-21.4-4.2,7.4-8.3,15.2-13.3,21.4"/>
        <path class="cls-1" d="M638.1,377.6c37.2-76.7,70.3-159.3,97.3-244.7-35.3,78.9-67.5,160.7-97.3,244.7"/>
        <path class="cls-1" d="M680.2,306.6c9.1-22.8,19.8-44.2,28.9-67,10.4-25.8,20.7-58.1,28.8-82.5-22.1,47.1-43.1,95.9-57.7,149.6"/>
        <path class="cls-1" d="M709,264.9c11-23.4,20.8-50,28.2-75.5-10.9,23.8-20.8,48.7-28.2,75.5"/>
        <path class="cls-1" d="M733.4,231.1c4.4-9.6,8.2-20.2,11-30.9-4.4,9.6-8.2,20-11,30.9"/>
        <path class="cls-1" d="M489.6,695.9c50.7-88.5,97.3-184.6,134.7-286.5-46.6,92.6-92.4,188-134.7,286.5"/>
        <path class="cls-1" d="M526.4,650.4c12.3-24.8,27.4-50.9,38.5-74.1,19-39.2,35.4-82.2,51.4-123.8-31.5,63.2-63.1,126.8-89.9,197.9"/>
        <path class="cls-1" d="M560.5,610.1c18.9-35.4,35-75.2,50.5-113.6-19.8,34.7-35.9,73.4-50.5,113.6"/>
        <path class="cls-1" d="M579.9,610.1c13.6-30,27.6-63.2,38.5-94.1-14.6,29.6-28.2,60.5-38.5,94.1"/>
        <path class="cls-1" d="M442.2,749.7c-15.7,9.7-28.3,10.5-45.3,10.6-29.2,0-56-4.9-81.5-29.4,22.5,30.6,51.7,43.7,81.9,41.6,20.1-.3,39.9-8.5,56.3-26.6,3.7-3.7,8-8.2,11.3-11.8-7.6,5.6-16,11.8-22.6,15.6"/>
        <path class="cls-1" d="M459.9,767.4c-19.1,10.7-35.9,15.6-55.4,17-11.4,1.2-23.1,2.1-34-1.9,17.4,10.5,36.8,11,55.1,7.1,13.2-3.5,25.5-12.2,37.1-22.2,1.7-1.5,4-3.7,5.2-5-2.6,1.8-5.3,3.4-8,4.9"/>
        <path class="cls-1" d="M417,806.5c17.6,2.6,35.5-5.1,50.6-18.2-16.4,8.4-33.6,14.2-50.6,18.2"/>
        <path class="cls-1" d="M445.6,825.7c3.7.2,7.5-1.5,10.8-3.5-3.6,1-7.2,2.4-10.8,3.5"/>
        <path class="cls-1" d="M229.9,708.4c-59.9,19.2-121.3,39-175.2,84.6,20.5-14.4,43.1-22.2,64.6-32.9,38.5-17.4,77-35,115.4-52.6,1.6-.7,3.5-1.5,4.5-2.1-3.1,1-6.2,1.9-9.3,2.9"/>
        <path class="cls-1" d="M102.2,785.8c31.9-12.8,64.4-27.2,95.6-42.2-32.7,8.8-65.2,21.3-95.6,42.2"/>
        <path class="cls-1" d="M137,792.1c7.2-.6,14.2-3.9,20.9-7.4-7.1,1.6-14,4.5-20.9,7.4"/>
      </g>
      <g>
        <path class="cls-1" d="M1431.5,439.1c47,78.7,103.2,144,166.1,190.4,31.8,23.5,65.1,41.8,99.5,54.1,35.5,12.7,71.7,23.2,105.6,44.5,18.4,11.6,36.9,25.3,53.1,43,13.8,15.2,27.9,36.2,31.1,62.8,1.2,9.9-8.8,11.8-8.9,1.8-.5-25.7-12.6-44.4-25.9-58-14.7-15.1-31.3-26.3-48-35.2-34.3-18.3-69.8-30.7-104.7-46.3-33.5-14.9-66.6-30.5-98.5-52.2-31.3-21.4-61.3-46.9-89.3-77.2-31.7-34.1-61.2-73.1-87.1-117.2-4.2-7.2,2.7-17.9,7-10.7"/>
        <path class="cls-1" d="M1394.4,475.2c1.4,5.7,5.3,8.7,8.8,7.2.4,0,.7,0,1.1-.1,2.4-.6,4.6-2.9,6.3-5.5,1.7-2.6,3.2-5.8,4.7-8.7,1.9-3.6,3.7-7.1,5.6-10.6,3.2-5.8,6.5-11.4,9.7-17.1,2.7-4.8,6.6-11.4,5.2-18.4-1-5.1-4.8-8.3-8.2-8.3-4,0-7.3,4.2-10,8.3-7,10.6-13.5,22.2-19.7,33.9-2.9,5.5-5.3,12.1-3.6,19.3M1405.2,468.6c-1,1.4-2,2.1-3.3,2.6-.7-.8,1-5.4,1.4-6.2,2.4-4.8,5.1-9.4,7.5-14.1,2.3-4.5,4.6-9,6.9-13.5,2-4,3.7-8.3,5.9-12,1.2-2.1,4-5.5,5.8-2.7.5.8.4,1.4,0,2.2-1,2.1-2.4,3.8-3.4,5.9-2.3,4.3-4.3,8.9-6.6,13.1-2.4,4.3-4.7,8.8-7.2,13-2.3,3.9-4.4,8.2-7,11.6"/>
        <path class="cls-1" d="M1368.7,427.3c1.8,4.1,5.3,6.2,8,4,1.7.1,3.3-.7,4.7-2.2,4.1-4.3,7.2-11.1,10.3-16.9,3-5.6,5.9-11.1,9-16.5,2.8-5,6.6-10.4,6.2-17.5-.4-6.9-4.6-10.6-8.9-9.3-4.1,1.2-7.3,6.9-10.2,11-6.3,9-12.2,18.9-17.2,29.6-2.3,5.1-4.3,12-1.8,17.8M1377.7,420.3c-1,1.1-2,1.9-3,2.6,0-.2-.2-.5-.2-.6-.4-1.6,0-3.3.5-4.8,1.4-4.4,3.6-8.5,5.7-12.3,4-7.5,8.4-14.4,13.1-20.9,1.3-1.9,4.1-7.2,6.3-6.3,2.1.8-1.1,6.2-1.7,7.3-4.7,8.2-9.5,16.2-14.3,24.4-2,3.5-3.9,7.9-6.3,10.6"/>
        <path class="cls-1" d="M1339,375.6c.7,5.8,4.3,10.2,8.1,8.8.5-.2,1-.5,1.3-1,.3-.3.6-.7.9-1.2,4.2-9.8,8.7-20.4,15.1-27.2,1.5-1.6,3.1-3,4.7-4.2,1.6-1.1,3.3-2,4.9-3.3,3.1-2.7,5.6-8.2,4.4-13.8-1.1-5.4-5.3-8-8.8-7-3.7,1-7.3,4.9-10.3,8.3-6.1,7-11.1,15.8-15.8,24.9-2.3,4.5-5.1,9.7-4.4,15.9M1346.8,374.8c-.4,0-.8,0-1.2,0,0,0,0-.1-.1-.3-.2-.7-.3-.9-.1-1.7.2-1.9,1.1-3.6,1.9-5.1,2-4.1,4.2-8.1,6.5-12,3.9-6.7,8.2-12.9,13.3-17.6,1.1-1,5.6-5.2,6.3-2.5.9,3.4-3.3,5.9-4.6,6.8-9.7,6.6-16.3,19-21.8,32.3"/>
        <path class="cls-1" d="M1399,389.7c1.5.3,2.8.9,3.9,2.6.9,1.3,1.7,2.7,2.5,4.1,1.7,2.8,3.5,5.6,5.2,8.4,3.4,5.6,6.8,11.2,10.2,16.7,1,1.7,1.1,4.4,0,6.1-1.1,1.6-2.9,1.6-4,0l-10.5-16.3c-1.7-2.7-3.4-5.4-5.1-8.1l-2.6-4.1c-1.2-1.8-1.7-3.7-1.8-6.3,0-1.6,1-3.5,2.1-3.3"/>
        <path class="cls-1" d="M1397.6,395c1-1.6,3-1.8,4,0,5.6,10.1,10.6,20.9,14.6,32.6,1.4,4-2.3,7.2-4,3.5-4.6-10.4-9.4-20.5-14.6-30-1-1.8-1.2-4.4,0-6.1"/>
        <path class="cls-1" d="M1372,344c1.3.5,2.2,2.3,3.2,3.7l2.5,3.8c1.7,2.6,3.4,5.3,5.1,8,3.3,5.4,6.6,10.7,9.9,16.1,1.5,2.6-.8,6.1-2.5,3.8-3.6-4.9-7.2-9.9-10.8-14.8-1.8-2.5-3.5-4.9-5.2-7.4-.9-1.3-1.7-2.5-2.6-3.8-1-1.5-2.2-2.9-2.6-5-.5-2.6,1.2-5.1,2.9-4.4"/>
        <path class="cls-1" d="M1371.4,345.8c1.4.7,2.3,2.3,3.3,3.8.9,1.3,1.7,2.6,2.6,3.9,1.7,2.7,3.4,5.4,5,8.2,3.3,5.7,6.3,11.6,9.1,17.8,1.2,2.7-1.5,5.8-3,3.5-3.3-5.3-6.5-10.7-9.9-16-1.6-2.6-3.3-5.2-5-7.7-.8-1.2-1.6-2.5-2.4-3.7-1.1-1.6-2.1-3-2.7-5.2-.6-2.6,1.3-5.3,3-4.5"/>
        <path class="cls-1" d="M1429.5,442.5c13.7,39.9,26.8,80.2,39.7,120.7,6.4,20.1,13,40,19.2,60.2,3.2,10.3,6.4,20.5,9.6,30.7,3.3,10.2,7.2,19.7,10.7,29.7,2,5.5-3.9,10.3-5.4,4.7-2.9-10.5-5.4-21.2-8.6-31.5-3.2-10.2-6.5-20.4-9.9-30.4-6.7-19.8-13.2-39.8-20-59.6-13.7-39.8-27.6-79.4-41.6-119-2.2-6.2,4.1-11.7,6.3-5.4"/>
        <path class="cls-1" d="M1378.5,842.9c14.8-60.5,46.6-109.5,86-133.6,6.8-4.1,13.7-7.7,20.6-11.3,3.3-1.8,6.7-3.5,10-5.2,3.7-1.9,6.8-5.1,10.5-7,4.1-2.2,5.9,7.9,1.7,10-2.8,1.4-5.6,1.6-8.4,2.8-3,1.2-5.9,3-8.8,4.5-5.9,3-11.7,6.2-17.5,9.6-10.3,6.2-20.3,13.2-29.6,22.3-16.9,16.6-31.1,39-42.3,64.5-6.3,14.4-11.6,29.9-15.6,46.1-1.5,6.1-8,3.6-6.5-2.6"/>
        <path class="cls-1" d="M1337.1,248.5c4.2,14.5,9.1,28.6,14.1,42.5,5,14,10.7,27.2,16.2,40.7,2.1,5.2-3.3,9.9-5.4,4.7-5.4-13.5-10.2-27.7-15.1-41.6-4.9-14-9.4-28.3-14.1-42.5-1.4-4.4,3-8.2,4.3-3.8"/>
        <path class="cls-1" d="M1298.3,287.4c.6-2.9,2.3-4.6,3.8-6.6,1.3-1.9,2.6-3.7,3.9-5.6,2.6-3.8,5.3-7.4,8-10.8,5.6-7,11.4-13.3,17.9-18,3.1-2.3,5.8,4.9,2.6,7.1-6.2,4.4-12.4,9.4-17.8,15.7-2.7,3.2-5.2,6.6-7.5,10.4-1.1,1.9-2.2,3.8-3.2,5.8-1.1,2.4-1.8,5.5-3.5,7-2.1,1.9-5-1.3-4.2-5"/>
        <path class="cls-1" d="M1042.4,275.5c21.7,7.6,44.6,7.9,66.8,7.2,22.5-.6,44.9-3.2,67.4-5,22.5-1.8,45.2-2.4,67.7-.6,10.1.8,20.4,1.5,30.4,4,9.6,2.4,19,5.9,28.3,10.1,20.8,9.5,39.7,24.3,57.8,42.4,3.7,3.7-.3,11.8-3.6,7.3-14.5-19.8-33.4-32.4-51.9-40.8-8.9-4-18-6.9-27.2-9.3-10.2-2.7-20.6-5.2-30.9-6.3-44.4-4.6-88.8,6-133.1,8.2-24.4,1.2-48.4-1-72.6-5.3-5.6-1-4.5-13.7,1-11.8"/>
        <path class="cls-1" d="M1188.4,278.7c9.3-2.7,18.4-5.3,27.8-6.2,9.9-1,19.9-1.7,29.9-1.5,9.7.2,19.5,1,29.2,2.3,9.7,1.3,19.5,1.6,29.2,3.5,4.3.8,2.6,11.1-1.7,10-9.7-2.4-19.1-5.4-28.9-6.5-9.5-1-19-1.6-28.5-1.8-18.9-.3-38,.3-56.9,1.8-.6,0-.7-1.4-.1-1.6"/>
        <path class="cls-1" d="M1040.2,273.5c11.2-2.6,22.8-3.3,34.1-3.4,11.9-.1,23.7.7,35.6,2,23.7,2.4,47.2,3.9,71,3,13.8-.5,27.7-3,41.4-2.6,1.7,0,2.1,4,.4,4.6-11.3,3.8-23.2,4.3-34.8,5.1-12,.8-23.9,1-35.9.3-23.4-1.5-46.8-5.1-70.2-5.2-6.4,0-12.7.4-19.1,1.2-7,.9-13.8,3.4-20.6,6-4.7,1.8-6.5-9.8-1.9-10.9"/>
        <path class="cls-1" d="M1016.9,574.7c4.4-31,11.6-61,15.2-92.3,3.7-32.4,2.2-64.7.8-97.3-1.5-35.4-3.7-72.1,3.5-106.4,1.8-8.6,10.7-5.1,8.9,3.6-6.1,30.2-7,61.5-5.9,92.8,1.1,31.3,2.5,62.5-.1,93.6-2.7,31.4-7.7,62.5-12.2,93.4-3.4,23.1-5.8,46.2-7.1,69.6-.5,16.2-.7,32.4.4,48.8,1.8,26.6,6.3,52.5,13.3,77,1.8,6.3-4,11.6-6.1,6.3-.5-.5-.9-1.2-1.2-2.3-.7-2.9-1.2-5.8-1.7-8.7-5.5-22.4-9.3-45.6-11.1-69.4-.8-10.5-1.3-21.3-1.3-32.2-1.1-25.6.9-51.4,4.5-76.4"/>
        <path class="cls-1" d="M1029.1,754.6c2.9-1.7,5.5-.4,8.4.5,3.1.9,6.1,1.9,9.2,2.7,6.3,1.6,12.7,2.8,19,3.8,13,2.1,26.1,3.8,39.2,5.6,26.4,3.6,52.8,7.3,79.2,9.7,15.1,1.4,30.2,2.1,45.3,3.4,4.4.4,4.4,11,0,10.6-26.9-2.6-53.8-7-80.7-9.2-26.6-2.2-53.1-5.1-79.7-8.1-7.1-.8-14.3-1.7-21.4-3-3.5-.6-6.9-1.3-10.4-2.2-3.5-.9-7.2-1.4-9.7-5.7-1.7-2.9-.8-6.6,1.4-7.9"/>
        <path class="cls-1" d="M1382.8,843.6c59.8,32,125.4,32.9,188,30.3,67.8-2.9,135.4-8.9,203.1-14.4,18.4-1.5,36.8-2.6,55.2-5.3,18-2.7,35.6-8.7,52.7-18.2,3.6-2,6.1,7.3,2.5,9.5-14.8,9.2-30.3,12.4-46.1,15.1-16.2,2.7-32.5,4.5-48.8,6.6-34.4,4.4-68.8,7.6-103.3,10.3-34.5,2.7-68.9,4.9-103.4,6.6-32.2,1.6-64.4,3.3-96.6.4-35.8-3.2-71.2-12-105.3-29.7-4.6-2.4-2.7-13.7,1.9-11.3"/>
        <path class="cls-1" d="M1230.8,779.9c25.5,10.5,51.1,20.2,76.5,31,25.4,10.8,50.8,21.8,75.9,34,4.3,2.1,2.4,12.3-1.9,10.2-25.1-12.4-50.2-24.5-75.7-35.2-25.4-10.6-51.1-20.8-76.9-28.6-5-1.5-2.8-13.5,2.2-11.5"/>
        <path class="cls-1" d="M1227.9,788.4c.6-2.5,3.4-4,4.2-.8,2.1,7.6,1,17.8,1.1,25.9.1,9.1.3,18.2.8,27.2.4,9.1,1.1,18.1,1.8,27.2.4,5,.9,9.9,1.6,14.8.6,4.3,1.1,7.4,0,11.5-1,3.6-4,2.4-5.2,0-1.7-3.5-1.3-8-1.4-12.3,0-4.7-.3-9.4-.5-14.1-.4-8.7-.7-17.4-1.1-26.2-.4-8.7-.8-17.5-1.2-26.2-.2-4.7-.4-9.4-.5-14.1-.1-4.3-.6-8.9.4-13"/>
        <path class="cls-1" d="M1026.6,762.6c.3-7.2,7.7-7.2,7.4,0-1,19.1-1.9,38.1-1.8,57.3,0,9.2.2,18.4.6,27.6.4,10,.6,20.5,2.1,30.2,1.3,8.4-7.7,9.9-7.5,1.5.2-9.8-.6-19.8-.8-29.6-.2-9.5-.4-19.1-.5-28.6-.2-19.4-.2-38.9.7-58.3"/>
        <path class="cls-1" d="M1027.9,879.3s0,0,0,0c.3-2.6.8-5.1,1.4-7.6.1-.4.2-.8.4-1.2,0,0,0-.1,0-.2.9,0,1.8.4,2.5,1.4,4.2,5.4,7.8,9.3,13.1,11,6.1,2,12.5,2.4,18.7,3.1,13.5,1.7,27,2.5,40.5,3.3,27.3,1.5,54.7.6,82-.6,15.7-.7,31.4-2,47-3.1,4.8-.3,4.8,12.3,0,12.6-57.4,3.3-115,6.8-172.4-.8-6.6-.9-13.2-1.6-19.7-3.7-4.9-1.5-10.5-4.6-13.8-11.2.1-1,.1-2,.2-3"/>
        <path class="cls-1" d="M1235,885.9c12.2-13.6,26.9-24,42-27.2,0,0,0,0,0,0,.1-1,.3-2,.4-3.1,0-.7.3-1.2.6-1.7.2-.5.5-1,.9-1.3.3-.1.5-.3.8-.5.4-.2.8-.2,1.2,0,.3,0,.5.1.8.3.4.2.8.5,1.1,1,.2.3.3.7.5,1,.3.8.4,1.6.4,2.4l-.2,3.2v1.6c-.1.3-.1.5-.2.8,0,.5,0,1-.1,1.6,0,.5-.3,1-.4,1.5-.2.4-.4.7-.5,1.1-.3.5-.7.9-1.1,1.1-.2.2-.5.3-.8.3-.3.1-.6,0-1,0-7,2.8-14,5.7-20.6,10.1-7.1,4.7-13.8,10.7-20,17.7-1.6,1.8-4.1.3-5-2.1-1.1-2.9-.2-5.9,1.4-7.7"/>
        <path class="cls-1" d="M1883.9,833.1c5.2-.3,8.2,6.6,9.2,13.6.5,3.6.5,7.3.5,10.9,0,4.1.2,8.1.4,12.2.1,2.6-1.5,4.8-3.1,4.8s-3.3-2.2-3.1-4.8c.4-6.4.8-12.9.5-19.3,0-1.2-.2-2.5-.5-3.6-.1-.5-.3-.9-.5-1.3-.1-.3-.2-.5-.4-.8.1.3.1.3-.1-.1,0-.1-.9-1.3-.5-.8-.3-.4-.7-.7-1-1-.1-.1-1.1-.8-.6-.5-.2,0-.3-.1-.5-.2,0,0,0,0-.2,0-3.8-.2-3.8-8.8,0-9"/>
        <path class="cls-1" d="M1231.6,834.6c0-.4-.1-.9-.2-1.3-.2-3.9.1-7.9.2-11.9.5,0,.9,0,1.4.1,42.7,17.3,85.1,35.8,127.6,53.7,20.8,8.8,41.6,17.6,62.8,24,21,6.4,42.2,10.2,63.6,12.3,43.1,4.3,86.2,1,129.3-.7,43.7-1.7,87.4-3.8,131-8.5,24.4-2.6,48.7-6.3,73-10,11.5-1.8,22.9-3.6,34.3-6.4,11.7-2.9,22.3-10.1,33-17.5,3.9-2.7,7.3,6.4,3.3,9-9.5,6.3-19.5,9-29.6,12.4-9.8,3.4-19.5,6.6-29.4,9.1-21.6,5.4-43.2,9.1-65,11.9-44,5.7-88.2,8.3-132.4,10.5-43.6,2.2-87.4,4.3-131,2-21.5-1.2-43-3.7-64.3-8.7-21.3-5-42.2-13-63.1-21.3-48.2-19.3-96.5-38.3-144.6-58.5,0,0,0,0,0,0"/>
        <path class="cls-1" d="M1221.7,274.9c39.1,41.8,74.9,92,105.6,147.8,30.9,56.1,56.4,118.1,75.7,185.2,3.1,10.7,5.6,21.6,8.3,32.5,3,12,6.5,23.4,9.9,35.1,6,20.9,12.7,41.2,14.6,64.2.4,4.6-4.4,4.6-4.7,0-.8-10.3-2.7-20.2-4.9-29.9-2.2-9.6-4.2-19.3-6.4-28.9-2.4-10.4-4.3-21.1-7.3-31.1-2.9-9.8-6.2-19.3-9.2-29-10.3-33.1-21.3-65.4-34.1-96.5-24.9-60.7-54-117.1-88.2-166.3-19.3-27.8-40.2-52.9-62.1-75.7-2.9-3-.2-10.4,2.7-7.3"/>
        <path class="cls-1" d="M1312.9,813.2c3.5-10.9,6.9-21.8,10.4-32.7,3.1-9.8,6.1-20,10.2-29,4-9,9.2-16.6,14.1-24.4,5.3-8.4,10-17.4,15.1-26,9.5-16,20.8-28.8,32.8-40.1,12.1-11.4,24.1-23.4,36.4-34.3,13.9-12.2,28.7-23.8,44.1-30.9,3-1.4,4.4,6.1,1.3,7.3-14.1,5.5-27,13.9-39.8,24.7-12.1,10.2-24.2,20.8-35.6,32.8-11.4,11.9-22.7,24.3-32.3,39.5-5.1,8.1-9.6,17-14.5,25.5-4.7,8.2-10.1,15.7-14.5,24.3-4.8,9.3-8.2,20.1-11.4,30.8-3.7,12.3-7.4,24.6-11.2,36.9-1.5,5.1-6.6.7-5-4.4"/>
        <path class="cls-1" d="M1539.2,892.5c-107.6,8.2-206.7-62.7-310.1-105.6-.4-.1-.9-.3-1.4-.5.3,10.5.6,21.1.5,31.7,0,1.1,0,2.1,0,3.2,90,42.3,182.4,88.5,277.8,84.7-17.6-1.9-35-5.3-52.4-9.8,28.5,3.3,57.2,1.4,85.5-3.8"/>
        <path class="cls-1" d="M1890.3,842.5c-8.8-14.2-10.5-24.5-13.5-39.8-6-10.4-12.1-20.5-19.5-28.8-13.9-15.5-30.4-25-46.5-33.6-36.7-19.7-74.6-35.1-111.7-52.6-30.4-14.4-71.5-17.9-95.4-53.5-15.1-2.5-30.1-5.7-44.8-9.9,18.3,12.1,36.1,21.6,53.8,29.1-10.2-.9-20.4-1.9-30.5-3.2,25.7,12.2,51.8,22.4,78.3,30.3-17.7.1-35.5.7-53.2,1.9,25.1,6.2,50.2,13.2,75.3,19.7-16.1,1.8-32.1,4-48.2,6.9,34.1,3,68.1,9.7,102.1,15.3-24,2.9-48,6.8-71.8,11.9,40,2.7,79.8,9.7,119.7,14-25.3,4.8-50.6,9.2-76,12,37.5,5.8,75.3,8.5,113.1,8.5-26.3,8.7-52.7,16.6-79.3,22.9,35,.3,70.1.2,104.9-4.4-35.7,13-71.6,24.4-107.8,31.6,22.4,1.2,45,1.4,67.5,0-33.5,9.7-67,19.6-100.5,28.9,52.1-1.1,104.4,0,156.3-7.4-24.8,11.2-49.1,20.6-69.2,23.7-38.8,7.6-77.9,7.3-116.9,12.4-34.5,4.5-68.8,11.9-103.4,13.4,30.9,3.5,61.9,4,92.8,3.6-37,3.8-74,7.6-111.1,11,72.9,6.7,146.1,8.3,218.8-2.9,39.3-5.9,80.7-10.7,118-31.9-.6-7.4-1-14.9-1.2-22.4,0-2.1-.1-4.3-.2-6.4"/>
        <path class="cls-1" d="M1725.8,821.7c-89.9,1.2-166.4-16.1-253.2-44.6-4.5-1.5-9-3-13.5-4.5,87.7,23.1,177.8,23.9,266.3,12.9-78.1-5.1-141.4-17-212.6-38.1,54.7,10.9,110.2,13.4,165.1,9-40.9-5.9-82-15.9-123-29,26.2,4.5,52.6,5.7,78.9,7.8-43.9-12.3-87.2-29-129.5-50.5-.9,6.5-4.2,12.1-9.6,12.3-13.6.7-25.6,9.9-37.2,20-11,9.5-22,19.6-32.3,31-10.9,12.1-20.7,27.1-28.6,44.1,3.8,1.7,7.7,3.4,11.6,5.1,9.6,3.9,19.3,7.4,29.1,10.7-3.8-1.1-7.7-2.1-11.6-3.2-10.4-2.7-20.7-5.4-31-8.4-5,11.4-9,23.8-11.9,36.8-1.3,5.8-4.9,11.3-9.3,10.8-11-1.2-21.3-5-31.7-10.6-3.3-1.8-5.2-5.5-6-9.6-6.3-3.4-12.6-6.9-18.9-10.4-4.6.2-9.3-.3-13.9-1.2,13.6,9.1,27.5,17.2,41.8,24.3,29.5,13.1,60.2,19.3,90.7,24.6,78.2,14.5,155.9-4.8,232.3-16.2-58.9-1-105.4-7.2-153.4-17.6,70.1,11.6,141.3,8.5,211.2-5.7"/>
        <path class="cls-1" d="M1492.8,644.1c.5,2.5,1.1,5.1,1.6,7.7,1.2,5.9,1.9,13,5.5,16.6,3,3.1,4.5,7.7,4.7,12.3,36.1,15.5,73.7,26.4,111.4,29.8-47.9-17.4-84.6-39.2-123.3-66.3"/>
        <path class="cls-1" d="M1488.7,627.1c1.5,5.3,2.7,10.6,3.9,16,30.9,18.7,62.9,32.9,95.5,41.7-37.4-19.3-73.4-46.6-107.9-78.5,3.4,6.1,6.2,12.8,8.5,20.7"/>
        <path class="cls-1" d="M1440.9,490.3c0,.5.2.9.2,1.4,11.7,33.8,22.5,68.4,32.1,103.7,30.9,27.9,63.7,50.4,99,61.4-36.8-22.4-67.1-54.8-95.9-89.7,23.2,22.3,47.4,42.4,72.2,60.1-36.9-40.6-72.6-87.2-107.6-136.9"/>
        <path class="cls-1" d="M1035.7,312c-.2,4.2-.3,8.3-.5,12.5,11.3-.8,22.6-1.7,33.9-2.6-11.1-3.2-22.3-6.7-33.4-9.9"/>
        <path class="cls-1" d="M1036.1,287.1c6.9-.4,13.9-.8,20.8-.9-7-2.9-14-5.3-21.1-7.4.1,2.8.2,5.5.3,8.3"/>
        <path class="cls-1" d="M1035.9,307.2c10.8.7,21.5,1.8,32.2,4.2-10.5-6.1-21.2-11-31.9-15.1,0,3.6-.1,7.3-.2,10.9"/>
        <path class="cls-1" d="M1092.7,738.4c27.6,1.9,55.2,2.1,82.7-.4-39-5-77.4-16-116.6-26.3,23,1.2,46,.9,68.9-.2-10.6-2-22.5-4.6-34.7-7.2,30.7-1.2,61.5-2.7,92.2-.4-43.2-17.4-87.4-29.2-132-35.4,36.1-.7,72.1,1,106.9,10.3-22.5-12.7-44.1-22.4-65.2-29.6,23.2-.5,46.3-.1,69.5,1.9-27.9-12.8-52.6-21.9-75.4-28.1,24.6,1.4,49.2,3.4,73.8,6.1-20.5-10.1-39.1-18.4-56.4-25.2,22.9,1.5,45.8,3.7,68.6,7.3-23.5-11.9-47.4-23-71.6-31.9,23.9,2.4,47.6,5.3,70.5,10.8-34.5-19.2-70-35.1-106.2-45.9,39-.5,78-.5,116.9,4.5-47.7-20.2-89.2-33.8-129.2-40.6,31.6-5.5,87.9-13.2,123.9-10.6-32.5-11.2-65.3-20.3-98.4-24,30.4-1.1,60.7-1.6,91,2.9-38.3-19.6-78.2-32.6-118.4-38.4,19.8,0,39.6.3,59.3,2.6-23-10.3-46.4-19.6-70-26.3,22.5.8,45,1.9,67.4,5.1-18.4-9.1-37-17-55.8-23.5,16,0,31.9,0,47.8,1.5-8.7-4.4-17.5-8.3-26.3-11.7,15.7.1,31.4.6,47.1,2.7-21.4-9.8-43.1-16.7-65-21.6,15.8-1,31.6-1.6,47.4-1.1-18-7-36.4-12.4-54.8-16.5,15.6-.4,31.2-.8,46.8.2-20.4-9.3-41.2-16.1-62.3-20.5-.2,6.7-.4,13.4-.3,20.1.3,25.7,2.1,51.3,2.6,76.9.8,43.4-3.6,82.3-11.1,123.9-8.1,44.7-13.1,88.1-10.7,134.7,1.3,26.4,7.5,51.2,12.3,76.2,63.4,9.2,127.2,4.8,190.8,5.7-42-8.6-84-18.5-125.9-28.2"/>
        <path class="cls-1" d="M1324.2,788.2c-30.8-6.1-60.1-12-95.7-20.2,29.1,15.5,58.3,31,87.9,43.9,1.8-8.3,4.4-16.4,7.8-23.8"/>
        <path class="cls-1" d="M1411,642.5c-3.3-11.9-5.7-24.5-8.9-36.5-3.4-12.7-6.9-25.4-10.8-37.8-1.7-4.5-3.5-9.1-5.2-13.6-6.1-15.8-12.5-31.4-19.3-46.5-13.4-29.8-28.1-57.6-43.6-84.9-29.5-51.9-59.9-103.4-98.2-140.6-.9-.9-1.5-2-2-3.2-19.9-1.5-39.9-.8-60,2.5,15.3,3.5,30.5,8,45.7,12.6-35.4-3.8-72.1-1.8-111,7.7,17.5,2.4,33.3,5.1,49.1,8.5-25.4-3-50.9-5.4-76.2-8.7,34,16.9,69.1,28,103.6,42.4,1.1.4,2.3.9,3.4,1.4-33.7-7.8-67.6-13.6-102-17.6,44.7,18.1,88.9,39.4,133.2,59.9-30.6-8.5-61.4-14.7-92.6-18.1,38.4,14.2,75.7,34.4,112.8,55.4-38.1-9-76.5-15.8-114.9-21.1,44.6,18.8,88.8,39.9,132.9,60.9-12.1-3.8-24.2-7.3-36.4-10.7-33.3-8.8-66.6-18.3-100.4-20.9,67.3,24.1,132.4,60.4,197.4,96.5-38.7-12.1-77.8-21-117.1-25.7,26.9,10.9,53.3,23.8,79.7,37.2-40.6-10.5-81.5-18.1-121.9-30,53.7,27.1,108.6,48.3,162.2,75.8-32.2-10-64.6-18-97.2-23.6,22.7,9.8,45,20.9,67.3,32.6-47.3-14.6-95.2-25.5-143-34.8,61.1,23.7,120.8,53.9,180,86.4-27.4-8.7-55.1-16.1-82.8-22.2,14.9,7.4,29.6,15.2,44.3,23.3-32.3-9.6-64.8-17.3-97.3-23.3,45.3,20.3,89.7,44.8,134,69.8-52.3-14.1-105-23.5-156.9-33.8,42.5,20.9,86.2,35.1,129,54.4,9.9,4.3,19.8,8.9,29.6,13.5-40.3-9.3-80.7-16-121.9-20.6,42.9,13.8,85.3,30.5,127.5,48.5-39.1-6.9-79.2-11.4-121.5-14.5,41.5,11.7,82.4,27.6,123.3,43.6.4-.9.9-1.8,1.4-2.7,1.4-7.8,3.2-15.5,5.7-23.1,4.9-14.9,12.5-25.9,21.6-33.3.6-1.7,1.3-3.4,2-5.1,8.7-19.5,19.1-30,30.1-44.5,8.6-11.2,16.7-22.5,26.6-31-.5-1.2-1-2.5-1.3-4.2,0-.1,0-.2,0-.4"/>
        <path class="cls-1" d="M1749.9,933.2c5.6,2.2,11.2,4.5,16.4,6.6-4.2-2.8-8.5-5.4-12.8-8.1-1.1.5-2.4,1-3.6,1.4"/>
        <path class="cls-1" d="M1374.1,829.4c13.1-35.2,26.4-65.8,44.2-94.1-21.7,21.1-39.3,61-44.2,94.1"/>
        <path class="cls-1" d="M1370.1,811.5c9.1-19.6,17.5-40,25.1-61-11.4,16.7-20.3,38.7-25.1,61"/>
        <path class="cls-1" d="M1364.5,792.6c5.7-10.3,9.9-22,14.8-33.2-6.6,8.3-12.1,22.5-14.8,33.2"/>
        <path class="cls-1" d="M1357.4,457.8c17.7,54.3,39.4,108.9,57.8,160.7-8.6-61.2-32-113.3-57.8-160.7"/>
        <path class="cls-1" d="M1393.7,513.6c6.5,27,15.1,54.8,26.1,77.3-5.8-27.8-14.8-53.7-26.1-77.3"/>
        <path class="cls-1" d="M1410.4,530.8c1.8,8.6,4.3,17.6,7.5,24.8-1.7-8.8-4.1-17.2-7.5-24.8"/>
        <path class="cls-1" d="M1472.5,615c4.2,20.7,10.8,47.3,18.2,62-3.5-22.2-9.4-43.5-18.2-62"/>
        <path class="cls-1" d="M1048.5,866.6c52.6,20.5,106.9,16.7,160.5,9.5-51.7-11.6-112.6-15.1-160.5-9.5"/>
        <path class="cls-1" d="M1035.4,847.9c46.4,13.7,93.4,12.7,140.4,11.2-46.3-14-92.7-21.1-140.4-11.2"/>
        <path class="cls-1" d="M1047.4,827.1c23.3,7.9,47.1,9.9,70.9,6.7-23.2-8.9-47.4-11.5-70.9-6.7"/>
        <path class="cls-1" d="M1064.5,811.8c8.7,3.9,17.7,4.9,26.7,3.9-8.4-4-18.5-5.6-26.7-3.9"/>
        <path class="cls-1" d="M1062.9,792.5c4.8,2.1,9.8,2.5,14.8,3.1-4.6-2.7-10-3.4-14.8-3.1"/>
        <path class="cls-1" d="M1259.7,300.1c24.2,34.5,48.1,70.7,70.3,107.5-16.8-44.8-41-81.8-70.3-107.5"/>
        <path class="cls-1" d="M1283.7,312.2c12.8,18.8,25.5,40.5,38.8,57.1-9.9-23.1-22.4-44.4-38.8-57.1"/>
        <path class="cls-1" d="M1300.8,318.6c7.1,12.2,17.1,26.8,24.6,34.8-6.9-13.6-14.7-26.3-24.6-34.8"/>
        <path class="cls-1" d="M1317,322.3c2,4.5,4.8,8.7,7.5,11.7-2.1-4.5-4.7-8.3-7.5-11.7"/>
        <path class="cls-1" d="M1331.5,261.7c2.3,21.5,9.2,42.3,18.4,58-5.4-19.9-11.6-39.1-18.4-58"/>
        <path class="cls-1" d="M1327.5,275.3c2.3,13.6,8.1,29.4,13.9,37.7-4.1-13.1-8.5-25.9-13.9-37.7"/>
        <path class="cls-1" d="M1321.1,287.5c1.6,5.2,4,10.5,6.6,14.1-1.8-5.1-3.9-10-6.6-14.1"/>
        <path class="cls-1" d="M1468.8,627.3c1.4,16,6,32.3,11.9,44.8-2.9-15.6-7-30.4-11.9-44.8"/>
        <path class="cls-1" d="M1461.5,642.5c1.1,10.1,3.9,20.9,7.6,28.7-1.9-10-4.5-19.5-7.6-28.7"/>
      </g>
    </g>
  </g>
</svg>